<svg width="1440" height="129" viewBox="0 0 1440 129" fill="none" xmlns="http://www.w3.org/2000/svg">
<path d="M705.756 0H818.813C821.429 0.841749 824.235 1.4675 827.15 1.85907C834.195 2.24537 841.324 2.19708 848.411 2.36609C859.333 2.63167 870.255 2.96968 881.219 3.18697C885.971 3.18697 890.765 3.06625 895.518 3.18697C897.852 3.18697 900.145 3.98372 902.438 3.98372C906.898 3.98372 911.359 3.59742 915.861 3.54913C916.862 3.54913 917.862 4.37002 919.488 5.07018C920.567 4.62646 921.71 4.23866 922.906 3.91129C923.753 3.77786 924.645 3.77786 925.491 3.91129C925.866 6.08422 928.784 5.1909 930.494 5.21505C943.75 5.21505 957.007 5.21505 970.264 5.33577H1198.84C1220.51 5.33577 1242.15 5.07019 1263.83 4.99775C1286.63 4.99775 1309.43 4.99775 1332.4 4.99775L1333.2 2.58338C1334.87 2.84688 1336.59 3.02461 1338.32 3.11454C1347.02 3.44376 1355.75 3.36302 1364.42 2.87311C1374.67 1.88321 1384.68 5.72207 1394.81 2.87311C1395.06 2.87311 1395.64 3.18697 1396.1 3.23526C1401.9 4.0774 1407.77 4.7303 1413.69 5.1909C1420.64 5.44133 1427.6 5.44133 1434.54 5.1909C1438.71 5.1909 1440.04 5.84278 1440 8.30545C1439.79 20.3773 1440 32.4492 1440 44.5211C1440 70.0812 1440 95.6655 1440 121.274C1440 123.544 1438.92 124.292 1434.87 124.292C1428.33 124.292 1421.74 124.727 1414.69 124.992L1419.11 127.407L1418.49 128.083H1384.85V129H1402.86C1384.26 129 1365.8 129 1347.33 129C1311.77 128.855 1276.21 128.614 1240.65 128.469C1234.48 128.469 1228.14 128.831 1222.18 128.831C1213.22 128.831 1204.26 128.686 1195.29 128.421C1177.37 127.865 1159.44 127.358 1141.6 126.513C1133.26 126.127 1125.26 124.292 1117.13 124.413C1100.45 124.63 1084.03 125.934 1067.44 126.417C1050.85 126.899 1034.84 126.899 1018.58 127.165C1013.91 127.165 1009.32 127.576 1004.66 127.672C1001.03 127.672 997.361 127.672 993.692 127.672C988.106 127.527 982.52 127.262 977.017 127.068V127.986L983.77 128.3C960.634 127.817 937.456 127.889 914.319 127.793C901.521 127.793 888.723 127.431 875.925 127.165C869.088 127.02 862.293 126.803 855.498 126.489C839.24 125.789 823.023 124.437 806.807 124.413C718.638 124.195 630.427 124.292 542.216 124.413C540.34 124.413 538.464 124.413 536.63 124.413V125.161H547.343C504.363 124.871 461.384 124.92 418.404 124.871C375.424 124.823 332.819 124.606 290.006 124.533C247.193 124.461 204.755 124.533 162.15 124.533V125.161L167.194 125.475C162.513 125.847 157.782 125.969 153.062 125.837C134.97 125.378 116.919 124.582 98.8685 124.437C67.9363 124.195 37.3377 124.34 6.65563 124.316C0.0273057 124.316 0.0273057 124.316 0.0273057 120.574C0.0273057 83.7788 0.0273057 46.9918 0.0273057 10.2128C0.0273057 5.04604 -0.88982 5.52892 7.90625 5.23919C11.9819 5.47566 16.0971 5.31241 20.079 4.75632C22.2365 3.97814 24.7522 3.59915 27.291 3.66985C32.2101 4.10444 37.1292 4.70803 42.0901 5.07018C44.7276 5.16713 47.3731 5.16713 50.0107 5.07018V4.2493C47.301 3.98372 44.5913 3.66985 41.6732 3.45255C34.5863 2.87311 27.1659 2.26951 19.7455 1.76249C17.5778 1.61763 16.7023 1.23133 17.5778 0H34.5863C44.0911 0.820887 53.5541 1.83492 63.1423 2.41437C68.8535 2.75239 74.7314 2.41437 80.526 2.41437C85.3617 2.53509 90.1975 3.35598 94.9916 3.2594C120.004 2.7041 145.017 1.78664 170.238 1.37619C185.829 1.23133 201.337 1.76249 217.053 1.76249C232.769 1.76249 248.11 1.52106 263.618 1.40034C264.279 1.44416 264.934 1.5168 265.577 1.61763L261.909 2.94554H284.045V4.05615H191.248V5.14262C192.999 5.14262 194.75 5.43234 196.501 5.43234H243.024C269.496 5.43234 295.926 5.43234 322.23 5.43234C331.527 5.43234 340.823 4.99775 350.119 4.75632C351.682 5.03164 353.288 5.21763 354.913 5.31162C384.901 5.4082 414.874 5.46453 444.834 5.48063C446.251 5.48063 447.585 4.75632 449.002 4.39416C450.585 3.81426 452.337 3.40526 454.172 3.18697C462.759 3.01797 471.389 3.01797 480.018 3.06625C482.16 2.94594 484.312 3.23418 486.146 3.88714C487.5 4.59601 489.12 5.11323 490.878 5.39812C492.635 5.683 494.483 5.72778 496.276 5.52892C506.073 5.33577 515.869 4.99775 525.457 4.94947C533.545 4.94947 541.674 5.33577 549.803 5.31162C559.224 5.31162 568.646 4.92532 578.109 4.94947C588.739 4.94947 599.369 5.4082 610 5.4082C629.635 5.4082 649.269 5.4082 668.862 4.99775C678.075 4.82875 687.83 5.98765 696.084 2.29366C696.26 2.19562 696.47 2.12103 696.701 2.07514C696.931 2.02926 697.176 2.01319 697.419 2.02807C701.254 2.58338 703.505 1.18304 705.756 0ZM841.532 124.171V125.161C882.306 127.398 923.289 128.092 964.219 127.238L841.532 124.171ZM1154.56 124.992V125.741C1166.21 127.52 1178.36 127.947 1190.29 126.996L1154.56 124.992ZM1341.78 128.01V127.576H1310.23V128.01H1341.78ZM1149.48 126.755L1149.81 125.378L1134.18 124.147L1133.93 125.33L1149.48 126.755Z" fill="#E4EEF0"/>
</svg>