<svg width="1440" height="223" viewBox="0 0 1440 223" fill="none" xmlns="http://www.w3.org/2000/svg">
<path fill-rule="evenodd" clip-rule="evenodd" d="M705.756 0H818.813C821.429 1.45123 824.235 2.53007 827.15 3.20516C831.847 3.64917 836.581 3.76017 841.315 3.87117C843.682 3.92667 846.049 3.98217 848.411 4.0793C852.483 4.25002 856.556 4.4381 860.63 4.62628C867.484 4.9428 874.343 5.25961 881.219 5.49456C882.802 5.49456 884.389 5.47148 885.978 5.44838C889.16 5.40211 892.348 5.35574 895.518 5.49456C896.69 5.49456 897.852 5.84107 899.009 6.18602C900.156 6.52788 901.297 6.8682 902.438 6.8682C904.811 6.8682 907.183 6.67976 909.562 6.49082C911.656 6.32456 913.754 6.15791 915.861 6.11894C916.507 6.11894 917.152 6.70789 917.966 7.44999L917.966 7.45026C918.413 7.85848 918.911 8.31301 919.488 8.74135C920.567 7.97634 921.711 7.30775 922.907 6.74333C923.753 6.51329 924.645 6.51329 925.491 6.74333C925.783 9.65899 927.616 9.37256 929.219 9.12183C929.676 9.0504 930.115 8.98187 930.494 8.9911C943.75 8.9911 957.007 8.9911 970.264 9.19923H1198.84C1211.38 9.19923 1223.92 9.04581 1236.45 8.89237C1245.58 8.78072 1254.7 8.66906 1263.83 8.61647H1332.4L1333.2 4.45393C1334.87 4.90821 1336.59 5.21464 1338.32 5.36969C1347.02 5.93728 1355.75 5.79807 1364.42 4.95343C1368.73 4.23645 1372.99 4.98879 1377.24 5.73824C1383.1 6.77273 1388.94 7.80174 1394.81 4.95343C1394.93 4.95343 1395.12 5.07161 1395.33 5.20601C1395.58 5.3592 1395.86 5.53347 1396.1 5.57781C1401.9 7.02971 1407.77 8.15537 1413.69 8.94947C1420.64 9.38123 1427.6 9.38123 1434.54 8.94947C1438.71 8.94947 1440.04 10.0734 1440 14.3192C1439.86 28.1852 1439.91 42.0512 1439.95 55.9172V55.9446C1439.98 62.8822 1440 69.8198 1440 76.7574V209.085C1440 212.998 1438.92 214.288 1434.87 214.288C1430.32 214.288 1425.76 214.65 1421.03 215.024C1418.95 215.188 1416.85 215.355 1414.69 215.495L1419.11 219.658L1418.49 220.823H1384.85V222.405H1347.33C1329.55 222.28 1311.78 222.114 1294 221.947L1293.99 221.947C1276.21 221.78 1258.43 221.614 1240.65 221.489C1237.54 221.489 1234.38 221.648 1231.26 221.805C1228.18 221.96 1225.14 222.113 1222.18 222.113C1213.22 222.113 1204.26 221.864 1195.29 221.406C1193.09 221.288 1190.89 221.172 1188.68 221.055L1188.65 221.054L1188.62 221.052L1188.61 221.052C1172.92 220.222 1157.23 219.393 1141.6 218.117C1138.01 217.831 1134.48 217.081 1130.98 216.337C1126.35 215.353 1121.76 214.377 1117.13 214.496C1107.62 214.71 1098.2 215.532 1088.78 216.353C1081.68 216.973 1074.57 217.593 1067.44 217.951C1056.74 218.488 1046.29 218.678 1035.86 218.869C1030.11 218.974 1024.36 219.079 1018.58 219.241C1015.94 219.241 1013.32 219.468 1010.7 219.695C1008.69 219.869 1006.68 220.043 1004.66 220.115H993.692C990.14 219.957 986.588 219.714 983.057 219.472L983.052 219.472C981.032 219.334 979.019 219.196 977.017 219.075V220.657L983.771 221.198C966.034 220.56 948.273 220.484 930.526 220.408C925.122 220.385 919.719 220.362 914.319 220.324C904.215 220.324 894.111 219.934 884.007 219.545C881.313 219.441 878.619 219.338 875.925 219.241C869.088 218.992 862.293 218.617 855.498 218.076C850.132 217.677 844.77 217.157 839.411 216.636L839.411 216.636C828.534 215.579 817.671 214.524 806.807 214.496C718.638 214.121 630.427 214.288 542.216 214.496H536.63V215.674C506.772 215.39 476.915 215.358 447.057 215.326C437.506 215.316 427.955 215.305 418.404 215.287C395.236 215.242 372.177 215.113 349.135 214.983L349.129 214.983C329.427 214.872 309.739 214.762 290.006 214.704C261.462 214.621 233.085 214.649 204.715 214.676H204.71H204.706H204.701H204.696H204.692H204.687H204.682C190.51 214.69 176.339 214.704 162.15 214.704V215.786L167.194 216.328C162.513 216.97 157.782 217.179 153.062 216.952C146.873 216.681 140.689 216.343 134.508 216.004L134.506 216.004L134.504 216.004L134.502 216.004L134.5 216.004L134.498 216.003L134.496 216.003L134.494 216.003L134.493 216.003C122.61 215.352 110.739 214.702 98.8685 214.538C77.3492 214.248 55.9914 214.281 34.6545 214.314H34.6518H34.6454H34.639H34.6327H34.6263H34.6199H34.6135H34.6071C25.2898 214.328 15.9766 214.342 6.65563 214.33C0.0273056 214.33 0.0273057 214.33 0.0273057 207.878V17.6076C0.0273057 16.7594 0.0189911 15.9995 0.0115381 15.3184C-0.020478 12.3926 -0.0365929 10.9198 0.690614 10.1426C1.4276 9.35499 2.92802 9.28166 5.94903 9.13403H5.94904L5.94909 9.13403C6.54117 9.10509 7.19166 9.07331 7.90626 9.03273C11.9819 9.44041 16.0971 9.15896 20.079 8.20022C22.2365 6.85858 24.7522 6.20518 27.291 6.32707C29.2957 6.63241 31.3003 6.98615 33.3078 7.34038C36.2264 7.85538 39.1509 8.37142 42.0901 8.74135C44.7276 8.90848 47.3731 8.90848 50.0107 8.74135V7.32608C49.2244 7.19321 48.438 7.05333 47.6466 6.91254L47.6466 6.91253L47.6465 6.91252L47.6465 6.91251L47.6464 6.9125L47.6463 6.91249L47.6463 6.91248L47.6462 6.91247C45.7105 6.56811 43.7444 6.21834 41.6732 5.95244C34.5863 4.95343 27.1659 3.91279 19.7455 3.03866C17.5778 2.78891 16.7023 2.1229 17.5778 0H34.5863C37.4977 0.433504 40.4051 0.898251 43.3134 1.36314C49.9 2.41598 56.491 3.46954 63.1423 4.16255C66.9497 4.55105 70.8313 4.42155 74.7129 4.29205C76.6537 4.2273 78.5945 4.16255 80.526 4.16255C82.6238 4.25284 84.7217 4.57031 86.8161 4.88726C89.5496 5.30092 92.2773 5.71371 94.9916 5.61944C105.343 5.22321 115.695 4.72004 126.062 4.21615L126.062 4.21614L126.062 4.21614L126.062 4.21614L126.062 4.21614L126.062 4.21613L126.062 4.21613L126.062 4.21613C140.744 3.50249 155.455 2.78742 170.238 2.37265C178.953 2.23304 187.643 2.45764 196.357 2.68288C203.232 2.86057 210.122 3.03866 217.053 3.03866C227.536 3.03866 237.853 2.85344 248.164 2.66833L248.164 2.66832C253.31 2.57593 258.455 2.48357 263.618 2.41428C264.279 2.48984 264.934 2.61507 265.577 2.78891L261.909 5.07831H284.045V6.99308H191.248V8.86622C192.124 8.86622 192.999 8.9911 193.874 9.11598C194.75 9.24085 195.625 9.36573 196.501 9.36573H243.024H322.23C328.666 9.36573 335.102 9.00662 341.538 8.64751C344.399 8.4879 347.259 8.3283 350.119 8.20022C351.682 8.6749 353.288 8.99556 354.914 9.1576C384.901 9.3241 414.874 9.42123 444.834 9.44898C445.767 9.44898 446.663 8.90803 447.571 8.36019C448.043 8.07566 448.518 7.78927 449.002 7.57584C450.585 6.57605 452.337 5.8709 454.172 5.49456C462.759 5.20318 471.389 5.20318 480.018 5.28643C482.16 5.07901 484.312 5.57596 486.146 6.7017C487.5 7.92384 489.12 8.81557 490.878 9.30673C492.635 9.79788 494.483 9.87508 496.276 9.53223C499.581 9.4199 502.885 9.27915 506.182 9.13874C512.658 8.8629 519.104 8.58839 525.457 8.53322C529.373 8.53322 533.299 8.68938 537.23 8.84574C541.417 9.01229 545.61 9.17907 549.803 9.1576C554.366 9.1576 558.929 9.00136 563.497 8.84496C568.361 8.67845 573.229 8.51176 578.109 8.53322C583.424 8.53322 588.739 8.73094 594.054 8.92866C599.369 9.12638 604.685 9.3241 610 9.3241C629.635 9.3241 649.269 9.3241 668.863 8.61647C670.84 8.55393 672.842 8.59686 674.85 8.63989C682.194 8.79735 689.602 8.95617 696.085 3.95442C696.26 3.78539 696.47 3.6568 696.701 3.57769C696.931 3.49858 697.176 3.47088 697.419 3.49654C700.978 4.38496 703.172 2.36997 705.269 0.4452V0.445154C705.432 0.295759 705.594 0.146908 705.756 0ZM536.63 215.674C540.201 215.707 543.772 215.745 547.343 215.786H536.63V215.674ZM841.533 214.08V215.786C882.307 219.643 923.289 220.839 964.219 219.366L841.533 214.08ZM1154.56 215.495V216.785C1166.21 219.854 1178.36 220.589 1190.29 218.95L1154.56 215.495ZM1341.78 219.949H1310.23V220.698H1341.78V219.949ZM1149.48 218.534L1149.81 216.161L1134.18 214.038L1133.93 216.078L1149.48 218.534ZM253.212 221.363L253.209 221.363L253.207 221.363C240.426 221.085 227.649 220.808 214.968 220.24C201.67 219.658 188.455 218.159 175.24 216.078C177.242 216.188 179.249 216.317 181.258 216.445L181.26 216.446L181.263 216.446L181.264 216.446L181.265 216.446L181.265 216.446L181.266 216.446L181.267 216.446L181.268 216.446C185.319 216.706 189.377 216.966 193.416 217.077C209.507 217.451 225.557 217.701 241.648 217.951H266.161C266.432 217.951 266.72 217.94 267.014 217.929C269.112 217.851 271.555 217.76 271.08 221.448L271.08 221.739L271.117 221.733L271.08 221.781C265.136 221.622 259.184 221.493 253.233 221.364L253.229 221.364L253.226 221.363L253.222 221.363L253.219 221.363L253.216 221.363L253.212 221.363ZM271.117 221.733C273.466 218.738 276.645 218.928 279.726 219.113C280.524 219.161 281.316 219.208 282.085 219.2C287.36 219.2 292.62 219.334 297.882 219.469L297.885 219.469C301.398 219.559 304.912 219.649 308.432 219.699C323.69 219.991 338.905 220.24 354.288 220.407C357.997 220.407 361.682 220.267 365.378 220.127L365.38 220.127C366.628 220.08 367.877 220.033 369.129 219.991C367.511 220.639 365.815 221.073 364.085 221.281H275.499C274.031 221.348 272.568 221.499 271.117 221.733ZM563.726 221.822H478.934C487.271 218.409 556.348 218.45 563.726 221.822ZM389.264 219.949H369.004L389.264 221.905V219.949ZM469.304 221.198H453.213V220.615L469.471 219.783L469.304 221.198ZM406.689 220.365H392.599L392.432 221.115H406.689V220.365ZM428.659 220.282H442.041V220.99H428.534L428.659 220.282ZM338.905 7.86721L350.203 8.15859L349.953 8.07534L363.896 6.74333H368.254V6.32707L363.896 6.74333H333.569C335.201 7.62805 337.055 8.01862 338.905 7.86721Z" fill="#BFDDE8"/>
</svg>
