<svg width="52" height="242" viewBox="0 0 52 242" fill="none" xmlns="http://www.w3.org/2000/svg">
<path opacity="0.2" d="M54.0922 6.72677C56.4445 9.85576 59.4536 9.35617 62.5688 9.35617C63.0562 9.35617 63.8826 10.7235 63.9886 11.5912C64.0946 12.4589 63.4376 13.2477 63.035 14.0365C62.9431 14.164 62.8275 14.2618 62.6982 14.3214C62.569 14.3809 62.43 14.4005 62.2933 14.3783C58.2033 13.721 56.8259 18.0333 54.6432 20.8204C50.0235 19.6898 50.0235 19.6897 44.662 21.8195L49.6632 23.7916C48.6036 29.2344 44.2382 25.5271 41.5681 29.2871C40.7416 31.7062 37.1603 34.5459 38.4529 39.8047C38.4529 40.1203 37.6053 41.2771 37.0967 41.3034C34.257 41.5664 33.9604 44.7217 32.7313 46.8252L32.8796 46.5886C31.8612 51.4083 31.4115 56.3859 31.5445 61.3658C31.6717 63.6534 30.04 66.0988 29.1287 68.623L31.7565 71.5942C31.2453 72.1624 30.6837 72.6564 30.0823 73.0667C29.7463 73.187 29.4395 73.4086 29.1893 73.7118C28.9391 74.0149 28.7532 74.3902 28.6483 74.8042C28.5434 75.2181 28.5227 75.6579 28.588 76.0842C28.6534 76.5105 28.8027 76.9101 29.0228 77.2474C29.4042 77.9311 30.9512 77.6682 32.477 77.9311C32.1591 79.9557 31.6929 82.0329 31.5022 84.1365C31.4158 86.2211 31.4158 88.3098 31.5022 90.3945C30.0612 88.8168 29.1075 87.765 28.1539 86.6607C26.0348 90.1841 28.8532 93.0765 28.8956 96.3369C28.8956 98.9663 29.7645 101.254 28.8956 104.225C28.2082 106.933 28.3983 109.866 29.4254 112.403C29.7221 113.191 29.9976 114.664 29.7221 115.032C29.0916 115.641 28.677 116.53 28.5663 117.512C28.4555 118.494 28.6572 119.491 29.1287 120.291C29.5677 121.169 29.8092 122.177 29.828 123.209C29.2665 126.42 28.9192 129.683 28.7897 132.965C28.9592 136.251 30.6121 139.433 30.9088 142.72C30.9757 147.582 30.8271 152.445 30.4638 157.287L32.922 159.916C32.1167 161.441 31.2479 163.045 30.2731 164.912C31.9528 172.269 32.3573 179.985 31.4598 187.551C31.0148 192.363 32.1379 197.096 31.6929 202.065C31.3538 205.957 33.6849 210.243 34.9987 214.292C35.2047 214.727 35.4801 215.105 35.8081 215.404C36.136 215.702 36.5096 215.914 36.906 216.027C39.2971 216.676 41.3975 218.435 42.776 220.944C43.7084 222.522 46.0818 222.759 47.9467 223.574V227.702C48.9158 229.88 50.4761 231.562 52.3501 232.448C54.2241 233.334 56.2905 233.366 58.1821 232.54C56.6701 235.527 54.3359 237.732 51.6128 238.745L47.6288 235.432L42.9243 240.691C41.2078 242.032 41.5469 235.432 39.1735 239.166C33.8332 240.034 28.5777 240.954 23.1527 241.796C22.0864 241.913 21.0118 241.806 19.974 241.48C18.2999 241.007 18.088 239.324 19.3171 235.564L11.1372 234.302C10.777 231.383 8.12804 229.201 9.92931 225.809C10.0776 225.546 7.93731 223.863 7.49229 222.548C7.04727 221.234 7.74658 218.341 7.15322 217.921C4.61025 216.133 6.28439 213.529 6.22081 211.584C5.71222 198.437 5.18242 188.208 10.1836 175.088C11.1584 172.458 9.35714 169.829 10.9253 167.62C8.80617 162.361 10.9253 157.234 11.3703 152.054C11.759 148.744 11.5195 145.368 10.671 142.194C10.5015 141.326 10.4379 139.801 10.8405 139.564C14.4219 136.593 13.4683 131.676 14.2947 127.601L14.104 127.785C14.8033 127.785 15.8841 128.31 16.2232 127.916C16.8589 126.943 17.6854 125.155 16.2232 124.577C12.3875 123.209 17.4523 122.105 16.2232 120.922L14.4431 119.344L17.4311 109.773C16.6487 108.448 15.7767 107.207 14.8245 106.066C13.9073 105.305 12.8884 104.753 11.8153 104.435C11.667 102.227 14.6126 100.202 11.561 98.5193C11.561 95.3377 7.78896 93.0764 10.0988 89.3164C11.667 87.4495 15.7781 92.6295 15.3967 85.3197L13.2775 80.9549L13.0868 81.2441L15.4179 80.0346C15.4603 79.3871 15.4603 78.7364 15.4179 78.0889C14.8245 73.8029 14.3795 73.2507 11.3279 74.4076C9.20879 75.1702 7.61945 75.6698 6.45392 72.8563L11.2008 69.1488C10.4711 68.7022 9.70343 68.3583 8.91211 68.1234C8.06446 69.7273 7.38634 71.4627 6.66583 73.1456C5.07647 72.7775 3.88975 70.7791 4.54669 69.6747C6.34796 66.5983 4.84336 63.1012 5.71221 59.9722L9.61143 62.365C7.78897 56.2911 7.11085 55.2393 3.25401 52.2155L3.42354 52.4522C3.84737 49.2706 4.29239 46.089 4.67383 43.1704C4.16524 42.6182 3.95332 42.2237 3.82617 42.2763C2.80898 42.5655 1.81299 42.9337 0.520316 43.3807C-0.115426 41.172 -0.496872 38.9633 1.38916 37.5171C2.68184 36.5179 3.5083 35.6765 3.08448 33.6782L5.7334 32.5212L4.33478 29.8918C4.65265 27.2624 4.97051 24.7645 5.35196 21.6355C9.29356 16.9289 9.29356 16.9289 14.1252 16.1401C14.4643 14.4573 14.8457 12.5641 15.3331 10.1976L21.4574 8.85658L22.6653 9.93465L21.2667 9.11954C21.4362 7.83113 21.4362 6.06942 23.0468 6.64789C25.5898 7.59448 28.048 8.8303 30.5697 9.93465L35.4014 7.59452C35.3274 6.72045 35.3274 5.83918 35.4014 4.96511C35.5894 4.14613 35.86 3.35983 36.2067 2.6249C36.8424 2.99302 37.9232 3.25599 38.0291 3.80817C38.3394 5.97262 38.5376 8.15947 38.6225 10.3554L46.1878 0.389893C49.5573 0.88948 49.5996 6.41123 53.0114 5.6487C53.3029 6.11535 53.6293 6.5468 53.9863 6.93717L54.0922 6.72677ZM14.1464 62.1547C14.1464 62.6806 13.9981 63.2064 13.9981 63.259V62.3913L15.2272 62.8383L14.1464 62.1547ZM25.3778 80.0083L25.5262 80.876L25.844 80.1924L25.3778 80.0083ZM22.8349 114.217C23.0452 113.773 23.2226 113.307 23.3647 112.823C23.3647 112.823 22.9196 112.35 22.8349 112.429C22.5004 112.687 22.1879 112.986 21.9025 113.323L22.8349 114.217ZM44.6832 16.1926C44.5065 15.7147 44.3084 15.2495 44.0899 14.7991C43.9228 14.8625 43.7599 14.9416 43.6025 15.0357C43.743 15.5201 43.9058 15.9942 44.0899 16.4556L44.6832 16.1926ZM19.7833 130.861V131.492L20.4402 131.255L19.7833 130.861ZM52.1002 14.352L52.6088 14.615L52.3121 13.8262L52.1002 14.352Z" fill="#8AACD1"/>
</svg>
