<svg width="72" height="316" viewBox="0 0 72 316" fill="none" xmlns="http://www.w3.org/2000/svg">
<path d="M19.2981 158.48C12.2981 158.628 5.20814 158.653 -1.83186 158.962C-7.94186 159.234 -14.0419 159.803 -20.1519 160.199C-23.9019 160.471 -27.7719 160.199 -31.3819 161.188C-38.1519 163.13 -44.8919 161.955 -51.6419 161.968C-58.2319 161.968 -64.8218 161.968 -71.4118 161.856C-75.1866 161.8 -78.8909 160.584 -82.1919 158.319C-85.1319 156.303 -86.1918 153.371 -85.4818 149.66C-85.1518 147.805 -84.2619 145.95 -82.8019 146.185C-78.8019 146.84 -78.0019 140.804 -74.1419 140.643C-70.4819 140.482 -66.8719 138.491 -63.2619 137.254C-59.8619 136.104 -56.5119 134.78 -53.0919 133.716C-39.9052 129.593 -26.7052 125.516 -13.4918 121.483C-13.0083 121.363 -12.5534 121.108 -12.1617 120.737C-11.77 120.366 -11.452 119.889 -11.2318 119.343C-12.2318 119.343 -13.3118 119.22 -14.3518 119.232C-21.1652 119.282 -27.9818 119.356 -34.8018 119.455C-36.4418 119.455 -38.0818 119.739 -39.7318 119.875C-40.9018 119.974 -42.2319 120.556 -43.2119 120.073C-48.5619 117.451 -54.4019 118.7 -59.8219 116.647C-63.2119 115.41 -66.6118 114.272 -69.4818 111.588C-70.4646 110.827 -71.2764 109.772 -71.8419 108.52C-72.237 107.199 -72.237 105.747 -71.8419 104.426C-71.6219 103.77 -70.2618 103.399 -69.4218 103.412C-66.2618 103.486 -63.1019 103.77 -59.9319 103.659C-62.9319 102.299 -66.5919 103.659 -69.0019 99.8371C-67.7519 96.0521 -64.8319 95.4584 -62.1819 94.4936C-57.6919 92.8485 -52.9019 92.1187 -48.7119 89.7314C-34.0919 81.3946 -18.0818 79.0321 -2.98183 72.8351C-1.64183 72.2909 -0.271828 71.8703 1.07817 71.4002C6.43817 69.5077 11.6982 67.1081 17.3681 66.2175C15.9039 66.0204 14.4306 65.946 12.9582 65.9949C7.32818 66.6133 1.72814 67.4297 -3.89186 68.0729C-7.40186 68.4811 -10.8918 68.7409 -14.4218 69.0625C-14.8869 68.9942 -15.3568 68.9942 -15.8219 69.0625C-23.8219 72.2661 -32.1219 70.8189 -40.2519 71.9321C-47.9969 72.7946 -55.797 72.5289 -63.4918 71.1405C-66.3081 70.7104 -68.9643 69.2845 -71.1419 67.0339C-72.0031 66.0695 -72.703 64.9054 -73.2019 63.6076C-73.3947 63.1574 -73.4979 62.6568 -73.503 62.1473C-73.508 61.6379 -73.4148 61.1342 -73.231 60.6782C-73.0472 60.2223 -72.778 59.8272 -72.446 59.5257C-72.114 59.2241 -71.7286 59.0248 -71.3219 58.9444C-68.4753 58.7561 -65.6383 58.3887 -62.8219 57.8436L-68.2819 56.6067C-68.1319 55.4811 -68.2819 54.2936 -67.8919 54.0091C-66.1633 52.5767 -64.3362 51.335 -62.4319 50.2983C-48.7818 43.2726 -35.0918 36.3583 -21.4318 29.3696C-20.1258 28.6939 -18.922 27.7486 -17.8718 26.5742C-24.988 26.763 -32.0748 27.765 -39.0418 29.5675C-39.7218 29.7654 -40.4918 30.6066 -41.0418 30.3963C-46.0418 28.2812 -51.1919 30.1242 -56.2519 29.7407C-57.1019 29.7407 -57.9119 28.8254 -59.2519 28.0585C-58.7541 27.0833 -58.1669 26.1827 -57.5019 25.3744C-55.0316 23.1101 -52.1387 21.6549 -49.0919 21.1441C-43.2819 20.1422 -37.4519 19.3753 -31.6319 18.46C-29.5374 18.1987 -27.4572 17.7856 -25.4019 17.2231C-17.2394 14.5095 -8.90657 12.6517 -0.491837 11.6693C1.38654 11.4818 3.21735 10.8431 4.89818 9.78915C14.4382 3.7406 24.6781 0.932808 35.2281 0.10407C41.3781 -0.378329 47.4082 1.13075 52.3582 6.36293C52.8981 6.91502 53.3816 7.54632 53.7982 8.243C54.0601 8.90543 54.2484 9.60859 54.3582 10.3334C51.7982 14.0442 48.2982 16.0232 44.3582 17.0623C19.6682 23.4819 -3.97185 33.9339 -27.3119 45.5115C-32.4819 48.0719 -37.4418 51.2879 -42.3119 54.0833C-42.3119 57.4849 -40.2219 56.4335 -39.2519 57.3488C-38.5419 58.0044 -38.3519 59.699 -37.6319 60.0701C-36.5004 60.4587 -35.3204 60.5845 -34.1519 60.4411C-24.2807 60.7648 -14.4028 60.3518 -4.57185 59.2042C4.32815 58.1075 13.1781 56.6933 21.9781 54.9616C25.4495 54.4704 28.8022 53.1021 31.8282 50.9416C37.2682 46.7484 54.8281 46.6247 60.7781 49.9397C62.5646 51.0589 64.3006 52.2977 65.9781 53.6504C65.9781 57.3612 64.4082 59.0063 62.4182 60.0824C60.6882 60.9779 58.9107 61.7259 57.0981 62.3213C30.4381 71.6477 3.75813 80.8751 -22.9019 90.2757C-31.6919 93.3927 -40.3619 97.0293 -49.2719 100.505C-43.8519 108.607 -43.3519 109.015 -36.4019 109.163C-26.5219 109.448 -16.6519 109.695 -6.77187 109.745C-3.71667 109.597 -0.669441 109.259 2.35814 108.731C5.63814 108.335 8.90816 107.617 12.1882 107.568C18.6582 107.481 24.6281 105.094 30.5981 102.397C39.9881 98.0806 49.5981 96.1016 59.5981 98.5136C64.3082 99.6392 67.3282 101.692 71.7682 106.912C69.6282 112.243 65.3882 113.245 61.3182 114.408C58.7997 115.135 56.2381 115.611 53.6581 115.831C41.6581 116.832 29.9881 120.382 18.2781 123.462C-1.23188 128.583 -20.7218 133.927 -39.9118 140.779C-41.2418 141.249 -42.5319 141.905 -44.2119 142.622L-41.4619 145.43L-51.8618 147.904C-50.4218 150.786 -48.4718 149.388 -46.8618 149.833C-45.2526 150.281 -43.611 150.525 -41.9619 150.563C-38.6719 150.662 -35.3719 150.749 -32.0919 150.563C-19.1819 149.734 -6.27184 148.164 6.63817 148.089C14.6982 148.089 22.5281 146.222 30.4882 145.616C32.83 145.358 35.13 144.688 37.3182 143.624C43.6482 140.841 50.2082 140.42 56.8082 140.458C61.0655 140.433 65.2361 141.946 68.8082 144.812C70.2182 145.937 70.2682 146.185 71.4582 150.798C68.7682 154.756 64.8882 156.006 60.9882 156.983C46.6782 160.372 32.2781 163.242 18.0481 167.039C-1.45186 172.246 -21.0118 177.293 -40.1018 184.616C-46.3418 187.015 -52.6219 189.366 -58.5919 193.583C-55.8219 197.146 -51.4019 196.799 -49.2719 201.005C-48.9219 201.685 -47.5318 201.636 -46.6118 201.747C-41.0018 202.39 -35.3919 203.417 -29.7719 203.516C-14.9519 203.751 -0.121834 203.714 14.6982 203.516C25.4994 203.433 36.2678 202.037 46.8481 199.347C50.2935 198.331 53.8776 198.268 57.345 199.162C60.8124 200.055 64.0777 201.884 66.9081 204.518C67.5877 205.271 68.2103 206.099 68.7682 206.992C67.5082 211.803 64.3282 213.102 61.1581 214.017C34.6481 221.761 8.15815 229.417 -18.6919 235.503C-27.4519 237.494 -36.1119 240.203 -45.0719 242.652C-44.9719 243.889 -44.8818 244.965 -44.7418 246.66L-49.7418 248.144C-47.5818 250.618 -45.2018 250.494 -42.9318 250.544C-33.3018 250.742 -23.6719 250.865 -14.0319 251.001C-1.79934 251.173 10.431 250.471 22.5981 248.899C24.461 248.827 26.2866 248.235 27.9382 247.167C35.1082 241.935 43.0282 241.056 51.0682 242.219C53.5395 242.466 55.942 243.349 58.1219 244.81C60.3018 246.271 62.2113 248.279 63.7281 250.704C64.0217 251.161 64.2515 251.675 64.4081 252.226C64.5076 252.891 64.5578 253.566 64.5582 254.242C61.1582 257.953 56.7582 258.979 52.3982 259.722C20.0663 265.403 -12.0015 273.186 -43.6718 283.038C-50.5542 284.929 -57.2822 287.596 -63.7719 291.003C-65.6519 292.067 -67.7019 292.871 -69.3219 295.592C-67.3219 296.446 -65.6618 297.213 -63.9818 297.881C-62.6418 298.425 -61.1318 298.549 -59.9818 299.402C-52.7318 304.622 -44.6819 304.102 -36.7719 304.56C-25.7188 305.012 -14.6537 304.541 -3.65187 303.15C4.32996 302.456 12.2178 300.6 19.8481 297.621C24.3 295.635 29.1646 295.574 33.6482 297.448C36.8482 298.796 38.8382 301.158 39.3882 305.166C37.9882 308.728 35.1382 309.013 32.8082 309.953C28.3482 311.734 23.7281 312.897 19.2181 314.517C16.9752 315.414 14.5611 315.414 12.3182 314.517C8.69817 313.045 5.01817 313.058 1.19817 313.28C-12.1918 314.233 -25.6019 315.185 -39.0019 315.321C-52.1898 315.652 -65.36 313.961 -78.2119 310.287C-81.5227 309.083 -84.7311 307.484 -87.7918 305.512C-88.7522 304.931 -89.6039 304.108 -90.2926 303.096C-90.9814 302.085 -91.492 300.907 -91.7918 299.637C-92.5518 296.879 -91.1719 294.553 -88.6119 294.529C-87.6771 294.658 -86.7535 294.89 -85.8518 295.221C-85.0218 295.333 -84.2319 295.456 -83.4419 295.592V294.999L-86.0319 295.295L-88.2019 291.585C-86.6671 289.141 -84.5049 287.418 -82.0719 286.699C-76.6819 284.819 -71.4919 282.135 -65.7219 281.751C-61.2538 281.573 -56.8575 280.312 -52.7819 278.04C-51.0465 277.151 -49.2397 276.492 -47.3919 276.074C-37.3452 273.245 -27.2852 270.442 -17.2119 267.663C-11.9719 266.215 -6.71187 264.83 -1.46187 263.383C-0.841873 263.21 -0.251869 262.839 1.84813 261.862C-0.901871 261.664 -2.15183 261.478 -3.36183 261.503C-13.9418 261.676 -24.5218 261.874 -35.1018 262.097C-36.9785 262.159 -38.8512 262.344 -40.7119 262.653C-43.4919 263.098 -46.1619 263.593 -49.0019 262.307C-50.9119 261.453 -53.1918 261.862 -55.2918 261.639C-60.9018 261.033 -66.5118 260.402 -72.1018 259.722C-75.3818 259.22 -78.502 257.683 -81.1618 255.256C-82.173 254.486 -82.9661 253.346 -83.4318 251.995C-83.8975 250.644 -84.0128 249.147 -83.7619 247.711C-83.6319 246.882 -83.3518 245.608 -82.9118 245.448C-79.1718 243.976 -77.0619 239.362 -72.7619 238.533C-63.5119 236.752 -54.4019 233.944 -45.2219 231.668C-31.2219 228.192 -17.2219 224.853 -3.22188 221.352C2.98812 219.794 9.15817 218 15.3282 216.219C17.6598 215.63 19.8667 214.446 21.8082 212.743C20.8082 212.632 19.8082 212.446 18.8082 212.446C11.9982 212.446 5.17814 212.545 -1.64186 212.595C-2.10693 212.527 -2.57676 212.527 -3.04182 212.595C-11.1818 215.18 -19.3818 212.978 -27.5518 213.015C-35.5518 213.015 -43.5518 212.818 -51.5518 212.446C-58.8511 212.208 -66.1075 210.985 -73.1919 208.798C-76.3419 207.783 -79.6119 206.695 -81.7619 203.244C-82.4749 202.112 -83.0572 200.863 -83.4919 199.533C-84.1019 197.628 -83.1319 195.686 -81.3119 195.031C-80.4187 194.804 -79.5126 194.663 -78.6018 194.61L-80.1519 192.136C-77.6135 189.191 -74.5816 186.974 -71.2719 185.642C-57.1011 179.489 -42.6656 174.31 -28.0319 170.131C-18.7019 167.348 -9.33184 164.701 0.068161 162.314C2.78816 161.634 5.68816 161.98 8.49815 161.968C12.3182 161.968 15.9882 161.374 19.1382 158.393L20.0082 157.75L19.2881 158.579" fill="#E8EEF6"/>
</svg>
