<svg width="123" height="159" viewBox="0 0 123 159" fill="none" xmlns="http://www.w3.org/2000/svg">
<path d="M-65 94.6853L-69.11 91.7943C-69.65 88.9203 -68.34 86.7669 -67.51 84.249L-70.63 82.2482C-70.0311 81.6207 -69.4958 80.9514 -69.03 80.2474C-68.69 79.6285 -68.23 78.501 -68.53 78.2721C-70.68 76.6443 -69.11 73.9738 -71 72.3376L-70.12 72.1935L-70.93 72.4817C-70.82 71.3711 -70.72 70.2605 -70.59 69.1584C-70.26 66.3098 -71.59 63.4951 -70.16 60.5448C-68.97 58.0863 -69.01 55.2207 -68.09 52.635C-67.09 49.8373 -66.42 46.8531 -63.8 44.6573C-64.7 41.9444 -59.8 41.2662 -60.8 38.46C-60.8 38.3243 -59.8 37.9513 -59.32 37.6546C-57.37 36.5355 -56.47 36.0183 -56.37 35.0095C-56.21 32.4661 -54.53 31.0418 -52.29 29.7193C-51.503 29.0918 -50.853 28.3513 -50.37 27.532C-50.03 27.0911 -49.87 26.1925 -49.54 26.1671C-45.87 25.8025 -45.07 22.8268 -42.95 21.0803C-41.46 19.8341 -40.37 17.9774 -37.78 18.1385C-36.88 16.0529 -33.99 16.1208 -32.41 14.5269C-31.01 13.1196 -28.41 12.5431 -26.29 11.6953C-25.77 11.4834 -24.67 11.8903 -24.45 11.636C-22.45 9.34694 -18.93 9.85562 -16.64 8.24482C-16.34 8.02439 -16.25 7.59202 -16.04 7.23595L-13.21 8.42285C-10.53 6.92227 -7.87999 5.15039 -4.29999 6.20165C-4.08373 6.23116 -3.86274 6.22386 -3.64984 6.1802C-3.43694 6.13653 -3.23643 6.05736 -3.06 5.94731C1.62 3.17505 7.18002 3.28526 12.46 2.55616C17.46 1.89489 22.35 0.139969 27.66 1.1997C28.9 1.44556 30.07 1.70838 31.28 1.99662C32.28 2.234 33.75 1.01319 34.74 1.25057C38.94 2.25944 43.37 1.55577 47.52 2.6579C48.9153 3.1399 50.4524 3.24357 51.92 2.95462C53.22 2.64942 54.92 3.10723 56.28 3.54808C58.38 4.20935 60.28 5.49799 62.42 5.88797C64.92 6.3373 66.97 7.03248 68.42 8.7874C72.33 9.06717 74.93 11.7038 78.42 12.7635C79.0601 12.8859 79.6566 13.1359 80.16 13.4926C81.22 14.5693 82.16 15.7562 83.07 16.8838C85.53 16.1801 86.45 17.7316 87.82 18.9778C89.0517 20.0281 90.512 20.866 92.12 21.4449C94.32 22.2927 92.7 24.7343 95.01 25.5143C96.5649 26.1761 98.0274 26.9837 99.37 27.922C99.54 28.0152 99.61 28.2272 99.72 28.3883C101.1 30.4229 101.13 33.2376 104.05 34.3736C106.56 35.3571 106.67 38.1887 109.37 38.9771C109.636 39.1225 109.863 39.314 110.035 39.5391C110.207 39.7641 110.322 40.0176 110.37 40.2827C111.04 43.6739 114.1 46.3953 114.37 50.0068C114.5 52.0246 115.84 53.6354 117.66 55.2038C120.47 57.62 122.35 60.8246 121.1 64.3514C120.543 65.9003 120.596 67.5608 121.25 69.0821C122.75 73.321 122.65 77.7549 122.05 82.138C121.76 84.3083 121.3 86.3769 121.24 88.649C121.15 91.9554 119.52 95.2363 118.54 98.5257C115.6 99.3735 115.96 101.612 115.43 103.562C115.05 104.977 114.5 106.614 113.36 107.563C110.83 109.657 111.23 112.87 108.86 115.032C108.23 115.6 108.57 116.974 107.2 117.686C106.134 118.174 105.206 118.855 104.482 119.679C103.759 120.504 103.256 121.452 103.01 122.459C102.778 123.154 102.282 123.764 101.6 124.197C100.323 124.998 99.2745 126.031 98.5305 127.221C97.7864 128.411 97.3659 129.727 97.3 131.072C95.96 131.92 93.74 131.403 93.81 133.387C93.7918 133.572 93.7249 133.751 93.6141 133.911C93.5033 134.071 93.3515 134.207 93.17 134.311C88.33 136.659 85.6 140.763 81.85 144.018C81.4215 144.421 80.9182 144.762 80.36 145.027C75.74 147.053 71.02 148.935 66.47 151.08C63.69 152.394 60.2 152.199 57.77 154.344C57.06 154.971 55.28 154.7 54 154.904C52.52 155.141 50.74 155.09 49.62 155.751C46.17 157.879 42.21 157.184 38.5 157.362C36.2 157.472 33.87 157.362 31.5 157.481C29.3851 157.482 27.2856 157.786 25.29 158.38C24.9943 158.492 24.674 158.55 24.35 158.55C24.026 158.55 23.7057 158.492 23.41 158.38C20.61 156.396 17.21 157.193 14.07 156.769C10.5113 156.308 7.10529 155.222 4.07001 153.581C0.550682 151.771 -3.32455 150.513 -7.37 149.868C-8.25999 149.707 -9.01001 149.02 -10.01 148.418C-10.01 149.054 -10.09 149.834 -10.13 150.622C-11.37 151.606 -12.65 151.953 -14.25 151.106C-15.48 150.461 -15.8 149.825 -15.72 148.477C-15.58 146.01 -17.42 144.425 -20.4 143.721C-20.81 144.086 -21.23 144.493 -21.68 144.857C-21.7839 145.011 -21.926 145.144 -22.0965 145.246C-22.267 145.349 -22.4618 145.419 -22.6674 145.451C-22.8729 145.483 -23.0842 145.477 -23.2867 145.433C-23.4892 145.389 -23.678 145.308 -23.84 145.196C-23.38 142.806 -27.47 143.789 -27.36 141.805C-27.25 139.821 -26.62 137.804 -28.56 136.719C-30.24 135.752 -32.61 135.659 -34.94 135.125C-34.63 134.277 -34.27 133.243 -33.88 132.132C-35.43 131.64 -36.99 131.183 -38.51 130.631C-38.71 130.555 -38.67 129.996 -38.75 129.656C-39 129.419 -39.24 129.182 -39.51 128.97C-39.6713 128.875 -39.846 128.798 -40.03 128.741L-39.61 129.063L-38.76 129.69C-41.57 129.69 -43.03 128.487 -43.41 126.113C-43.5 125.494 -44.22 124.943 -44.65 124.349H-44.47C-45.3069 124.308 -46.1183 124.09 -46.8295 123.714C-47.5407 123.337 -48.1289 122.815 -48.54 122.196C-50.28 119.737 -52.44 117.559 -53.13 114.608C-53.4145 113.564 -54.1631 112.653 -55.22 112.065C-56.22 111.624 -57.64 111.963 -58.88 111.955C-56.81 110.717 -57.88 109.038 -57.94 107.47C-58 105.774 -58.84 104.977 -60.82 104.435C-61.98 104.113 -62.33 102.4 -63.91 101.959C-64.1578 101.816 -64.3592 101.622 -64.4955 101.395C-64.6318 101.169 -64.6987 100.916 -64.69 100.662C-63.56 98.6105 -65.5 96.7878 -65.16 94.8294L-65.04 94.7022L-65 94.6853ZM15.11 139.855C16.39 139.66 17.69 139.525 18.95 139.253C22.7036 138.345 26.6183 138.012 30.51 138.27C34.11 138.584 37.67 136.931 41.4 137.583C41.5024 137.581 41.6025 137.558 41.6915 137.515C41.7805 137.472 41.8556 137.411 41.91 137.337C42.76 135.744 43.99 135.947 45.68 136.422C47.06 136.803 48.68 136.566 50.18 136.617C55.08 136.795 58.25 133.226 62.75 132.48C62.91 132.48 63.03 132.208 63.19 132.039C63.19 131.513 63.11 130.954 63.07 130.343C64.125 129.825 65.2172 129.364 66.34 128.961C67.43 128.631 68.91 128.961 68.87 127.266C68.87 125.367 71.18 126.918 71.69 126.07C73 123.883 75.27 122.416 77.04 120.585C77.8521 119.73 78.4264 118.73 78.72 117.66C79.1456 116.039 80.0743 114.543 81.41 113.328C82.2475 112.472 82.9408 111.522 83.47 110.505C84.86 107.962 86.15 105.418 87.47 102.934C86.39 99.7805 89.18 97.3812 89.79 94.5327C90.64 90.565 90.18 86.4024 92.23 82.6128C92.5465 76.0713 92.0336 69.5199 90.7 63.0713C89.79 58.8323 88.57 54.6527 84.7 51.304C82.8 49.6677 82.02 47.1328 80.59 45.0727C80.06 44.3097 79.25 43.3771 78.38 43.1822C76.18 42.7752 75.24 41.3255 73.88 40.1471C72.52 38.9686 70.88 38.087 69.4 36.9594C67.92 35.8318 66.97 34.3058 65.4 33.5004C61.4 31.4233 57.11 29.643 52.92 27.7863C52.3334 27.5323 51.6776 27.4153 51.02 27.4472C48.26 27.6337 46.11 25.5651 43.3 26.0314C38.53 23.9967 32.86 25.3956 28.14 23.1913C25.74 24.0391 23.41 22.6742 21.14 22.8946C18.7871 23.0455 16.4486 23.3287 14.14 23.7424C8.53001 25.0056 3.22001 27.0657 -2.67999 27.6507C-5.51999 27.9305 -7.68 30.6942 -11.12 30.0075C-11.49 29.9397 -12.07 30.6773 -12.55 31.0418C-13.03 31.4064 -13.89 32.4407 -14.35 32.3559C-16.79 31.8896 -17.86 33.4835 -19.35 34.4499C-21.61 35.8742 -23.23 37.9598 -26 38.8839C-26.3304 39.0848 -26.6016 39.3477 -26.7924 39.6521C-26.9832 39.9566 -27.0884 40.2942 -27.1 40.6388C-27.1 41.4866 -27.1 42.2326 -28.16 42.3344C-30.56 42.5802 -31.53 44.1825 -32.16 45.6662C-32.81 47.3617 -33.61 48.8708 -35.35 49.6253C-37.44 50.524 -36.27 52.6011 -38.14 53.7371C-40.38 55.1105 -41.09 57.9761 -42.03 60.6042C-42.5871 62.1193 -43.3033 63.589 -44.17 64.9957C-45.02 66.3946 -43.67 68.6412 -44.17 70.3283C-45.1206 73.3441 -45.3987 76.4838 -44.99 79.5862C-44.6201 81.9553 -44.6201 84.3554 -44.99 86.7245C-45.2648 87.7321 -45.1089 88.7896 -44.55 89.7087C-42.26 93.6764 -39.62 97.5423 -39.33 102.146C-39.2 104.13 -37.47 106.639 -35.33 109.132C-34.9633 109.595 -34.6294 110.076 -34.33 110.573C-34.58 112.268 -34.75 113.922 -32.24 114.591C-30.98 114.922 -30.7 115.719 -30.79 116.728C-30.8418 116.95 -30.8405 117.179 -30.7862 117.401C-30.7318 117.623 -30.6255 117.834 -30.4736 118.02C-30.3216 118.207 -30.1271 118.365 -29.9014 118.487C-29.6758 118.609 -29.4237 118.691 -29.16 118.729C-28.1725 118.973 -27.2811 119.438 -26.58 120.076C-24.38 122.255 -21.97 124.315 -20.82 127.139L-19.37 128.351L-19.28 128.275L-20.68 127.113C-17.35 127.24 -16.23 130.292 -13.1 131.064C-11.656 131.386 -10.3547 132.06 -9.3562 133.001C-8.35771 133.943 -7.70555 135.111 -7.47998 136.363C-4.12998 136.151 -1.34001 136.651 1.10999 138.482C2.75101 139.657 4.5304 140.685 6.41998 141.551C8.19998 142.399 10.48 142.729 11.65 141.169C12.72 139.745 14.33 140.635 15.35 139.855C15.02 139.966 14.42 140.042 14.4 140.195C14.2 141.373 15.28 141.576 16.28 141.788C16.3785 141.783 16.4739 141.757 16.5576 141.712C16.6413 141.668 16.7109 141.607 16.76 141.534C16.83 141.246 16.93 140.796 16.76 140.686C16.2801 140.375 15.7602 140.11 15.21 139.898L15.11 139.855ZM7.62 153.123L8.13 152.962L7.78003 152.911L7.62 153.123ZM75.99 40.2319L76.34 40.0623L75.94 39.8249L75.99 40.2319ZM-20.93 140.627L-20.73 140.924L-20.44 140.576L-20.93 140.627Z" fill="#ECF2F8"/>
</svg>
