<svg width="411" height="80" viewBox="0 0 411 80" fill="none" xmlns="http://www.w3.org/2000/svg">
<path d="M104.13 41.44C103.63 41.44 103.78 41.72 103.93 42.09C104.34 41.79 104.69 41.3401 105.11 41.2701C105.61 41.275 106.104 41.3698 106.57 41.55C107.27 42.31 107.11 43.23 107.26 44.13C106.35 44.85 105.37 44.26 104.34 44.28C104.74 44.86 105.52 44.8 105.86 45.34C105.86 45.34 106.08 45.34 106.19 45.34C107.38 45.06 107.38 45.06 108.19 46.34C107.93 46.88 107.62 47.39 106.88 47.06C106.196 46.8803 105.478 46.8735 104.79 47.04C104.93 46.55 105.06 46.04 105.19 45.6C105 45.46 104.71 45.55 103.74 46.01L104.81 47.01L105.2 47.23C104.682 47.9252 104.339 48.7346 104.2 49.59C103.61 49.09 103.14 48.66 102.64 48.29C102.433 48.1362 102.289 47.9135 102.232 47.6623C102.175 47.4111 102.21 47.1479 102.33 46.92C101.98 46.64 101.49 47.2101 101.24 46.7401C101.079 46.3423 100.955 45.9305 100.87 45.51C100.604 45.4851 100.336 45.4851 100.07 45.51C99.93 45.51 99.74 45.73 99.74 45.85C99.74 46.24 100.06 45.99 100.23 46.05C100.4 46.11 100.35 46.21 100.42 46.32C100.01 46.39 99.6 46.8 99.27 46.2L98.41 46.2701C98.41 46.3301 98.41 46.4001 98.41 46.4601L99.24 46.2101C99.2126 46.258 99.1891 46.3082 99.17 46.36C98.7 47.36 98.7 47.36 97.66 47.82L97.78 48.4601C97.35 48.5101 97.35 48.5101 96.78 47.2101C96.8481 47.012 96.9282 46.8183 97.02 46.63C97.12 46.43 97.25 46.2401 97.4 45.9901L96.69 45.56L96.07 46.14L96.13 46.09L95.73 46.32L96.13 46.5H96.07C95.97 47.23 96.47 47.79 96.73 48.5L95.48 48.7701C95.7 49.2801 96.48 49.51 96.2 50.29C95.51 50.29 94.9 50.92 94.04 50.72C94.15 50.18 94.25 49.7201 94.36 49.1801C93.24 49.1801 93.24 49.18 93.58 50.36C93.16 50.68 92.49 50.82 92.92 51.64C93.05 51.89 92.86 52.31 92.82 52.64V52.58C92.51 52.58 92.29 52.83 92.45 52.95C93.19 53.58 92.45 54.4 92.79 55.09C92.85 55.24 92.55 55.58 92.38 55.8C92.21 56.02 91.79 56.1 91.52 55.73C91.387 55.5261 91.27 55.3121 91.17 55.09L91.61 54.72L90.69 53.82C89.9491 54.5598 89.1034 55.1866 88.18 55.6801C88.0464 55.7296 87.9378 55.8299 87.8779 55.9591C87.818 56.0884 87.8115 56.2361 87.86 56.37C87.9105 56.6429 87.857 56.9247 87.71 57.16C87.32 57.85 86.95 57.89 86.3 57.36C86.1747 57.2111 86.0642 57.0504 85.97 56.88C86.1845 56.6165 86.3815 56.3392 86.56 56.05C86.69 55.81 86.89 55.4601 86.8 55.2701C86.39 54.2701 86.92 53.5 87.13 52.6L86.46 52.29C85.7458 53.0753 84.8178 53.6348 83.79 53.9V53.9C83.67 53.53 83.5 53.28 83.08 53.6V53.04L81.14 52.7401C81.01 53.2301 80.26 53.3701 80.42 54.0201L82.02 53.92C82.02 54.17 82.02 54.42 82.02 54.67L80.02 55.67C80.02 56.13 80.57 55.89 80.79 56.29C80.56 56.75 79.97 56.92 79.63 57.29C79.3236 57.6988 79.0431 58.1263 78.79 58.57V58.62C78.72 58.28 78.66 57.94 78.59 57.56C78.3 57.56 78.08 57.56 77.85 57.56C77.6403 57.5764 77.4309 57.5263 77.2513 57.4168C77.0718 57.3073 76.9314 57.144 76.85 56.95C76.62 56.54 76.28 56.71 76 57.1C76.48 57.51 77 57.91 77.54 58.38C77.12 58.83 77.06 59.57 76.26 59.64V59.69C76.1407 59.4878 75.9787 59.3141 75.7852 59.1811C75.5918 59.048 75.3715 58.959 75.14 58.92C74.9659 58.9068 74.7992 58.8443 74.6593 58.7398C74.5194 58.6353 74.4121 58.4932 74.35 58.33C74.2493 57.9398 74.1257 57.5558 73.98 57.1801C73.81 56.8801 73.23 56.94 73.3 56.35C73.3 55.92 72.89 56.0801 72.65 55.9901C72.18 55.8101 72.17 55.7501 72.37 54.9901C72.6615 55.2396 72.9763 55.4606 73.31 55.65C73.6753 55.7843 74.0542 55.8782 74.44 55.9301C74.5062 55.8992 74.5632 55.8516 74.6054 55.792C74.6476 55.7323 74.6735 55.6627 74.6805 55.59C74.6876 55.5173 74.6756 55.444 74.6457 55.3774C74.6158 55.3108 74.569 55.2531 74.51 55.2101C74.17 54.9201 73.79 54.69 73.44 54.44C73.51 53.66 74.3 54.0201 74.58 53.7701C74.74 53.1101 74.36 52.9401 73.82 52.7701C73.95 52.4601 74.04 52.2101 74.14 51.9601L74.92 52.14C74.9002 52.0679 74.8571 52.0042 74.7974 51.959C74.7378 51.9138 74.6649 51.8896 74.59 51.89C74.4355 51.9002 74.2819 51.9202 74.13 51.95C74.25 51.71 74.57 51.4901 74.3 51.1801C74.21 51.0801 74.01 51.0701 73.89 51.0201C73.42 51.3101 73.8 51.7101 73.65 52.0201C72.75 52.3701 72.57 52.3701 72.2 51.7701C71.83 51.1701 71.53 50.5501 71.2 49.9301C71.04 49.6201 70.9 49.47 70.32 49.16L71.68 48.38C71.8722 48.4099 72.0678 48.4099 72.26 48.38C72.4595 48.3304 72.6359 48.2139 72.76 48.05C72.9 47.8 72.7 47.66 72.46 47.57C72.0222 47.4503 71.5557 47.4966 71.15 47.7L71.72 48.41C71.5619 48.3327 71.3862 48.2984 71.2106 48.3107C71.035 48.323 70.8658 48.3814 70.72 48.48C70.45 48.66 70.41 48.5901 69.83 48.2101C69.83 47.7201 70.63 47.62 70.4 47.08C70.2416 46.7767 70.0505 46.4917 69.83 46.23V46.23C69.92 46.04 70.1 45.84 70.08 45.66C70.08 45.26 69.87 44.88 69.8 44.48C69.7857 44.394 69.7887 44.3059 69.8087 44.221C69.8287 44.1361 69.8653 44.056 69.9165 43.9853C69.9676 43.9146 70.0323 43.8548 70.1067 43.8093C70.1811 43.7637 70.2638 43.7334 70.35 43.72C70.73 43.66 71.17 43.83 71.48 43.45C72.1 43.56 72.72 43.69 73.34 43.76C73.7329 43.785 74.1271 43.785 74.52 43.76C74.5102 43.8598 74.5102 43.9603 74.52 44.06C74.52 44.06 74.58 44.16 74.61 44.2C74.6003 44.1539 74.6003 44.1062 74.61 44.06C74.605 43.9634 74.605 43.8667 74.61 43.7701L74.9 42.64V42.7101L76.4 42.5C76.16 42.02 76 41.68 75.79 41.25L75.14 41.62C75.0383 41.4181 74.9213 41.2242 74.79 41.04C74.5853 40.8764 74.368 40.7292 74.14 40.6C74.77 39.43 75.68 39.9 76.46 39.92L77.21 40.8C77.45 40.4 77.65 40.08 77.91 39.67C77.69 39.54 77.47 39.32 77.33 39.36C77.0188 39.4351 76.6917 39.4086 76.3966 39.2845C76.1016 39.1603 75.8539 38.945 75.69 38.67V38.67C75.82 38.4 75.94 38.1401 76.09 37.8001L77.96 38.06C77.82 37.34 77.69 36.68 77.57 36.06L79.44 36.6801C79.777 36.9258 80.1657 37.0914 80.5764 37.1642C80.9871 37.237 81.409 37.215 81.81 37.1L82.08 37L81.79 37.09C81.79 36.39 81.28 37.0201 81.03 36.8601C80.7877 36.7022 80.5098 36.6076 80.2215 36.5849C79.9333 36.5622 79.644 36.6121 79.38 36.73C80.0091 35.746 80.5576 34.7126 81.02 33.64L80.6 33.4C80.86 32.54 80.86 32.54 80.15 32.4C80.02 32.74 80.28 33.16 79.92 33.45L78.85 33.7V35.59L77.58 36.09C77.46 36.55 77.16 36.31 76.91 36.26C77.06 35.26 76.77 34.1 77.83 33C78.12 32.84 79.17 33.1401 79.18 32.0801L78.28 32.4601C77.9 31.8201 77.66 31.06 76.77 30.89C76.67 30.89 76.62 30.61 76.55 30.47L76.03 29.3301L75.18 29.7101L73.18 28.6C72.2306 28.9925 71.1842 29.0867 70.18 28.87C69.8463 28.817 69.505 28.8375 69.18 28.9301C68.54 29.0301 68.37 29.25 68.28 29.98C68.28 30.1 68.28 30.2201 68.28 30.3301C68.21 30.7601 67.91 30.88 67.52 30.65C67.4192 30.5911 67.3281 30.5169 67.25 30.4301C67.17 30.3501 67.1 30.2501 66.96 30.0801L67.54 29.31C67.48 29.31 67.41 29.17 67.33 29.16C66.44 29 65.67 29.54 64.78 29.59C64.2137 29.6202 63.6463 29.6202 63.08 29.59C62.0421 29.3715 60.9606 29.52 60.02 30.01V30.01C58.9894 29.771 57.9113 29.8406 56.92 30.2101C56.5713 30.368 56.1928 30.4497 55.81 30.4497C55.4271 30.4497 55.0487 30.368 54.7 30.2101C54.3866 30.0695 54.0389 30.0243 53.7 30.0801C51.6956 30.449 49.651 30.5499 47.62 30.38C46.12 30.83 44.62 30.25 43.12 30.44C42.83 30.44 42.49 30.44 42.28 30.57C41.7 30.98 41.02 30.3 40.47 30.79C39.47 30.12 38.42 30.71 37.4 30.42C36.86 30.27 36.2 30.6001 35.59 30.7101C35.09 31.5101 34.48 31.22 33.76 31.03C33.0175 30.8668 32.2511 30.8431 31.5 30.9601C30.8074 31.0658 30.1009 31.0352 29.42 30.87C28.9238 30.6884 28.3983 30.6003 27.87 30.6101C26.9275 30.8203 25.9404 30.663 25.11 30.17C24.54 30.48 25.11 30.86 24.92 31.17L23.61 31.4601L23.23 30.84L21.75 31.47C21.0498 31.0456 20.2374 30.8434 19.42 30.89C19.2279 30.8848 19.0392 30.8384 18.8667 30.7538C18.6941 30.6693 18.5418 30.5486 18.42 30.4H18.76H18.42C18.4004 30.1817 18.3272 29.9716 18.2068 29.7884C18.0864 29.6052 17.9226 29.4546 17.73 29.35V29.35C17.4557 29.2661 17.1746 29.2058 16.89 29.17C16.6698 29.1814 16.4517 29.2183 16.24 29.28C16.24 29.93 16.33 30.5 16.38 31.22L13.44 30.42C13.43 30.6285 13.4033 30.8359 13.36 31.04C13.2871 31.1832 13.1888 31.3119 13.07 31.42C12.92 31.36 12.76 31.33 12.73 31.26C12.5 30.68 12.29 30.09 12.07 29.5C12.0034 29.2749 11.8596 29.0804 11.664 28.9506C11.4684 28.8208 11.2333 28.764 11 28.79C10.81 28.79 10.63 28.99 10.4 29.13L11.2 29.85C11.09 30.35 10.76 30.28 10.49 30.2C10.4103 30.1648 10.3242 30.1465 10.2371 30.1463C10.1499 30.146 10.0637 30.1638 9.98384 30.1986C9.90396 30.2334 9.83216 30.2843 9.77298 30.3483C9.7138 30.4122 9.66852 30.4877 9.64 30.57V30.5201C8.54 30.5201 7.41 30.3601 6.64 31.3301L5.36 30.65C5.36 30.01 5.51999 29.77 5.90999 29.81C6.27229 29.8901 6.64769 29.8901 7.00999 29.81L6.37999 29.5801C5.21999 29.2201 5.13999 29.04 5.70999 27.88C5.81999 28.08 5.9 28.42 6.03 28.44C7.02684 28.6416 7.97253 29.043 8.81 29.62C8.89 29.2 8.95 28.88 9 28.56C9.05 28.24 9.08999 27.88 9.15999 27.41C8.86128 27.4217 8.56383 27.4551 8.26999 27.51C7.87999 27.63 7.51 27.8301 7.12 27.9301C6.91622 27.9637 6.70724 27.9445 6.51294 27.8745C6.31864 27.8045 6.1455 27.6859 6.00999 27.53C5.65999 27.23 5.93 26.88 5.95 26.53L4.43999 26.29C4.38999 26.29 4.35999 26.21 4.31999 26.17C4.13999 25.57 4.82 25.65 5 25.29C4.94222 25.1411 4.87197 24.9972 4.78999 24.8601C4.54999 24.5201 4.31999 24.2501 4.78999 23.8601C4.96999 23.6901 4.88999 23.2301 4.92999 22.8601H6.03C6.31825 23.3631 6.52099 23.9106 6.62999 24.48C6.62999 25.48 7.35 25.96 7.98 26.56C8.09072 26.3462 8.24946 26.1609 8.44377 26.0186C8.63808 25.8764 8.86268 25.781 9.09999 25.7401C9.09999 25.9301 9.09999 26.1201 9.09999 26.3001H9.23C9.18 26.1301 9.14 25.95 9.09 25.78C9.23808 25.3998 9.29531 24.9902 9.25711 24.584C9.21892 24.1777 9.08635 23.786 8.87 23.44L8.93999 23.5C8.30999 23.16 7.57 22.9101 7.56 21.9901C7.67 21.9901 7.78 22.07 7.89 22.09C8.2 22.17 8.49 22.0901 8.56 21.7701C8.5776 21.6857 8.57516 21.5985 8.55287 21.5153C8.53058 21.4321 8.48906 21.3553 8.43166 21.291C8.37425 21.2268 8.30257 21.177 8.22238 21.1456C8.14219 21.1141 8.05574 21.102 7.96999 21.1101C7.73573 21.1654 7.51026 21.2529 7.29999 21.37C7.42999 21.64 7.53 21.84 7.62 22.04C7.41 22.09 7.04 22.1301 7.03 22.2101C6.95 22.8401 6.36 22.6401 6.03 22.8601H4.87C5.00691 22.6077 5.19656 22.3877 5.42606 22.2152C5.65555 22.0426 5.91952 21.9215 6.2 21.8601C6.01 21.6301 5.92 21.45 5.78 21.38C5.37 21.18 4.94 21.02 4.39 20.79C4.31 21.26 4.22999 21.68 4.14999 22.1C3.25999 21.94 3.79 21.17 3.45 20.81L2.57999 20.41C2.82999 19.86 3.12999 20.41 3.32999 20.28C3.73999 20.01 3.59999 19.1101 2.95999 17.9301C2.80936 18.1015 2.66911 18.2818 2.53999 18.47C2.41999 18.66 2.33 18.8801 2.23 19.0801C2.12006 19.1148 2.00527 19.1316 1.89 19.13C1.32 19.03 0.759992 18.9101 0.0699921 18.7701C0.0699921 18.5501 0.07 18.2401 0 17.7701L1.64 18.4301C1.85395 18.1149 2.08426 17.8111 2.32999 17.5201C2.41999 17.4201 2.62999 17.44 2.78999 17.4L5.43999 17.84C5.43999 17.74 5.50999 17.67 5.48999 17.63C5.3309 17.3541 5.09992 17.1265 4.82167 16.9716C4.54342 16.8166 4.22833 16.74 3.90999 16.75C3.52999 16.75 3.14999 17.2 2.76999 17.44C2.81616 17.0362 2.98018 16.655 3.24159 16.3438C3.503 16.0326 3.85023 15.8052 4.23999 15.69C4.79999 15.52 5.15999 14.95 5.95999 15.14C6.60999 15.29 6.74999 15.62 6.95999 16.14C7.30999 15.96 7.65999 15.8101 7.95999 15.6101C8.95999 15.0101 8.95999 15.0001 10.21 15.3301L10.66 14.48L11.74 14.75L11.54 15.0501C11.62 15.0501 11.72 15.17 11.79 15.15C11.86 15.13 11.88 15 11.92 14.92C12.64 14.33 13.48 14.6801 14.27 14.6101C14.2124 14.7007 14.1489 14.7876 14.08 14.87L14.29 15.01C14.29 15.01 14.36 14.91 14.35 14.88C14.3044 14.7793 14.2509 14.6823 14.19 14.59C14.6634 14.8821 15.2087 15.0367 15.765 15.0367C16.3213 15.0367 16.8666 14.8821 17.34 14.59C18.15 14.07 18.88 14.48 19.6 14.84C19.7 14.84 19.79 14.9801 19.89 15.0201C19.9996 15.0611 20.1181 15.0722 20.2334 15.0523C20.3486 15.0325 20.4566 14.9823 20.5461 14.907C20.6357 14.8318 20.7036 14.734 20.7429 14.6238C20.7823 14.5137 20.7916 14.395 20.77 14.28C20.7561 14.1049 20.7157 13.933 20.65 13.7701C19.94 12.5601 19.24 11.34 18.48 10.16C17.7568 9.02049 17.1727 7.79848 16.74 6.52005C16.2513 5.31382 16.1878 3.97716 16.56 2.73004C16.73 2.23004 16.75 1.68006 16.89 1.18006C17.1629 0.160924 17.4969 -0.840883 17.89 -1.81994C18.5056 -3.08613 18.9398 -4.43268 19.18 -5.81994C19.2605 -6.44003 19.4828 -7.03325 19.8297 -7.55353C20.1765 -8.0738 20.6386 -8.50713 21.18 -8.81994C22.1919 -9.42077 23.0836 -10.204 23.81 -11.13C24.2895 -11.7333 24.9718 -12.1419 25.73 -12.28C27.55 -12.7 29.35 -13.28 31.19 -13.62C33.5476 -14.1697 36.0112 -14.059 38.31 -13.3C38.6801 -13.1229 39.0744 -13.0016 39.48 -12.94C40.7603 -12.7489 41.9827 -12.2777 43.06 -11.56C43.3568 -11.4303 43.6222 -11.2381 43.8379 -10.9965C44.0537 -10.7549 44.2147 -10.4696 44.31 -10.16C44.637 -9.2777 45.2181 -8.51212 45.98 -7.95996C46.7954 -7.20103 47.5416 -6.37108 48.21 -5.47995C48.5096 -5.04555 48.7203 -4.55614 48.83 -4.03995C49.0374 -2.94937 49.4962 -1.92218 50.17 -1.03995C50.381 -0.756139 50.533 -0.432992 50.6172 -0.0895061C50.7013 0.25398 50.7159 0.610857 50.66 0.960054C50.5302 2.12543 50.4701 3.2975 50.48 4.47003C50.5042 6.18319 49.9472 7.85403 48.9 9.21006C48.27 10.1401 47.59 11.02 46.9 11.91C46.0059 12.9862 44.9814 13.947 43.85 14.7701C43.85 14.7701 43.73 14.7701 43.68 14.7701C43.68 14.9601 43.68 15.1401 43.68 15.3001C43.68 15.1401 43.68 14.95 43.68 14.76L44.68 15.82L45.37 15.25C45.7598 15.4927 46.1758 15.6906 46.61 15.84C47.0727 15.875 47.5373 15.875 48 15.84C48.5796 15.8731 49.157 15.9366 49.73 16.03C50.34 16.11 50.91 16.43 51.54 15.92C51.78 15.73 52.33 15.92 52.74 15.92C53.15 15.92 53.84 16.34 54.35 15.79C54.4279 15.752 54.5134 15.7323 54.6 15.7323C54.6866 15.7323 54.7721 15.752 54.85 15.79C56.32 16.45 57.85 16.04 59.33 15.98C59.559 15.9502 59.791 15.9502 60.02 15.98C60.35 16.05 60.74 16.35 61.02 16.26C61.78 15.98 62.52 16.4 63.25 16.19C63.9195 15.9979 64.6239 15.9603 65.31 16.0801C65.8728 16.059 66.4249 15.9192 66.93 15.67L68.36 13.56L68.81 14.39C69.1388 14.3486 69.4411 14.1886 69.6602 13.94C69.8793 13.6914 70.0002 13.3714 70 13.04C69.87 12.9 69.74 12.67 69.54 12.57C68.3245 11.8247 67.4325 10.6508 67.04 9.28003C66.9178 8.95063 66.7602 8.63545 66.57 8.34003C66.0835 7.52986 65.8469 6.59408 65.89 5.65003C65.9609 4.82552 65.7608 4.00042 65.32 3.30005C65.0613 2.90207 64.9058 2.44594 64.8674 1.97284C64.829 1.49974 64.9089 1.02452 65.1 0.590029C65.4952 -0.763685 66.1211 -2.03905 66.95 -3.17996C67.4603 -3.83487 67.7571 -4.6308 67.8 -5.45996C67.8965 -6.28083 68.3002 -7.03469 68.93 -7.56994C69.8226 -8.33974 70.5856 -9.24799 71.19 -10.2599C71.7403 -11.1067 72.5905 -11.7141 73.57 -11.96C76.7487 -13.0147 80.042 -13.6862 83.38 -13.96C83.6723 -13.995 83.9677 -13.995 84.26 -13.96C86.2568 -13.8102 88.1913 -13.1974 89.91 -12.1699C90.2923 -11.901 90.6896 -11.6539 91.1 -11.43C91.7918 -11.1109 92.3781 -10.6009 92.79 -9.95996C93.202 -9.2431 93.7734 -8.63063 94.46 -8.16995C95.5243 -7.42844 96.3399 -6.38279 96.8 -5.16995C97.1026 -4.40806 97.4672 -3.67228 97.89 -2.96997C98.4683 -2.0802 98.7484 -1.02953 98.69 0.0300312C98.6188 0.962657 98.7136 1.90053 98.97 2.80005C99.1742 3.66451 99.1595 4.56624 98.9272 5.42359C98.695 6.28093 98.2525 7.06682 97.64 7.71006C97.0268 8.33584 96.5889 9.11174 96.37 9.96006C96.3072 10.2516 96.1688 10.5215 95.9687 10.7427C95.7686 10.9638 95.5138 11.1285 95.23 11.22C94.2373 11.6128 93.4203 12.3517 92.93 13.3001C92.64 13.7301 92.32 14.13 91.93 14.66C92.93 14.93 93.88 15.14 94.77 15.4L99.48 16.81C99.8099 16.8806 100.144 16.9307 100.48 16.9601C100.7 16.9595 100.918 17.0037 101.12 17.09C102.46 18.09 104.12 18.48 105.52 19.25C106.484 19.6673 107.342 20.2961 108.03 21.09C108.265 21.3366 108.53 21.5517 108.82 21.73C108.62 22.09 108.44 22.44 108.24 22.79C107.896 23.4358 107.371 23.9674 106.73 24.32C105.39 25.156 103.993 25.8978 102.55 26.54C102.14 26.7 101.65 26.92 101.78 27.54C101.78 27.54 101.71 27.66 101.7 27.66C101.12 27.4 100.7 28.15 100.33 28.04C99.4093 27.8947 98.4664 28.049 97.64 28.48L96.52 28.78C96.7014 29.6424 96.7184 30.5313 96.57 31.4C96.5523 31.5165 96.563 31.6356 96.6013 31.7471C96.6397 31.8585 96.7044 31.959 96.79 32.04C97.08 32.24 97.32 32.04 97.54 31.82C97.6749 31.7069 97.7727 31.5558 97.8208 31.3865C97.869 31.2171 97.8652 31.0372 97.81 30.87C97.66 30.45 97.44 30.0601 97.24 29.6101C97.32 29.2701 97.42 28.8801 97.52 28.4901L98.52 28.56C98.5702 28.9063 98.6713 29.2433 98.82 29.56C99 29.82 99.36 30.14 99.63 30.13C100.314 30.1257 100.992 29.997 101.63 29.75C102.08 29.5344 102.564 29.399 103.06 29.35C103.949 29.3532 104.817 29.0769 105.54 28.56C105.988 28.2809 106.473 28.0656 106.98 27.92C107.13 27.86 107.39 27.7901 107.47 27.8601C108.27 28.6401 108.83 27.99 109.47 27.48C109.984 27.8095 110.57 28.009 111.178 28.0613C111.786 28.1136 112.398 28.017 112.96 27.78C113.96 27.46 114.9 27.8401 115.84 27.5501C116.66 28.0301 117.57 27.22 118.38 27.75C119.32 27.23 120.31 27.7501 121.27 27.6801C122.474 27.7449 123.674 27.4932 124.75 26.95C124.805 26.378 124.805 25.8021 124.75 25.23C124.587 24.6829 124.363 24.1561 124.08 23.66L123.19 24.0801C122.156 23.5575 121.008 23.2998 119.85 23.3301C119.568 23.3208 119.287 23.2874 119.01 23.23V23.28C118.825 23.1404 118.614 23.0385 118.39 22.98C117.987 22.9756 117.594 22.8529 117.259 22.6272C116.925 22.4014 116.665 22.0825 116.51 21.7101C116.74 21.0901 117.51 21.15 117.87 20.78C118.48 20.51 119.32 20.78 119.71 20.01C119.71 19.9 119.71 19.77 119.62 19.7C119.41 19.43 119.09 19.2201 118.96 18.9301C118.83 18.6401 119.03 18.4301 119.11 18.1801C119.25 17.7501 119.41 17.33 119.57 16.9C119.78 16.99 119.99 17.1 120.21 17.17C120.43 17.24 120.5 17.5901 120.75 17.2701C120.46 16.7301 119.94 16.98 119.52 16.92C119.52 16.64 119.59 16.36 119.62 16.1C119.08 15.4755 118.349 15.0466 117.54 14.88C117.374 14.8358 117.223 14.7497 117.1 14.63C116.721 14.3218 116.263 14.1264 115.779 14.0663C115.294 14.0062 114.803 14.0837 114.36 14.29V14.34C114.12 14.21 113.89 13.9601 113.64 13.9601C113.314 13.9554 112.996 13.8592 112.722 13.6823C112.448 13.5055 112.229 13.2553 112.09 12.9601C111.752 12.4227 111.345 11.9319 110.88 11.5C110.606 11.3216 110.3 11.1961 109.98 11.13C110.06 10.69 110.33 10.23 109.67 9.97004C109.5 9.90004 109.37 9.61003 109.31 9.40003C109.25 9.19003 109.51 9.04006 109.74 8.99006C110 9.46006 110.42 9.73006 110.38 9.43006C110.34 9.13006 109.94 9.14004 109.7 9.04004C109.254 8.69632 108.92 8.22721 108.742 7.69275C108.564 7.1583 108.549 6.58283 108.7 6.04004C108.764 5.87816 108.785 5.70236 108.76 5.53003C108.686 5.157 108.721 4.77076 108.859 4.41654C108.997 4.06231 109.233 3.75478 109.54 3.53003C109.488 3.62279 109.445 3.71982 109.41 3.82004C109.41 3.82004 109.41 3.89006 109.48 3.93006V3.55005C109.74 3.42005 110.12 3.36003 110.23 3.15003C110.51 2.63003 110.95 2.97005 111.37 2.83005C111.1 2.27005 110.08 2.47003 110.12 1.56003L111.64 1.81003C111.88 1.06003 112.1 0.320039 112.38 -0.399961C112.56 -0.859961 112.32 -1.14995 112.13 -1.47995C112.92 -1.89995 112.92 -1.89997 112.62 -2.80997C113.298 -3.29236 113.808 -3.97396 114.08 -4.75995C115.166 -7.60933 116.839 -10.1986 118.99 -12.36C119.25 -12.5919 119.532 -12.7995 119.83 -12.9799C121.15 -13.9449 122.545 -14.8042 124 -15.55C125.13 -16.015 126.323 -16.3083 127.54 -16.4199C128.31 -16.5199 129.05 -16.52 129.4 -17.42C129.428 -17.4699 129.467 -17.5129 129.513 -17.5458C129.56 -17.5787 129.614 -17.6006 129.67 -17.61C130.161 -17.7175 130.659 -17.791 131.16 -17.83C131.35 -17.83 131.54 -17.6 131.71 -17.49L132.82 -18.05L133.05 -17.59C133.74 -17.69 133.55 -18.87 134.46 -18.66C134.99 -18.54 135.46 -19.38 136.12 -18.46C136.12 -18.96 136.12 -19.13 136.06 -19.46C136.3 -19.81 137.06 -19.46 137.27 -20.1C137.37 -20.36 138.08 -20.21 138.27 -19.8C138.46 -19.39 138.92 -19.36 139.18 -19.06C139.01 -20.27 139.01 -20.27 137.85 -20.93C137.85 -21.12 137.79 -21.3399 137.78 -21.5699C137.794 -21.7378 137.818 -21.9047 137.85 -22.0699C138.28 -21.8699 138.28 -21.87 138.46 -21.38C138.98 -21.56 139.46 -21.9 139.93 -21.22C140.15 -20.84 140.34 -20.44 140.59 -20.09C140.69 -19.95 140.94 -19.9099 141.12 -19.8199C141.18 -19.9699 141.3 -20.11 141.3 -20.25C141.3 -21.25 140.98 -21.42 139.9 -21.18C140.12 -21.65 140.34 -22.12 140.57 -22.59V-22.5399L142.34 -22.44C142.45 -22.87 142.55 -23.24 142.63 -23.56C143.05 -23.82 143.63 -23.3299 143.88 -24.0699C144.1 -23.2099 144.38 -22.53 145.18 -22.27C145.283 -22.3169 145.378 -22.3812 145.46 -22.46C145.62 -22.73 145.46 -23.29 146.13 -23.1C146.23 -23.1 146.45 -23.24 146.52 -23.37C146.59 -23.5 146.83 -23.62 147.08 -23.56C147.52 -23.46 147.61 -23.1799 147.59 -22.7899L147.22 -22.62C147.261 -22.5921 147.298 -22.5584 147.33 -22.52L147.54 -22.84C147.71 -22.57 147.88 -22.3 148.04 -22.03C147.53 -21.93 146.92 -22.27 146.41 -21.65L147.17 -21.09L148 -22.09L148.1 -21.9799C148.73 -21.9799 148.53 -21.2799 148.96 -20.9799L149.61 -21.4799C149.09 -21.8099 148.61 -22.1299 148.06 -21.9199L148.51 -23.18L149.41 -23.28V-24.28C149.576 -24.3466 149.751 -24.3871 149.93 -24.4C150.211 -24.3602 150.488 -24.3 150.76 -24.22V-24.27L150.25 -22.99C150.25 -22.84 150.25 -22.71 150.25 -22.87C150.25 -22.73 150.25 -22.87 150.25 -23.02C151.493 -22.6242 152.825 -22.6033 154.08 -22.96C154.39 -23.1 154.92 -22.76 155.42 -22.63C155.33 -22.86 155.27 -23.04 155.17 -23.28C155.6 -23.43 156.03 -23.5599 156.44 -23.7299C156.85 -23.8999 157.12 -24.08 157.44 -24.25C157.84 -24.01 157.53 -23.7 157.59 -23.44C157.65 -23.18 157.4 -22.94 157.14 -22.8C157.151 -22.7 157.185 -22.604 157.24 -22.52C157.31 -22.44 157.46 -22.34 157.52 -22.37C157.854 -22.4836 158.149 -22.6878 158.374 -22.9597C158.598 -23.2317 158.742 -23.5607 158.79 -23.91C158.875 -24.2672 158.986 -24.6181 159.12 -24.96C159.67 -25.04 159.79 -24.62 160.05 -24.43L159.41 -23.71L160.26 -22.4799C160.383 -22.5985 160.493 -22.7292 160.59 -22.87C160.65 -23.0009 160.693 -23.1386 160.72 -23.28C161.25 -22.99 161.38 -23.5099 161.67 -23.7299C161.975 -24.0011 162.365 -24.1566 162.772 -24.1694C163.18 -24.1822 163.579 -24.0514 163.9 -23.8C164.11 -23.64 164.19 -23.31 164.33 -23.06C164.96 -23.39 165 -23.4299 164.64 -23.7899C164.545 -23.8493 164.463 -23.9287 164.401 -24.0225C164.339 -24.1164 164.298 -24.2225 164.281 -24.3336C164.264 -24.4447 164.271 -24.5582 164.302 -24.6663C164.333 -24.7745 164.387 -24.8746 164.46 -24.96C165.21 -25.21 165.2 -24.21 165.86 -24.15C166.37 -24.15 166.86 -23.63 167.34 -23.34C167.238 -23.3602 167.132 -23.3602 167.03 -23.34C167.03 -23.34 167.03 -23.18 167.03 -23.09C167.03 -23 167.17 -23.09 167.18 -23.09C167.226 -23.1875 167.266 -23.2876 167.3 -23.39C168.3 -22.53 168.3 -22.5099 168.36 -21.1699L169.19 -21.31L169.28 -21.19L169.37 -21.14L169.14 -21.2599C169.037 -21.8693 169.102 -22.4953 169.33 -23.0699C169.33 -23.1399 169.63 -23.1599 169.78 -23.1999L170.05 -22.4199C170.54 -22.2899 171.05 -22.1199 171.49 -22.0399C171.68 -22.0399 171.89 -22.19 172.09 -22.27V-22.33C172.034 -22.2181 172.004 -22.0948 172.003 -21.9696C172.001 -21.8444 172.029 -21.7205 172.083 -21.6076C172.137 -21.4946 172.216 -21.3956 172.315 -21.318C172.413 -21.2404 172.528 -21.1863 172.65 -21.16C172.65 -20.66 172.65 -20.16 172.65 -19.66C172.65 -19.6 172.92 -19.54 173.07 -19.53C173.112 -19.5651 173.146 -19.6096 173.169 -19.6598C173.191 -19.7101 173.202 -19.7649 173.2 -19.8199C173.03 -20.2699 172.6 -20.62 172.63 -21.16C173.54 -20.9 173.63 -20.96 173.89 -21.97L173.79 -21.96C174.53 -21.44 175.11 -21.75 175.62 -22.34L177.68 -21.94C177.592 -21.7061 177.541 -21.4597 177.53 -21.21C177.557 -21.1082 177.605 -21.0131 177.67 -20.9306C177.736 -20.848 177.817 -20.7797 177.91 -20.7299C178.15 -20.6099 178.33 -20.7299 178.38 -21.0399C178.38 -21.1399 178.5 -21.22 178.6 -21.35C178.99 -20.95 179.37 -20.47 180.02 -20.91C180.072 -20.9323 180.128 -20.9437 180.185 -20.9437C180.242 -20.9437 180.298 -20.9323 180.35 -20.91C180.49 -20.83 180.67 -20.71 180.69 -20.59C180.71 -20.47 180.54 -20.33 180.42 -20.24C180.3 -20.15 180.2 -20.18 180.09 -20.16C180.03 -18.99 180.03 -18.99 180.64 -18.72C180.95 -18.9 180.64 -19.11 180.64 -19.31C180.64 -19.79 181.16 -20.23 181.37 -19.99C181.84 -19.47 182.14 -19.8699 182.49 -20.1999C182.58 -19.8099 182.63 -19.59 182.68 -19.33C182.46 -19.19 182.23 -19.06 181.98 -18.92L182.27 -18.49C182.27 -17.98 181.69 -18.22 181.43 -17.9C181.43 -17.7 181.49 -17.44 181.53 -17.08L182.13 -17.63L183.13 -17.2299C183.22 -17.6699 183.3 -18.03 183.37 -18.37C183.434 -18.4038 183.501 -18.4306 183.57 -18.4499C183.94 -17.8599 184.97 -18.21 185.14 -17.34V-17.39L183.9 -16.55C183.9 -16.55 183.9 -16.46 183.9 -16.41L184.52 -15.3199C185.76 -15.8099 185.76 -15.81 186.35 -14.78C186.02 -14.59 186.06 -14.3399 186.23 -14.0699C186.6 -13.4999 187.18 -13.4999 187.77 -13.4799C188.09 -13.4799 188.19 -13.22 188.05 -12.91C188.05 -12.91 187.92 -12.91 187.9 -12.91C187.88 -12.91 187.9 -13.0199 187.9 -13.0699C187.64 -12.8499 187.04 -13.4299 187.03 -12.6699C187.45 -12.5499 187.61 -12.96 187.9 -13.09C187.98 -12.61 188.07 -12.09 188.17 -11.53C187.402 -11.5267 186.644 -11.3667 185.94 -11.06C185.64 -11.66 184.87 -11.35 184.46 -11.81C184.3 -11.99 184 -11.6 184.05 -11.19C184.05 -11.02 184.05 -10.8499 184.05 -10.6699C183.721 -10.5661 183.388 -10.4793 183.05 -10.41C182.84 -10.41 182.58 -10.41 182.39 -10.36C182.2 -10.31 181.78 -10.3599 181.69 -10.0699C182.058 -9.91838 182.44 -9.80124 182.83 -9.71997C183.176 -9.67031 183.529 -9.74089 183.83 -9.91995C184 -10.0399 183.97 -10.44 184.02 -10.71L185.02 -9.58996C185.02 -10.15 185.07 -10.52 185.1 -10.89L185.42 -10.9799L185.92 -11.11C186 -10.66 186.09 -10.2099 186.22 -9.50995L186.69 -10.86C187.2 -10.59 187.2 -10.59 187.25 -9.85995C187.89 -9.85995 188.03 -10.23 187.96 -10.8L190.14 -10.5699C190.4 -9.83994 190.95 -9.63996 191.76 -9.64996C193.22 -9.64996 194.68 -9.51996 196.15 -9.45996C197.15 -9.45996 198.15 -9.45997 199.15 -9.40997C203.67 -9.40997 208.15 -9.21996 212.7 -8.98996C215.34 -8.84996 217.98 -8.68995 220.61 -8.53995C220.848 -8.53694 221.086 -8.51354 221.32 -8.46997C222.829 -8.21568 224.375 -8.29415 225.85 -8.69995C226.839 -8.95199 227.84 -9.15226 228.85 -9.29995C232.06 -9.59995 235.29 -9.73997 238.48 -10.13C240.48 -10.38 242.54 -10.34 244.57 -10.53C246.6 -10.72 248.57 -10.64 250.57 -10.71C252.74 -10.78 254.91 -10.9 257.08 -11C257.193 -11.0096 257.307 -11.0096 257.42 -11C259.16 -10.63 260.92 -11 262.67 -10.83C263.711 -10.7533 264.757 -10.7366 265.8 -10.78C269.8 -10.9 273.88 -10.55 277.91 -10.36C280.91 -10.21 283.91 -10.02 286.91 -10.02C288.91 -10.02 290.86 -9.64995 292.83 -9.50995C295.19 -9.33995 297.47 -8.81995 299.83 -8.50995C301.4 -8.29995 302.94 -7.94997 304.49 -7.62997C305.808 -7.43602 307.111 -7.15202 308.39 -6.77997C309.08 -6.52997 309.83 -6.71997 310.56 -6.30997C311.19 -5.9833 311.778 -5.58026 312.31 -5.10995L313.72 -5.27997C313.83 -4.96997 313.92 -4.70995 314.03 -4.44995C314.14 -4.18995 314.21 -3.81995 314.41 -3.72995C315.04 -3.44995 314.89 -2.83997 315.08 -2.37997C314.67 -1.83997 313.9 -1.52995 314.25 -0.539946C314.42 -0.0699456 314.06 0.580026 313.95 1.15003C313.896 1.37932 313.924 1.62044 314.03 1.83084C314.136 2.04124 314.313 2.20743 314.53 2.30005C312.46 2.30005 311.32 3.66005 310.3 5.39005C310.562 5.46064 310.83 5.51078 311.1 5.54004C311.98 5.54004 312.85 5.60004 313.73 5.54004C314.576 5.45288 315.43 5.61232 316.187 5.99912C316.945 6.38591 317.574 6.98355 318 7.72004C318.84 9.08004 320.28 9.18005 321.65 9.42005C322.7 8.98005 323.65 9.56004 324.65 9.60004C324.882 9.29417 325.158 9.02456 325.47 8.80005C325.89 8.58005 325.99 9.16004 326.25 9.26004C327.41 9.37004 327.89 8.46004 328.55 7.85004C328.55 7.97004 328.55 8.07006 328.55 8.18006C328.55 8.08006 328.55 7.98005 328.55 7.89005C328.19 7.71005 328.14 7.49005 328.47 7.23005C329.47 7.64005 330.21 6.87005 331.27 6.92005C330.92 6.42005 330.27 6.21003 330.5 5.65003C330.67 5.25003 330.85 4.81004 331.5 4.79004C332.15 4.77004 331.92 4.03004 332.36 3.79004C332.8 3.55004 332.69 3.11004 332.58 2.79004C332.98 2.26004 333.32 2.79004 333.92 2.41004L334.26 1.84003L335.06 1.70004L335.98 -0.509947C336.544 -0.295447 337.166 -0.295447 337.73 -0.509947C338.157 -0.679193 338.599 -0.809731 339.05 -0.899961C339.64 -1.04996 340.36 -0.899957 340.58 -1.76996C340.58 -1.87996 340.97 -1.90997 341.19 -1.93997C341.41 -1.96997 341.75 -1.93996 342 -1.98996L342.53 -3.24997C342.65 -2.51997 342.72 -2.12997 342.81 -1.62997L344.2 -2.47995C344.47 -2.35995 344.76 -2.21997 345.07 -2.09997C345.38 -1.97997 345.7 -1.88996 346.07 -1.76996L346.99 -2.23996C347.138 -2.08395 347.299 -1.94016 347.47 -1.80997C347.84 -1.54997 348.47 -1.72995 348.67 -1.19995C349.29 -1.19995 349.92 -1.19995 350.53 -1.19995C350.7 -1.19995 350.84 -1.51995 350.99 -1.69995C350.99 -1.37995 351.13 -1.17996 351.47 -1.17996H352.13V-1.22995C352.13 -1.00995 352.2 -0.779946 352.24 -0.539946L353.05 -0.749968C353.183 -0.765897 353.317 -0.765897 353.45 -0.749968C353.84 -0.369968 354.27 0.0100459 354.67 0.420046C355.07 0.830046 355.24 1.21003 355.81 0.840029C356.17 1.41003 357 1.44003 357.26 2.15003C357.34 2.38003 357.65 2.54004 357.85 2.73004L357.8 2.68006C357.9 3.05006 358 3.43004 358.1 3.76004C358.28 3.82004 358.4 3.90003 358.47 3.87003C359.75 3.31003 359.84 3.37005 359.98 4.77005L360.03 4.72003L359.23 4.85004C359.23 5.39004 359.34 5.69004 359.8 5.85004C360.264 6.0355 360.718 6.24581 361.16 6.48004C361.08 7.17004 361.76 7.02005 362.06 7.30005V7.24006C362.16 7.57006 362.37 7.71006 362.65 7.49006C362.85 7.30806 363.028 7.10332 363.18 6.88004V6.88004C363.453 6.97868 363.74 7.03599 364.03 7.05005C364.368 7.01513 364.691 6.89466 364.97 6.70004C365.18 6.54004 365.32 6.01003 365.44 6.03003C366.75 6.21003 367.36 4.86006 368.53 4.68006C369.267 4.50319 370.023 4.4192 370.78 4.43006C371.13 4.43006 371.48 4.54005 371.83 4.55005C372.711 4.58922 373.571 4.83164 374.343 5.25839C375.115 5.68514 375.778 6.28465 376.28 7.01004C376.61 7.41004 376.96 7.79004 377.23 8.10004C378.52 8.24004 379.33 7.49004 380.23 7.10004C380.23 6.76004 380.15 6.48005 380.1 6.17005C381.013 6.39817 381.973 6.35295 382.86 6.04004C384.005 5.7972 385.129 5.46279 386.22 5.04004C387.99 4.34004 389.7 4.92003 391.38 5.44003C391.68 5.54003 391.92 5.87004 392.18 6.10004L393.77 7.54004C395.285 6.66804 397.027 6.27089 398.77 6.40003H400C400.264 6.39694 400.524 6.33201 400.758 6.21045C400.993 6.08889 401.195 5.91409 401.35 5.70004C402.5 4.25004 404.14 4.12004 405.8 4.16004C406.33 4.18743 406.854 4.28151 407.36 4.44003C408.082 4.58397 408.752 4.91868 409.301 5.40933C409.849 5.89999 410.257 6.52869 410.48 7.23005C410.688 7.91161 410.939 8.57956 411.23 9.23005C411.395 9.69827 411.441 10.2001 411.364 10.6905C411.287 11.1809 411.09 11.6446 410.79 12.04C410.36 12.87 409.87 13.68 409.36 14.59C409.7 15.5115 409.828 16.4974 409.736 17.4752C409.645 18.453 409.335 19.3978 408.83 20.2401C408.688 20.4926 408.567 20.7569 408.47 21.03C408.233 21.8826 407.797 22.6671 407.2 23.32C406.835 23.7138 406.501 24.1351 406.2 24.5801C405.791 25.1636 405.594 25.8691 405.64 26.5801C405.79 28.1601 405.86 29.7501 405.98 31.3301C406.012 31.7977 406.079 32.2623 406.18 32.72C406.374 33.2753 406.423 33.8712 406.322 34.4507C406.22 35.0302 405.972 35.574 405.6 36.03C405.5 36.1959 405.423 36.3741 405.37 36.56C406.134 38.5212 406.392 40.643 406.12 42.73C406.115 43.5491 406.165 44.3677 406.27 45.1801C406.295 45.2734 406.301 45.3708 406.287 45.4665C406.273 45.5622 406.24 45.6541 406.19 45.7365C406.139 45.8188 406.072 45.89 405.993 45.9457C405.914 46.0013 405.825 46.0402 405.73 46.06C405.565 45.8589 405.439 45.6281 405.36 45.38C405.24 44.51 405.16 43.63 405.11 42.76C405.04 41.7 405.11 40.64 404.95 39.59C404.837 38.84 404.639 38.1053 404.36 37.4C404.076 36.5705 403.742 35.759 403.36 34.97C402.641 33.4787 402.298 31.8343 402.36 30.1801C402.37 29.8448 402.343 29.5094 402.28 29.1801C402.28 29.0501 402.08 28.94 401.89 28.73C401.283 29.5377 400.779 30.4178 400.39 31.35C400.254 31.7346 400.216 32.1471 400.28 32.5501C400.46 33.6401 400.73 34.73 400.96 35.82C400.96 35.98 400.96 36.16 400.96 36.42L399.96 36.51C399.75 40.22 400.5 43.9001 400.22 47.7101L398.96 47.83C398.866 47.4824 398.799 47.128 398.76 46.7701C398.62 42.89 398.487 39.0134 398.36 35.14C398.36 34.32 398.27 33.49 398.29 32.67C398.343 32.1507 398.281 31.626 398.108 31.1334C397.935 30.6408 397.656 30.1923 397.29 29.82C396.631 28.9931 396.052 28.1059 395.56 27.17C395.455 27.0387 395.334 26.9211 395.2 26.82C394.87 27.6957 394.842 28.6566 395.12 29.5501C395.81 32.0301 395.48 34.55 395.77 37.09C395.798 37.3828 395.742 37.6774 395.61 37.94C395.434 38.4307 395.32 38.9413 395.27 39.4601C394.951 40.6515 394.969 41.9078 395.32 43.09C395.373 43.3198 395.356 43.5603 395.27 43.78C395.23 43.8548 395.174 43.9202 395.107 43.9719C395.04 44.0236 394.963 44.0604 394.88 44.08C394.797 44.0829 394.715 44.0673 394.639 44.0345C394.563 44.0016 394.495 43.9523 394.44 43.89C394.334 43.6865 394.264 43.4669 394.23 43.2401C393.862 41.7431 393.744 40.1956 393.88 38.66L392.88 37.81C392.73 36.34 392.55 34.81 392.4 33.19C392.25 31.57 392.57 30.19 392.1 28.7C391.37 28.7 391.01 29 390.93 29.59C390.895 29.9425 390.895 30.2976 390.93 30.65C391.13 32.7553 391.13 34.8748 390.93 36.98C390.909 37.3927 390.943 37.8063 391.03 38.2101C391.22 39.7201 391.42 41.21 391.64 42.75C391.726 43.0305 391.746 43.3269 391.699 43.6164C391.652 43.9058 391.54 44.1808 391.37 44.42C391.191 44.6475 391.099 44.931 391.11 45.22C391.2 46.02 390.79 46.43 390.02 46.65C390.02 47.96 389.55 49.18 389.88 50.5C389.978 51.0129 389.947 51.542 389.79 52.04C389.74 52.21 389.46 52.4501 389.31 52.4301C389.206 52.3938 389.113 52.3316 389.039 52.2494C388.966 52.1671 388.914 52.0676 388.89 51.9601C388.89 49.9601 388.89 47.88 388.96 45.84C389.095 43.9652 388.926 42.081 388.46 40.26C388.093 38.8364 387.918 37.3701 387.94 35.9C387.89 33.9 387.82 31.9 387.76 29.9C387.791 29.4767 387.705 29.053 387.511 28.6755C387.317 28.298 387.022 27.9813 386.66 27.76C386.6 27.99 386.46 28.22 386.5 28.41C386.829 30.3012 386.73 32.2422 386.21 34.09C386.098 34.8415 386.041 35.6002 386.04 36.3601C385.99 37.4701 386.04 38.59 385.92 39.7C385.868 40.6959 385.52 41.6536 384.92 42.45C384.302 43.4599 383.99 44.6267 384.02 45.81C383.95 46.81 384.02 47.81 383.94 48.81C383.732 50.5551 383.658 52.3137 383.72 54.07C383.714 54.4574 383.65 54.8416 383.53 55.2101C382.98 55.4601 382.61 55.32 382.53 54.83C382.45 54.34 382.46 53.66 382.39 53.08C382.32 52.5 382.2 51.7001 382.1 50.9301C381.801 50.977 381.52 51.1054 381.289 51.3012C381.058 51.497 380.885 51.7526 380.79 52.04C380.479 53.2954 379.749 54.4068 378.72 55.19C378.178 55.6384 377.73 56.1888 377.4 56.81C377.17 57.2886 376.825 57.7026 376.396 58.015C375.966 58.3274 375.466 58.5284 374.94 58.6C374.606 58.6951 374.292 58.8474 374.01 59.05V59.05C373.78 59.05 373.48 59.16 373.34 59.05C373.103 58.8756 372.831 58.7555 372.542 58.6985C372.253 58.6414 371.955 58.6488 371.67 58.72C371.379 58.7618 371.083 58.7327 370.806 58.6352C370.529 58.5377 370.28 58.3747 370.08 58.16C369.332 57.4338 368.529 56.7653 367.68 56.16C367.443 56.059 367.235 55.8997 367.076 55.6969C366.917 55.4941 366.812 55.2544 366.77 55C366.763 54.8806 366.729 54.7643 366.67 54.66C365.899 53.0369 365.231 51.367 364.67 49.66C364.035 48.0926 363.696 46.4211 363.67 44.73C363.67 43.39 363.36 42.05 363.32 40.73C363.233 38.6196 363.357 36.5059 363.69 34.42C363.82 33.425 363.894 32.4234 363.91 31.42C363.893 31.1881 363.818 30.9644 363.69 30.7701C363.28 30.0201 362.84 29.2801 362.41 28.5201C361.98 28.5201 361.61 28.6001 361.51 29.1101C361.413 29.5039 361.349 29.9054 361.32 30.31C361.32 31.37 361.27 32.4301 361.32 33.4901C361.46 35.6501 361.66 37.8201 361.83 39.9901C361.83 40.4501 361.9 40.92 361.91 41.39C361.97 45.39 362.023 49.39 362.07 53.39C362.07 54.04 362.01 54.68 362 55.33C361.945 56.0924 361.945 56.8577 362 57.62C362.27 60.1906 362.37 62.7763 362.3 65.36C362.272 65.7255 362.225 66.0894 362.16 66.45C362.023 66.1253 361.909 65.7911 361.82 65.45C361.74 64.45 361.7 63.45 361.64 62.45C361.38 58.17 361.14 53.89 361.17 49.6C361.17 46.43 361.01 43.26 360.86 40.09C360.73 37.45 360.52 34.8101 360.34 32.1801C360.376 31.8707 360.345 31.5573 360.251 31.2607C360.156 30.9641 359.999 30.6912 359.79 30.4601C359.03 31.7701 359.46 33.1501 359.21 34.4601C358.96 34.5701 358.77 34.5401 358.7 34.2401L358.46 33.1C357.79 33.3585 357.212 33.8112 356.8 34.4C356.305 35.0693 355.601 35.5548 354.8 35.78C354.377 35.9722 353.902 36.018 353.45 35.91C353.12 35.8407 352.78 35.8407 352.45 35.91C352.156 35.9553 351.887 36.104 351.693 36.3295C351.499 36.555 351.391 36.8424 351.39 37.14C351.39 39.55 351.39 41.95 351.3 44.36C351.3 45.47 351.19 46.59 351.09 47.69C351.095 47.7869 351.077 47.8835 351.039 47.9727C351.001 48.0618 350.944 48.1412 350.87 48.2048C350.797 48.2683 350.711 48.3144 350.617 48.3396C350.523 48.3648 350.425 48.3683 350.33 48.35C350.11 47.6526 350.035 46.9175 350.11 46.19C350.202 45.6113 350.219 45.0231 350.16 44.44C350.09 42.98 349.99 41.51 349.91 40.05C349.91 39.23 349.91 38.41 349.82 37.59C349.768 37.3404 349.684 37.0984 349.57 36.87C349.258 37.4512 349.155 38.1222 349.28 38.7701C349.76 41.2801 349.47 43.82 349.55 46.34C349.55 47.21 349.3 47.73 348.97 47.6C348.39 47.36 348.55 46.84 348.55 46.38C348.51 43.1607 348.232 39.9487 347.72 36.7701C346.3 35.9901 344.96 35.23 343.59 34.5C343.276 34.3581 343.002 34.1419 342.79 33.87C342.24 33.13 341.6 32.44 341.09 31.87L338.23 30.98L337.32 31.53C337.152 33.0281 337.189 34.542 337.43 36.03C337.489 36.3608 337.529 36.6947 337.55 37.03C337.65 38.68 337.77 40.3201 337.83 41.9601C337.83 42.4401 338.1 43.04 337.32 43.39C337.176 43.0965 337.066 42.7879 336.99 42.47C336.82 40.95 336.71 39.47 336.54 37.91C336.41 36.8 336.25 35.7 336.07 34.6C335.994 34.2724 335.974 33.9344 336.01 33.6C336.14 32.6 335.82 32.0601 334.94 31.8601C333.75 31.6101 332.67 31.0401 331.5 30.7401C331.049 30.6718 330.587 30.7342 330.17 30.92L329.64 30.2401C329.603 30.276 329.559 30.3033 329.51 30.32C329.51 30.32 329.44 30.32 329.4 30.32L329.65 30.2701C329.48 30.5601 329.43 30.9601 328.99 31.0201C328.727 31.0574 328.474 31.1508 328.25 31.2939C328.026 31.4371 327.835 31.6268 327.69 31.85C327.28 32.43 326.91 32.95 326.05 32.94C325.72 32.94 325.4 33.4601 325.11 33.7101L325.45 34.32C323.82 34.91 322.05 34.84 320.45 35.62C320.38 36.62 320.24 37.62 320.25 38.62C320.25 40.14 320.39 41.6201 320.49 43.1801C320.63 45.3401 320.87 47.51 320.95 49.67C321.06 52.31 321.05 54.96 321.08 57.6C321.12 58.3038 321.1 59.0097 321.02 59.7101C320.822 61.0378 320.842 62.3889 321.08 63.7101C321.628 67.903 321.832 72.1338 321.69 76.36C321.667 76.5248 321.623 76.6861 321.56 76.84C321.17 77.07 320.81 77.05 320.7 76.61C320.535 76.0487 320.457 75.4651 320.47 74.88C320.62 72.71 320.37 70.56 320.32 68.4C320.27 66.53 319.93 64.67 319.74 62.81C319.596 62.059 319.556 61.2919 319.62 60.53C319.815 58.7788 319.815 57.0113 319.62 55.26C319.52 53.04 319.27 50.83 319.31 48.58C319.257 46.9371 319.09 45.2998 318.81 43.6801C318.59 41.8801 318.34 40.0801 318.1 38.2701C318.11 38.0969 318.11 37.9232 318.1 37.75C317.99 37.13 318.1 36.31 317.42 36.04C316.74 35.77 316.42 36.5 315.98 36.97C315.608 37.3317 315.21 37.6659 314.79 37.97V37.97C314.22 38.56 313.63 39.13 313.08 39.73C312.551 40.4301 311.8 40.9306 310.95 41.15C310.454 41.2673 310.016 41.5569 309.714 41.9672C309.412 42.3775 309.265 42.8817 309.3 43.39C309.3 44.09 309.3 44.8 309.35 45.5C309.47 49.79 309.57 54.07 309.71 58.36C309.76 59.59 310 60.81 310.03 62.04C310.09 64.21 310.03 66.39 310.03 68.56V71.97L309.19 72.0201C309.07 71.8501 308.96 71.7701 308.94 71.6801C308.805 70.5186 308.765 69.348 308.82 68.1801C308.882 65.1926 308.768 62.2042 308.48 59.23C308.1 55.7861 307.9 52.3248 307.88 48.86C307.88 47.74 307.88 46.6301 307.77 45.5201C307.731 44.874 307.64 44.232 307.5 43.6C307.41 43.16 307.08 42.92 306.5 42.9C306.386 43.0761 306.298 43.2682 306.24 43.47C306.04 45.03 305.83 46.59 305.69 48.16C305.55 49.73 305.51 51.44 305.4 53.08C305.373 53.6622 305.279 54.2393 305.12 54.8C305.048 54.9188 304.949 55.0187 304.83 55.0917C304.712 55.1647 304.578 55.2087 304.44 55.22C304.15 55.22 303.95 54.93 303.94 54.6C303.94 53.6 303.85 52.6 303.89 51.6C303.96 49.9 304.03 48.2 304.22 46.5201C304.315 45.2156 304.335 43.9068 304.28 42.6C303.64 42.33 303.07 42.04 302.46 41.85C302.348 41.8068 302.228 41.7881 302.109 41.795C301.989 41.802 301.872 41.8345 301.766 41.8904C301.66 41.9463 301.567 42.0243 301.493 42.1191C301.42 42.2139 301.368 42.3233 301.34 42.44C300.877 44.137 300.582 45.8754 300.46 47.63C300.46 49.27 300.3 50.91 300.23 52.56C300.23 53.79 300.14 55.02 300.12 56.25C300.12 58.13 300.12 60.01 300.12 61.88C300.08 62.7592 299.96 63.6329 299.76 64.4901C299.395 66.4529 299.345 68.4613 299.61 70.44C299.693 71.0767 299.737 71.718 299.74 72.36C299.66 74.18 299.53 76 299.42 77.81C299.442 78.0158 299.411 78.2238 299.331 78.4145C299.25 78.6052 299.123 78.7723 298.96 78.9C298.96 78.82 298.96 78.74 298.89 78.65H299.05L298.93 78.86C299.05 79.31 298.72 79.39 298.45 79.31C298.249 79.2508 298.074 79.124 297.956 78.9509C297.837 78.7778 297.782 78.569 297.8 78.36C297.8 76.78 297.85 75.2 297.85 73.62C297.917 72.5151 297.873 71.4063 297.72 70.31C297.65 70.0242 297.65 69.7258 297.72 69.44C298.024 68.6103 298.046 67.7031 297.78 66.86C297.737 66.5234 297.771 66.1815 297.88 65.86C298.116 64.2982 298.223 62.7195 298.2 61.14C298.2 59.32 298.27 57.5001 298.3 55.6801C298.35 52.7501 298.37 49.81 298.44 46.88C298.44 45.88 298.59 44.88 298.7 43.88C298.78 43.18 298.95 42.49 299.01 41.79C299.06 41.0876 299.06 40.3825 299.01 39.6801C298.94 39.3401 297.84 39.4101 298.61 38.6801C298.73 38.5701 298.61 38.15 298.54 37.88C298.23 37.56 297.75 37.32 297.94 36.73C297.963 36.6763 297.975 36.6185 297.975 36.56C297.975 36.5016 297.963 36.4437 297.94 36.39C297.47 35.9 297.2 35.22 296.46 34.78C296.345 34.9892 296.255 35.2106 296.19 35.44C295.86 37.59 295.41 39.73 295.26 41.89C295.09 44.46 295.17 47.05 295.15 49.63C295.175 49.9228 295.175 50.2172 295.15 50.51C294.74 52.73 295.15 54.9601 295.07 57.1801C294.96 60.5201 294.73 63.8601 294.55 67.1801C294.559 67.3548 294.517 67.5284 294.43 67.6801C294.29 67.8545 294.091 67.9718 293.87 68.01C293.759 68.0112 293.649 67.9843 293.552 67.9319C293.454 67.8794 293.371 67.8031 293.31 67.7101C293.167 67.3295 293.092 66.9266 293.09 66.5201C293.09 63.12 293.22 59.71 293.29 56.31C293.29 55.78 293.29 55.25 293.23 54.73C293.184 54.3785 293.157 54.0246 293.15 53.67C293.275 51.7454 293.275 49.8147 293.15 47.89C293.01 46.02 293.05 44.13 293.09 42.25C293.09 40.96 293.26 39.67 293.35 38.38C293.567 36.7214 293.583 35.0427 293.4 33.38C292.86 32.99 292.47 32.2 291.51 32.2C291.419 32.368 291.358 32.5508 291.33 32.7401C291.329 33.7996 291.09 34.8454 290.63 35.8001C290.164 37.0789 289.983 38.444 290.1 39.8C290.21 42.1 289.85 44.36 289.74 46.64C289.74 47.28 289.74 47.93 289.74 48.57C289.74 49.92 289.79 51.27 289.67 52.57C289.46 54.1999 289.5 55.8524 289.79 57.47C289.874 58.1712 289.707 58.8795 289.32 59.47C289.26 59.6 288.92 59.59 288.63 59.67C288.538 59.3741 288.461 59.0737 288.4 58.7701C288.4 58.5401 288.47 58.27 288.4 58.07C287.59 56.02 288 53.9 287.98 51.8C287.98 50.58 287.91 49.35 287.89 48.13C287.845 47.5442 287.845 46.9558 287.89 46.37C288.121 43.3721 288.074 40.3593 287.75 37.37C287.75 37.31 287.7 37.26 287.59 37.06C287.251 37.982 287.053 38.9493 287 39.9301C286.89 42.4501 286.78 44.98 286.66 47.5C286.66 48.08 286.54 48.6601 286.49 49.2401C286.412 49.7629 286.389 50.2924 286.42 50.82C286.638 53.2737 286.692 55.7392 286.58 58.2C286.58 58.84 286.58 59.48 286.58 60.2C285.91 60.53 285.46 60.11 284.9 59.78C284.84 58.46 284.66 57.11 284.73 55.78C284.8 54.45 284.73 52.97 284.65 51.57C284.6 50.8676 284.6 50.1625 284.65 49.4601C284.95 46.9501 284.79 44.46 284.87 41.9C284.87 40.5 285.07 39.1 285.07 37.69C285.07 36.05 284.97 34.4101 284.9 32.7701C284.917 32.5216 284.879 32.2725 284.79 32.04C284.73 31.8708 284.614 31.7271 284.461 31.6325C284.309 31.538 284.128 31.4983 283.95 31.5201C283.672 31.5661 283.422 31.7162 283.25 31.94C282.657 33.0269 282.284 34.2194 282.15 35.45C281.95 36.77 282.03 38.15 281.78 39.45C281.536 41.3129 281.436 43.1918 281.48 45.07C281.4 46.89 281.48 48.72 281.48 50.54C281.453 51.0677 281.476 51.5968 281.55 52.12C281.75 53.7539 281.75 55.4061 281.55 57.04C281.498 57.7113 281.408 58.379 281.28 59.04C281.082 59.1818 280.849 59.2678 280.606 59.2889C280.364 59.31 280.12 59.2655 279.9 59.16C279.805 58.8344 279.748 58.4988 279.73 58.16C279.683 56.4603 279.757 54.7594 279.95 53.07C280 52.7218 280 52.3683 279.95 52.0201C279.85 50.6801 279.68 49.3401 279.63 48.0201C279.57 46.4401 279.63 44.85 279.63 43.26C279.61 40.9706 279.74 38.6824 280.02 36.41C280.08 35.76 280.1 35.12 280.13 34.47C280.17 34.1674 280.141 33.8595 280.044 33.5701C279.947 33.2806 279.785 33.0172 279.57 32.8001C279.233 32.9581 278.943 33.2004 278.728 33.5035C278.512 33.8066 278.379 34.1602 278.34 34.53C277.856 36.5919 277.565 38.6942 277.47 40.81C277.38 43.04 277.37 45.27 277.28 47.5C277.23 48.72 277.42 49.98 276.78 51.13C276.66 51.35 276.78 51.7001 276.78 51.9901C276.764 52.5714 276.697 53.1503 276.58 53.72C276.52 53.8423 276.43 53.947 276.318 54.0241C276.206 54.1012 276.076 54.148 275.94 54.16C275.73 54.16 275.48 53.86 275.35 53.63C275.26 53.4118 275.226 53.1748 275.25 52.94C275.25 52.01 275.32 51.07 275.37 50.13C275.42 49.19 275.52 48.3701 275.53 47.4901C275.53 44.7901 275.53 42.09 275.59 39.38C275.59 38.68 275.72 37.98 275.77 37.28C275.86 36.5839 275.89 35.8813 275.86 35.1801C275.809 34.8564 275.888 34.5256 276.08 34.26C276.165 34.1393 276.223 34.0012 276.248 33.8556C276.273 33.71 276.266 33.5606 276.227 33.4182C276.188 33.2757 276.118 33.1437 276.021 33.0316C275.925 32.9195 275.805 32.8302 275.67 32.7701C275.241 32.8811 274.849 33.1018 274.532 33.4103C274.215 33.7189 273.983 34.1048 273.86 34.53C273.667 34.9585 273.558 35.4203 273.54 35.89C273.436 38.2396 273.165 40.5788 272.73 42.89C272.449 45.1049 272.352 47.3392 272.44 49.57C272.44 50.33 272.44 51.1 272.44 51.86C272.475 52.0942 272.458 52.3332 272.39 52.56C271.79 53.75 272.22 54.97 272.31 56.16C272.599 59.0258 272.341 61.9204 271.55 64.69C271.295 65.7159 271.091 66.7538 270.94 67.8C270.85 68.24 270.85 68.8 270.23 68.87C269.82 68.92 269.6 68.47 269.6 67.63C269.634 66.1635 269.808 64.7035 270.12 63.2701C270.527 61.2537 270.645 59.1896 270.47 57.14C270.288 55.6271 270.312 54.0966 270.54 52.59C270.665 51.422 270.645 50.2431 270.48 49.08C270.34 47.4998 270.34 45.9103 270.48 44.33C270.73 41.76 270.92 39.18 271.13 36.6C271.13 36.25 271.13 35.9001 271.13 35.5501C271.13 34.1301 271.03 33.79 269.97 32.42L268.85 32.54L267.85 32.65C267.364 33.1831 267.081 33.8697 267.05 34.59C266.583 38.1967 266.117 41.8067 265.65 45.42C265.4 47.8149 265.34 50.2257 265.47 52.63C265.47 53.92 265.57 55.21 265.61 56.5C265.63 56.6761 265.63 56.8539 265.61 57.03C265.17 59.36 265.52 61.71 265.37 64.03C265.37 64.55 265.31 65.08 265.27 65.72L263.82 66.1C263.72 65.95 263.61 65.86 263.61 65.78C263.61 64.19 263.61 62.6001 263.61 61.0201C263.61 56.91 263.61 52.8 263.61 48.69C263.605 45.4615 263.795 42.2356 264.18 39.03C264.357 37.4483 264.283 35.8486 263.96 34.29C263.938 33.9153 263.811 33.5543 263.593 33.2484C263.376 32.9425 263.077 32.7039 262.73 32.56C262.499 32.7047 262.307 32.9031 262.169 33.1382C262.032 33.3732 261.953 33.638 261.94 33.91C261.45 37.16 260.86 40.4 260.48 43.66C260.212 46.1707 260.148 48.6991 260.29 51.22C260.29 51.45 260.29 51.68 260.29 51.95C260.116 52.1016 259.924 52.2324 259.72 52.34C259.616 52.3952 259.501 52.4265 259.384 52.4316C259.266 52.4367 259.149 52.4155 259.041 52.3695C258.932 52.3235 258.836 52.2538 258.758 52.1657C258.68 52.0776 258.622 51.9732 258.59 51.86C258.503 51.4556 258.457 51.0436 258.45 50.63C258.38 49.7548 258.38 48.8753 258.45 48C258.77 45.79 258.57 43.56 258.87 41.33C259.02 39.2828 259.02 37.2273 258.87 35.1801C258.842 34.9048 258.785 34.6332 258.7 34.37C256.95 34.83 256.5 35.3701 256.57 36.9901C256.57 37.1601 256.57 37.38 256.48 37.48C255.829 38.3372 255.529 39.4097 255.64 40.48C255.58 42.18 255.55 43.88 255.49 45.59C255.42 47.59 255.49 49.59 255.49 51.59C255.49 53 255.67 54.4 255.75 55.81C255.79 56.2191 255.79 56.631 255.75 57.04C255.707 57.273 255.584 57.4833 255.4 57.6335C255.217 57.7836 254.987 57.8639 254.75 57.86C254.573 57.8832 254.393 57.8413 254.244 57.742C254.095 57.6427 253.987 57.4928 253.94 57.32C253.883 56.973 253.856 56.6217 253.86 56.2701C253.63 51.2701 253.72 46.19 253.68 41.15C253.655 40.2128 253.575 39.2778 253.44 38.35C253.427 38.1104 253.334 37.882 253.176 37.7009C253.019 37.5198 252.806 37.3963 252.57 37.35C252.394 37.5462 252.258 37.7752 252.17 38.0241C252.083 38.2729 252.045 38.5367 252.06 38.8001C251.72 42.6001 251.5 46.41 251.43 50.23C251.43 50.94 251.37 51.64 251.36 52.35C251.36 53.98 251.29 55.62 251.36 57.26C251.36 57.83 251.67 58.4 251.68 58.98C251.68 60.33 251.68 61.67 251.6 63.08L250.17 63.48C250.043 62.941 249.959 62.3925 249.92 61.84C249.98 60.02 249.75 58.21 249.65 56.4C249.51 53.59 249.53 50.76 249.54 47.94C249.54 45.83 249.66 43.73 249.66 41.62C249.66 40.62 249.54 39.5101 249.45 38.4601C249.38 37.5901 249.06 36.93 248.05 36.78C247.75 36.78 247.5 36.36 247.22 36.13C247.217 36.0801 247.217 36.03 247.22 35.98C247.22 35.98 247.22 35.92 247.22 35.88C247.22 35.84 247.22 36.07 247.29 36.17C247.053 36.1783 246.826 36.2655 246.645 36.4178C246.464 36.57 246.339 36.7785 246.29 37.01C246.05 38.01 245.85 38.94 245.67 39.91C245.209 42.9259 244.952 45.9695 244.9 49.0201C244.84 50.3601 244.98 51.72 245.04 53.07C245.2 55.0001 245.2 56.94 245.04 58.87C244.968 59.5707 245.022 60.2785 245.2 60.9601C245.414 62.3556 245.308 63.7815 244.89 65.13C244.79 65.7 244.28 65.77 243.63 65.48C243.63 65.09 243.54 64.6301 243.56 64.1801C243.702 62.8934 243.627 61.5921 243.34 60.33C243.239 59.9317 243.209 59.5189 243.25 59.11C243.405 56.1269 243.305 53.136 242.95 50.17C242.89 49.6451 242.89 49.115 242.95 48.59C243.26 46.33 243.15 44.04 243.38 41.78C243.516 40.3039 243.418 38.8156 243.09 37.37L242.09 36.81C241.992 36.8771 241.905 36.9579 241.83 37.0501C241.45 37.778 241.231 38.5797 241.19 39.4C241.144 41.1009 240.947 42.7943 240.6 44.4601C240.555 44.8086 240.555 45.1615 240.6 45.51C240.6 47.86 240.6 50.21 240.54 52.56C240.54 54.38 240.43 56.19 240.38 58.01C240.345 58.3023 240.345 58.5978 240.38 58.89C240.696 60.9208 240.662 62.9907 240.28 65.01C240.215 65.8855 240.215 66.7646 240.28 67.64C240.28 68.35 240.45 69.05 240.44 69.75C240.421 70.2722 240.309 70.7869 240.11 71.2701C240.031 71.3809 239.926 71.4702 239.803 71.5296C239.681 71.589 239.546 71.6167 239.41 71.61C239.18 71.61 238.99 71.28 238.79 71.09C238.768 71.0354 238.768 70.9746 238.79 70.92C239.05 68.59 238.22 66.3 238.69 63.92C238.99 62.3005 238.99 60.6396 238.69 59.0201C238.465 57.6247 238.425 56.2059 238.57 54.8C238.62 53.864 238.62 52.9261 238.57 51.9901L238.48 46.35C238.435 45.9413 238.435 45.5288 238.48 45.12C238.766 43.204 238.883 41.2666 238.83 39.33C238.86 38.5895 238.765 37.8493 238.55 37.14C237.46 36.97 236.45 37.79 235.55 37.04C235.413 37.089 235.283 37.1528 235.16 37.23C234.16 38.4 233.88 38.4 232.92 37.23C232.78 37.05 232.67 36.8401 232.46 36.5201C232.17 36.9401 232.03 37.16 231.87 37.35C231.37 37.93 231.25 37.93 230.31 37.35C230.16 37.78 230.06 38.2 229.88 38.59C229.744 38.8457 229.565 39.0758 229.35 39.2701C229.293 39.3165 229.228 39.3502 229.157 39.3689C229.086 39.3877 229.012 39.391 228.94 39.3786C228.868 39.3663 228.8 39.3386 228.739 39.2975C228.679 39.2563 228.628 39.2026 228.59 39.14C228.42 38.59 228.29 38.0301 228.17 37.4601C228.05 36.8901 227.98 36.83 227.01 36.75C227.01 36.62 227.01 36.5 227.01 36.38C227.01 36.26 226.91 36.46 226.92 36.47C226.972 36.5558 227.032 36.6363 227.1 36.7101C226.8 37.3001 226.24 37.2201 225.71 37.1801C225.172 38.0417 224.831 39.0114 224.71 40.0201C224.659 40.4815 224.552 40.9349 224.39 41.37C224.339 41.4708 224.264 41.5574 224.172 41.622C224.079 41.6866 223.972 41.7272 223.86 41.7401C223.723 41.7152 223.594 41.66 223.482 41.5787C223.369 41.4974 223.276 41.3919 223.21 41.2701C223.118 40.8196 223.081 40.3595 223.1 39.9C223.1 39.51 223.38 39.11 222.92 38.66C222.44 39.42 222.62 40.2601 222.45 41.0201C222.28 41.7801 222.25 42.78 222.1 43.64C221.95 44.5 221.72 45.21 221.47 46.23C221.21 45.88 220.98 45.71 220.99 45.56C220.99 45.04 221.18 44.56 221.24 44C221.43 42.49 221.62 41 221.78 39.47C221.779 39.2161 221.742 38.9636 221.67 38.72C221.61 38.663 221.539 38.6194 221.46 38.5922C221.382 38.565 221.299 38.5548 221.217 38.5624C221.134 38.57 221.055 38.5951 220.983 38.6361C220.911 38.6771 220.848 38.733 220.8 38.8001C220.481 39.1131 220.184 39.4472 219.91 39.8C219.53 39.4 219.16 39.03 218.67 38.53C218.259 39.3457 218.086 40.2606 218.17 41.17C217.74 41.73 218.39 42.4401 217.93 42.9901C217.47 43.5401 217.93 44.14 217.85 44.69C217.776 45.537 217.854 46.3904 218.08 47.2101L217.45 47.56C217.45 48.89 217.38 50.22 217.38 51.56C217.392 51.8502 217.478 52.1324 217.63 52.38C217.76 52.6 217.87 52.78 217.69 53C217.25 53.53 217.45 54.1001 217.54 54.6801C217.917 56.2208 218.092 57.8041 218.06 59.39C217.9 60.96 217.75 62.54 217.51 64.1C217.43 64.6764 217.4 65.2585 217.42 65.84C217.49 67.35 217.81 68.84 217.2 70.47L216.04 70.57C215.961 70.2617 215.907 69.9472 215.88 69.63C215.88 68.75 215.94 67.8601 215.88 66.9901C215.817 64.7614 215.883 62.5309 216.08 60.31C216.08 59.55 216.14 58.79 216.16 58.03C215.97 57.64 215.76 57.26 215.61 56.86C215.53 56.62 215.43 56.49 215.18 56.48C215.18 56.29 215.35 56.0401 214.91 55.9601L215.2 56.61C214.77 56.49 214.55 56.83 214.27 57.05C214.13 57.05 214 56.99 214.16 57.05H214.32C214.32 57.97 213.61 58.77 213.9 59.76C213.96 59.95 213.56 60.4801 213.31 60.5201C212.49 60.6501 212.31 61.3401 211.57 61.9901L212.94 61.91C212.84 62.62 212.73 62.77 212.33 62.64C211.905 62.5028 211.488 62.3425 211.08 62.16C210.95 62.68 210.83 63.2101 210.7 63.7701L211.36 64.2401C211.08 64.8301 210.64 64.59 210.27 64.55C209.27 64.45 209.27 64.45 209.16 65.55L208.11 65.9901H208.16H207.99C207.83 65.9901 207.59 65.99 207.55 66.08C207.42 66.34 207.62 66.48 207.84 66.57L208.15 66.7101C207.95 66.8701 207.77 67.05 207.56 67.19C207.35 67.33 207.1 67.44 207.14 67.78L206.43 67.58C206.41 67.8654 206.357 68.1474 206.27 68.42C206.02 68.97 206.44 68.94 206.74 69.03C206.37 69.47 206.24 70.2901 205.35 69.9301C205.326 69.9193 205.301 69.9137 205.275 69.9137C205.249 69.9137 205.224 69.9193 205.2 69.9301C204.83 71.1501 204.03 70.28 203.42 70.29C203.2 70.2786 202.982 70.2417 202.77 70.1801C202.48 70.5101 202.95 70.68 202.9 70.95L201.97 72.15L200.8 72.26C200.94 72.01 201.09 71.77 201.21 71.51C201.21 71.46 201.13 71.35 201.09 71.26C201 71.32 200.85 71.3601 200.84 71.4301C200.84 71.7001 200.84 71.98 200.79 72.26C201.12 72.18 201.16 72.4 201.11 72.62C201.06 72.84 200.81 72.84 200.6 72.81L199.94 72.13H199.56H199.95C199.85 72.51 199.76 72.8901 199.67 73.2701H199.41L199.7 73.17L197.31 74.57L195.79 74.1801C195.565 74.5292 195.272 74.8295 194.928 75.0631C194.585 75.2968 194.197 75.4589 193.79 75.54C193.799 75.4837 193.799 75.4263 193.79 75.37C193.799 75.3238 193.799 75.2763 193.79 75.23L193.85 75.54H193.02C192.686 75.5097 192.351 75.5915 192.069 75.7726C191.786 75.9537 191.572 76.2237 191.46 76.54V76.4901C191.14 76.1501 190.84 75.74 190.27 76.22C190.2 76.81 191.2 76.75 191.06 77.42C190.746 77.2642 190.408 77.1628 190.06 77.12C189.62 77.12 189.5 76.79 189.22 76.63C188.69 76.3 188.22 76.63 187.89 77C188.08 77.27 188.64 77 188.66 77.53C188 77.53 187.32 77.83 186.66 77.42C186.29 77.79 185.9 77.37 185.48 77.42C185.31 77.76 185.15 78.05 185 78.35L183 78.55C182.69 78.14 182.47 78.04 182.07 78.11L180.79 79.13V79.04C180.26 79.76 180.23 79.78 179.79 79.31C179.35 78.84 179.03 78.44 178.63 77.98L178.04 78.54V78.59C177.79 78.19 177.52 78.44 177.26 78.59H177.32C177.066 78.4786 176.805 78.3818 176.54 78.3C175.98 78.15 175.85 78.3001 175.87 78.9901V78.94C175.55 78.9047 175.226 78.9353 174.918 79.0299C174.61 79.1245 174.325 79.2811 174.08 79.4901C173.75 79.1901 173.54 78.9101 173.7 78.4901C173.7 78.4301 173.61 78.37 173.63 78.33C173.72 78.1 174.02 77.87 173.63 77.66C173.605 77.6477 173.578 77.6413 173.55 77.6413C173.522 77.6413 173.495 77.6477 173.47 77.66C173.16 77.98 173.47 78.13 173.66 78.34L173.76 78.48C173.12 78.48 172.76 78.01 172.35 77.69L170.84 78.07L171.84 78.28C171.76 78.8 171.34 78.47 171.16 78.64C170.98 78.81 170.94 79.04 170.77 79.17C170.6 79.3 170.31 79.17 170.31 79.17C170.31 78.32 169.74 78.31 169.25 78.41C168.94 77.99 168.7 77.64 168.35 77.16C168.26 77.52 168.21 77.68 168.17 77.83L167.36 77.26L167.21 76.61C166.59 76.8 166.58 76.03 166.16 75.94C165.96 76.05 165.73 76.27 165.62 76.22C165.22 76.05 164.87 75.8901 164.51 76.2701C164.62 75.8901 164.77 75.52 164.07 75.66C163.86 75.66 163.6 75.46 163.36 75.35L161.79 75.04C161.81 74.8305 161.81 74.6196 161.79 74.41C161.68 73.9 161.46 73.7601 160.93 73.9301C160.67 74.0201 160.46 74.2701 160.22 73.9301C160.22 73.8301 160.22 73.73 160.15 73.63L160.2 73.9301C159.74 73.4401 159.29 72.93 158.83 72.47C158.986 72.5209 159.147 72.5577 159.31 72.58C159.31 72.58 159.39 72.44 159.44 72.36C159.49 72.28 159.34 72.29 159.3 72.3L158.86 72.5C158.59 73.02 158.23 73.1201 157.72 72.6801C157.84 72.2801 157.96 71.86 158.09 71.41L156.99 70.88C156.99 70.88 156.89 70.78 156.85 70.78C156.6 70.78 156.54 70.8501 156.85 70.9601H156.79L154.79 70.53C154.736 70.3335 154.699 70.1328 154.68 69.9301C154.718 69.6136 154.692 69.2927 154.602 68.9868C154.513 68.6809 154.362 68.3962 154.16 68.15C154.06 68.06 154.16 67.82 154.09 67.65C154.63 67.25 154.71 67.02 154.35 66.65C154.171 66.5215 153.971 66.4235 153.76 66.36C153.784 66.2552 153.794 66.1476 153.79 66.04C153.79 65.98 153.74 65.91 153.7 65.84C153.69 65.8929 153.69 65.9471 153.7 66C153.7 66.11 153.7 66.22 153.7 66.33L153.43 66.59L153.5 66.54C152.88 66.54 152.68 66.04 152.5 65.59C152.439 65.3693 152.309 65.1738 152.129 65.0318C151.949 64.8898 151.729 64.8086 151.5 64.8V64.8L152.04 64.2101L150.97 63.88C151.04 63.38 151.11 62.88 151.18 62.41C150.69 62.24 150.85 62.7001 150.45 62.6801C150.54 62.6801 150.45 62.6801 150.36 62.6801C150.22 62.4501 149.99 62.29 150.13 61.92C150.243 61.1303 150.168 60.3251 149.91 59.57C149.74 59.1 149.91 58.78 150.39 58.69C150.39 58.46 150.31 58.2401 150.24 58.0201C150.24 58.0201 150.07 58.0201 149.97 58.0201C149.87 58.0201 149.97 58.16 149.97 58.19C150.11 58.38 150.27 58.55 150.42 58.73L148.79 58.58L147.68 57.4301V57.48C147.86 56.85 147.37 56.43 147.17 55.84L146.5 56.14L145.58 55.36C145.77 54.75 146.43 55.0801 146.81 54.6801C147.03 54.0316 147.03 53.3285 146.81 52.6801C146.74 52.5001 146.87 52.2401 146.91 52.0201V52.04C147.09 51.74 147.26 51.44 147.48 51.04L146.53 50.7101C146.07 50.4401 145.38 50.4 145.45 49.61V49.67C145.97 49.41 145.97 49.41 145.66 48.9V48.85C144.81 48.63 143.86 48.53 143.84 47.3C144.07 47.06 144.3 46.8 144.52 46.56C144.477 46.4386 144.416 46.324 144.34 46.22C144.03 45.96 143.51 46.83 143.23 45.98C143.13 45.7 142.55 45.6 142.23 45.41C142.23 45.41 142.23 45.3101 142.15 45.2401L142.96 44.9C142.56 44.49 142.2 44.1201 141.61 44.5201L141.46 44.2101C141.434 44.1635 141.417 44.1126 141.41 44.06C141.41 44.06 141.41 43.99 141.41 43.95V44.22C141.22 44.1696 141.048 44.0669 140.914 43.9238C140.78 43.7806 140.688 43.6026 140.65 43.41C140.48 42.77 140.19 42.79 139.59 43.34C139.24 43.66 139.24 43.66 138.38 43.26C138.38 42.77 138.3 42.26 138.26 41.75C138.41 41.6877 138.568 41.6506 138.73 41.64C139.012 41.6816 139.295 41.7083 139.58 41.72C139.69 41.72 139.81 41.5 139.87 41.36C139.93 41.22 139.75 41.17 139.67 41.09C139.59 41.01 139.57 40.99 139.53 41C138.71 41.12 137.75 40.9 137.27 41.89L137.03 40.09L137.96 40.28L138.44 40.37C138.44 40.37 138.52 40.32 138.56 40.29C138.6 40.26 138.41 40.12 138.36 40.13C138.212 40.1831 138.069 40.2466 137.93 40.32C137.955 40.1543 137.955 39.9857 137.93 39.82C137.88 39.68 137.69 39.4401 137.64 39.4601C137.455 39.5429 137.288 39.6619 137.15 39.81C137.09 39.88 137.15 40.03 137.09 40.14C136.88 40.09 136.55 39.93 136.49 40C136.13 40.46 135.78 40.22 135.38 40C135.38 39.79 135.33 39.56 135.29 39.22C135.057 39.4057 134.776 39.5205 134.48 39.5507C134.184 39.5808 133.885 39.5251 133.62 39.39C133.298 39.2492 132.963 39.1387 132.62 39.06C131.76 38.87 130.93 39.5201 130.03 39.1801C129.188 38.935 128.288 38.9737 127.47 39.29C127.356 39.3237 127.234 39.3237 127.12 39.29C125.45 38.43 123.68 39.29 121.98 39C121.666 38.9081 121.332 38.9033 121.015 38.9861C120.698 39.0689 120.409 39.2361 120.18 39.47C120.113 39.5042 120.04 39.5221 119.965 39.5221C119.89 39.5221 119.816 39.5042 119.75 39.47C119.677 39.3426 119.568 39.2401 119.436 39.1758C119.304 39.1116 119.155 39.0887 119.01 39.11C118.371 39.0946 117.731 39.1381 117.1 39.2401C116.54 39.4001 115.81 38.96 115.22 39.08C114.081 39.2401 112.925 39.2266 111.79 39.04C110.93 38.8527 110.031 39.0146 109.29 39.4901L108.64 39.16C108.381 39.0242 108.093 38.9533 107.8 38.9533C107.507 38.9533 107.219 39.0242 106.96 39.16C106.48 39.3668 105.97 39.4984 105.45 39.55C105.334 39.5779 105.214 39.5819 105.097 39.562C104.979 39.542 104.867 39.4985 104.767 39.434C104.667 39.3695 104.581 39.2854 104.515 39.1867C104.448 39.0881 104.402 38.9769 104.38 38.8601C104.303 38.6418 104.266 38.4115 104.27 38.1801C104.27 37.6601 103.84 37.72 103.44 37.6L102.38 39.26C101.69 38.85 102.2 38.3401 102.08 37.9301C101.99 37.7178 101.971 37.4818 102.027 37.2581C102.083 37.0343 102.21 36.8348 102.39 36.69C102.301 36.4165 102.146 36.1692 101.939 35.9702C101.731 35.7713 101.477 35.6269 101.2 35.5501C101.09 36.0301 101.02 36.47 100.88 36.88C100.795 37.2722 100.795 37.6779 100.88 38.07C100.94 39.02 101.04 40.0701 100.15 40.6801C100.25 41.1101 100.45 41.21 100.81 41.17C101.528 41.0571 102.253 41.0036 102.98 41.01C103.381 41.1016 103.763 41.2606 104.11 41.48L104.13 41.44ZM176.79 77.67H176.94H176.79V77.54V77.6801V77.67ZM78.3 47.34H78.58H78.28C78.3317 47.2439 78.3752 47.1435 78.41 47.04C78.41 47.04 78.41 46.97 78.33 46.94V47.36L78.3 47.34ZM15.27 25.19L15.2 25.07C15.2241 25.1085 15.2509 25.1452 15.28 25.1801L14.85 25.0801L15.28 25.15L15.27 25.19ZM181.79 -11.1999C181.79 -11.2999 181.86 -11.4099 181.89 -11.5099C182.01 -11.8399 181.89 -12.13 181.78 -11.96C181.67 -11.79 181.78 -11.67 181.78 -11.52C181.78 -11.37 181.84 -11.3099 181.86 -11.1999C181.705 -11.233 181.548 -11.2564 181.39 -11.27C181.382 -11.1901 181.382 -11.1098 181.39 -11.03C181.436 -11.0161 181.484 -11.0161 181.53 -11.03L181.88 -11.2299L181.79 -11.1999ZM80.08 43.41L79.98 43.4601L79.27 43.26C79.3512 43.1151 79.4022 42.9552 79.42 42.79C79.42 42.67 79.3 42.5501 79.23 42.4301C79.12 42.5501 78.91 42.71 78.93 42.76C79.0395 42.9268 79.1669 43.081 79.31 43.22C79.231 43.3492 79.2055 43.5041 79.2392 43.6517C79.2728 43.7993 79.3628 43.9279 79.49 44.01L79.99 43.41C79.9461 43.5046 79.9191 43.6062 79.91 43.7101C79.91 43.7701 80.05 43.81 80.12 43.85C80.19 43.89 80.12 43.74 80.12 43.7C80.0939 43.5933 80.057 43.4894 80.01 43.39C80.08 43.11 80.16 42.83 80.23 42.54C80.45 42.54 80.68 42.4801 80.9 42.4301C80.9 42.4301 80.97 42.31 80.96 42.29C80.8925 42.2191 80.8151 42.1585 80.73 42.11C80.57 42.26 80.43 42.43 80.28 42.59C80.1477 42.6747 80.0512 42.805 80.0088 42.9562C79.9664 43.1074 79.9811 43.2689 80.05 43.41H80.08ZM98.5 35.7C98.5945 35.6483 98.682 35.5844 98.76 35.51C98.82 35.45 98.89 35.3301 98.87 35.2701C98.8468 35.2298 98.8132 35.1965 98.7727 35.1736C98.7323 35.1508 98.6864 35.1392 98.64 35.14C98.5966 35.1626 98.5583 35.1937 98.5274 35.2315C98.4964 35.2693 98.4735 35.3131 98.46 35.3601C98.4411 35.4659 98.4411 35.5742 98.46 35.6801L97.24 35.8001C97.04 35.8901 96.7 35.9601 96.67 36.0801C96.59 36.5701 96.35 37.0801 96.6 37.5801C96.8216 38.0375 96.9539 38.533 96.99 39.04C96.9934 39.175 96.9695 39.3092 96.9197 39.4347C96.8698 39.5602 96.7951 39.6742 96.7 39.7701C96.46 40.0101 96.17 39.77 95.92 39.66H95.79C95.79 39.66 95.73 39.71 95.7 39.73L96 39.62C95.8816 39.6927 95.7821 39.7924 95.7096 39.9109C95.6372 40.0295 95.5938 40.1635 95.5831 40.302C95.5723 40.4405 95.5946 40.5796 95.6479 40.7079C95.7013 40.8362 95.7842 40.95 95.89 41.04C96.24 41.4 96.62 41.73 96.98 42.1C96.98 42.51 96.88 42.96 97.56 43.1L96.97 42.1C96.97 41.94 96.82 41.76 96.87 41.63C97.0012 41.2226 97.2207 40.8492 97.5129 40.5363C97.805 40.2235 98.1625 39.9789 98.56 39.82H98.51C99.32 39.69 99.76 39.0501 100.36 38.5801C99.53 38.0801 99.53 38.0801 99.14 36.9301C98.7454 37.015 98.3332 36.9437 97.9901 36.7311C97.647 36.5185 97.3996 36.1812 97.3 35.79L98.53 35.69L98.5 35.7ZM77.93 56.61L77.64 56.89L77.95 56.9601C77.95 56.8401 77.95 56.72 77.95 56.6C77.95 56.48 77.95 56.09 77.95 55.67C77.95 56.09 77.89 56.35 77.87 56.61H77.93ZM77.95 41.38C77.95 41.32 77.95 41.23 77.95 41.22C77.95 41.21 78.21 41.08 78.35 41.01C78.15 41.01 78.35 41.51 77.97 41.38C77.8146 41.3276 77.6534 41.294 77.49 41.28C77.43 41.28 77.36 41.4 77.29 41.47C77.38 41.47 77.47 41.56 77.54 41.55C77.6833 41.502 77.8236 41.4453 77.96 41.38H77.95ZM177.21 -15.08L177.27 -15.34L177.15 -15.1C177.34 -14.97 177.45 -14.6 177.8 -14.86C177.8 -14.86 177.89 -14.97 177.87 -14.99C177.7 -15.36 177.44 -15.15 177.21 -15.08V-15.08ZM179.61 -10.94L180.27 -10.22C180.27 -10.92 180.27 -10.92 179.58 -10.93V-10.62V-10.96L179.61 -10.94ZM11.58 28.26C11.7125 28.1608 11.8363 28.0504 11.95 27.9301C11.9746 27.8821 11.9874 27.8289 11.9874 27.775C11.9874 27.7211 11.9746 27.668 11.95 27.62C11.919 27.585 11.8802 27.5578 11.8368 27.5404C11.7934 27.523 11.7466 27.5161 11.7 27.5201C11.6545 27.5435 11.6154 27.5776 11.5858 27.6194C11.5562 27.6611 11.5371 27.7094 11.53 27.76C11.5196 27.9265 11.5196 28.0935 11.53 28.26H11.2H11.52H11.58ZM97.52 43.4C97.27 43.62 97 43.83 96.76 44.07C96.76 44.07 96.76 44.26 96.76 44.35C97.15 44.54 97.41 44.35 97.66 44.04C97.6 43.84 97.54 43.62 97.49 43.41L98.18 43.6V43.45L97.46 43.4H97.52ZM82.77 34.5801L83.33 34.67V34.54L82.71 34.6101C82.8757 34.4143 82.998 34.1857 83.0687 33.9391C83.1394 33.6926 83.1569 33.4339 83.12 33.1801C82.9067 33.4996 82.7162 33.8337 82.55 34.1801C82.55 34.2701 82.67 34.46 82.76 34.59L82.77 34.5801ZM72.16 46.59C73.2052 46.4243 74.276 46.556 75.25 46.97L75.98 47.11V47.04L75.23 46.95C74.6716 46.5748 74.0867 46.2406 73.48 45.95C73.3562 45.8809 73.2177 45.8424 73.076 45.8376C72.9343 45.8328 72.7935 45.862 72.6653 45.9226C72.5371 45.9833 72.4253 46.0737 72.3392 46.1863C72.253 46.2989 72.195 46.4305 72.17 46.57L71.85 46.64C71.85 46.64 71.74 46.64 71.69 46.64C71.64 46.64 71.69 46.64 71.61 46.7C71.6813 46.6373 71.7623 46.5866 71.85 46.55C71.9518 46.5529 72.0528 46.5697 72.15 46.6L72.16 46.59ZM85.51 32.6C85.91 32.51 85.96 32.85 86.13 33.07C86.3 33.29 87.05 33.0701 86.96 32.9601C86.49 32.4101 87.61 32.03 86.96 31.5C86.6249 31.5178 86.291 31.5546 85.96 31.6101C85.41 31.7201 85.39 31.7901 85.44 32.6101L84.57 31.6101C84.46 32.0901 84.41 32.3201 84.35 32.6101L85.51 32.6ZM298.38 4.20004C298.17 4.10004 297.9 3.86005 297.77 3.92005C296.9 4.29005 296.07 3.87005 295.23 3.83005C293.83 3.79503 292.436 3.64789 291.06 3.39005C289.789 3.22752 288.511 3.13405 287.23 3.11005C286.893 3.09166 286.555 3.12881 286.23 3.22003C286.146 3.24347 286.07 3.28946 286.01 3.35303C285.95 3.41659 285.908 3.49533 285.89 3.58075C285.871 3.66617 285.876 3.755 285.904 3.83771C285.933 3.92041 285.983 3.99384 286.05 4.05005C286.375 4.27971 286.748 4.43347 287.14 4.50003C288.42 4.64003 289.7 4.74004 290.99 4.79004C293.15 4.89004 295.31 4.95005 297.47 5.02005C297.702 5.01978 297.932 4.97915 298.15 4.90003C298.5 4.77003 298.47 4.47003 298.42 4.19003C298.657 4.47875 298.969 4.69547 299.323 4.81565C299.676 4.93582 300.056 4.95464 300.42 4.87003C299.9 3.98003 299.1 4.29004 298.42 4.20004H298.38ZM187.7 -0.309965C187.92 -0.259965 188.17 -0.12997 188.36 -0.18997C188.741 -0.323903 189.15 -0.357444 189.547 -0.287382C189.945 -0.21732 190.318 -0.0459948 190.63 0.210054C190.85 -0.299946 191.02 -0.679955 191.2 -1.04996C191.4 -0.489955 192.12 -0.189969 191.98 0.530031C192.441 0.467953 192.905 0.43458 193.37 0.430056C193.857 0.47474 194.341 0.548172 194.82 0.650026V-0.259947C195.423 -0.151528 195.964 0.17617 196.34 0.660036C196.508 0.867506 196.724 1.03004 196.971 1.13303C197.217 1.23601 197.484 1.27622 197.75 1.25003C198.85 1.25003 199.96 1.15003 201.06 1.12003C201.64 1.12003 202.22 1.12003 202.8 1.12003C205.01 1.18003 207.22 1.25004 209.43 1.29004C209.906 1.27569 210.38 1.2289 210.85 1.15003C210.862 0.565937 210.942 -0.0147102 211.09 -0.579954C211.224 -0.972136 211.258 -1.39127 211.19 -1.79996C211.165 -1.93517 211.108 -2.06262 211.025 -2.17203C210.942 -2.28143 210.834 -2.36977 210.71 -2.42996C209.745 -2.66109 208.752 -2.75534 207.76 -2.70996C206.893 -2.62347 206.021 -2.59675 205.15 -2.62997C204.28 -2.62997 203.42 -2.57997 202.55 -2.55997C201.732 -2.5803 200.914 -2.55024 200.1 -2.46997C199.177 -2.36005 198.243 -2.36005 197.32 -2.46997C196.51 -2.52997 195.69 -2.46997 194.88 -2.46997C194.44 -1.91997 193.88 -2.71996 193.41 -2.33996C192.94 -1.95996 192.32 -2.40996 191.77 -2.48996C191.45 -2.48996 191.04 -2.58997 190.95 -2.09997L189.79 -2.31994C189.73 -1.99994 189.69 -1.72997 189.64 -1.46997C189.17 -1.68997 188.69 -1.87996 188.24 -2.11996C187.944 -2.30485 187.608 -2.41588 187.259 -2.44372C186.911 -2.47157 186.562 -2.41541 186.24 -2.27997C185.73 -2.00997 185.24 -2.27996 184.79 -1.95996C184.79 -1.39996 184.79 -0.959969 185.46 -0.719969C186.13 -0.479969 185.32 -0.149974 185.46 0.150026C186.25 0.210026 186.91 -0.409948 187.73 -0.229948C187.73 -0.109948 187.8 3.97563e-05 187.73 -0.17996C187.8 -0.0199603 187.73 -0.179957 187.73 -0.269957L187.7 -0.309965ZM200.73 18.5H201.3H200.72C200.93 18.23 201.08 17.87 201.35 17.73C201.487 17.6879 201.632 17.6796 201.773 17.7057C201.914 17.7318 202.047 17.7916 202.16 17.88C202.654 18.3116 203.295 18.5371 203.95 18.51C205.819 18.605 207.691 18.605 209.56 18.51C211.122 18.2432 212.711 18.1759 214.29 18.31C215.473 18.4273 216.668 18.2558 217.77 17.81C217.999 16.9877 218.478 16.257 219.141 15.7194C219.804 15.1818 220.618 14.8639 221.47 14.81C222.47 14.64 223.55 14.44 224.57 14.22C226.45 13.8 228.32 13.35 230.19 12.91C228.862 12.762 227.523 12.7386 226.19 12.84C224.67 13.02 223.19 13.07 221.63 13.13C220.4 13.13 219.17 13.22 217.94 13.29C216.893 13.4099 215.837 13.4099 214.79 13.29C214.097 13.1686 213.39 13.1417 212.69 13.2101C210.94 13.3701 209.19 13.61 207.45 13.84C206.845 13.964 206.223 13.9877 205.61 13.91C204.739 13.7819 203.852 13.809 202.99 13.9901C202.374 14.1501 201.726 14.1501 201.11 13.9901C200.74 13.8701 200.46 14.1101 200.34 14.5201C200.34 14.6401 200.11 14.72 199.91 14.89C199.89 14.7075 199.842 14.5289 199.77 14.3601C199.4 13.8601 198.9 13.8501 198.67 14.3601C198.44 14.8701 198.33 15.29 198.09 15.94C198.391 15.8107 198.702 15.707 199.02 15.63C199.36 16.26 200.14 15.96 200.62 16.51C200.62 16.87 200.62 17.33 200.62 17.78C200.62 18.06 200.69 18.33 200.72 18.6L200.73 18.5ZM268.34 14.04C267.406 14.1303 266.464 14.1303 265.53 14.04C264.023 13.8104 262.492 13.7902 260.98 13.98C258.23 14.18 255.47 14.43 252.75 14.88C248.88 15.52 245.03 16.3501 241.17 17.1101C240.896 17.1762 240.626 17.2563 240.36 17.35C240.592 17.523 240.883 17.5984 241.17 17.56C250.17 16.21 259.28 15.35 268.34 14.07V14.04ZM404.12 25.76C403.49 25.94 403.53 26.39 403.57 26.76C403.78 29.01 404.01 31.2701 404.24 33.5201C404.266 33.6924 404.324 33.8584 404.41 34.01C404.41 34.08 404.6 34.1 404.91 34.25C404.72 33.12 404.62 32.1001 404.46 31.0801C404.339 30.4576 404.312 29.8205 404.38 29.19C404.464 28.0335 404.376 26.871 404.12 25.7401V25.76ZM102.31 44.2701L102.97 43.9L102.72 43.44C102.95 42.92 103.72 43.6 103.83 42.85C103.72 42.76 103.62 42.63 103.49 42.54C103.36 42.45 102.99 42.25 102.6 42.03C102.18 42.76 101.45 42.65 100.76 42.73C100.5 42.73 100.04 42.5201 99.95 43.0201L102.31 44.2701V44.2701ZM394.24 29.59C393.9 30.11 393.74 30.24 393.75 30.37C393.75 32.19 393.84 34.01 393.91 35.82C393.91 35.95 394.1 36.07 394.33 36.37C394.467 34.6403 394.517 32.9048 394.48 31.17C394.445 30.6375 394.365 30.109 394.24 29.59V29.59ZM93.6 32.04C93.7729 31.7727 93.9171 31.4878 94.03 31.19C94.12 30.79 93.96 30.5101 93.41 30.5801C93.3011 31.4215 93.3486 32.2758 93.55 33.1C93.55 33.22 93.77 33.3 93.9 33.4C94.22 32.72 94.22 32.72 93.6 32.04V32.04ZM185.28 -14.06C184.96 -13.63 185.39 -12.9799 184.75 -12.7899C184.65 -12.7899 184.61 -12.57 184.51 -12.4L185.9 -12.11C186.54 -13.11 185.9 -13.52 185.28 -14.06ZM84.13 50.42L84.07 50.6801C84.46 50.8901 84.84 51.13 85.25 51.31C85.66 51.49 85.79 51.25 85.78 50.65L84.13 50.42V50.42ZM92.58 43.9L92.65 44.12C93.3 44.12 93.96 44.12 94.65 44.04C94.88 44.04 95.27 43.98 95.05 43.48L92.63 43.9H92.58ZM143.47 -20.5C143.71 -20.18 143.87 -20.1499 145.13 -20.2299C144.75 -20.5999 144.75 -20.6 143.47 -20.5ZM13.67 28.62C13.8162 28.4828 13.9409 28.3244 14.04 28.15C14.0777 28.0828 14.0974 28.0071 14.0974 27.9301C14.0974 27.853 14.0777 27.7773 14.04 27.7101C13.9713 27.6694 13.8947 27.6439 13.8154 27.6353C13.7361 27.6267 13.6558 27.6351 13.58 27.66C13.4191 27.7306 13.2905 27.8591 13.22 28.0201C13.1961 28.176 13.228 28.3353 13.31 28.47C13.31 28.54 13.51 28.55 13.72 28.62H13.67ZM21.24 30.31C21.6207 30.2791 21.9985 30.2189 22.37 30.13C22.46 30.13 22.49 29.84 22.58 29.6L21.49 29.3001C21.42 29.6001 21.35 29.8701 21.24 30.3001V30.31ZM85.94 47.7101C85.5138 47.683 85.0862 47.683 84.66 47.7101C84.55 47.7101 84.38 48.03 84.41 48.07C84.44 48.11 84.79 48.5001 84.88 48.4601C85.2569 48.2413 85.6118 47.9868 85.94 47.7V47.7101ZM20.36 27.7701C20.1 26.8401 20.1 26.84 19.43 26.67C19.55 27.4 19.55 27.4001 20.36 27.7701ZM176.79 -21.5399L175.51 -21.1699C176.05 -21.1699 176.11 -20.6099 176.46 -20.2599C176.56 -20.6199 176.64 -20.9299 176.79 -21.5399V-21.5399ZM92.07 31.2401C92.29 31.1301 92.44 31.12 92.48 31.04C92.512 30.9746 92.5287 30.9028 92.5288 30.8299C92.5289 30.7571 92.5124 30.6852 92.4806 30.6197C92.4488 30.5542 92.4025 30.4967 92.3452 30.4518C92.288 30.4068 92.2212 30.3754 92.15 30.3601C92.0399 30.3679 91.9351 30.4098 91.85 30.48C91.91 30.73 91.99 30.9701 92.07 31.2401ZM154.35 -21.06C154.35 -21.29 154.29 -21.4799 154.25 -21.6699C154.21 -21.8599 154.4 -22.1299 154.04 -22.2599C154.04 -21.8299 153.71 -21.38 154.35 -21.06ZM156.55 70.04C156.33 69.24 155.89 69.29 155.49 69.32C155.39 69.32 155.3 69.49 155.14 69.64L156.55 70.04V70.04ZM75.95 45.67C76.0998 45.7112 76.2546 45.7314 76.41 45.73C76.68 45.65 76.94 45.52 76.91 45.17C76.8951 45.1171 76.8698 45.0677 76.8354 45.0247C76.801 44.9818 76.7584 44.9462 76.71 44.92C76.35 44.72 76.21 45.01 76.07 45.25C76.0136 45.3848 75.9734 45.5258 75.95 45.67V45.67ZM301.95 4.56003L301.61 4.80005C301.68 4.87005 301.76 4.99004 301.82 4.98004C301.948 4.93638 302.069 4.87585 302.18 4.80005L301.95 4.56003V4.56003ZM90.15 51.78L89.97 51.63L89.45 52.09L89.79 52.4L90.15 51.78ZM96.47 35.2101L97.74 34.3001C96.98 34.3001 96.53 34.2301 96.47 35.2101ZM92.79 47.2101C92.5863 47.07 92.3642 46.959 92.13 46.88C92.02 46.88 91.87 47 91.76 47.1C91.65 47.2 91.83 47.32 91.91 47.38C92.0439 47.4725 92.1984 47.5308 92.36 47.55C92.48 47.55 92.58 47.3801 92.79 47.2101V47.2101ZM95.03 35.94C94.8078 35.8511 94.5764 35.7874 94.34 35.75C94.27 35.75 94.2 35.9 94.12 35.98C94.2621 36.1209 94.4198 36.245 94.59 36.35C94.64 36.35 94.79 36.17 95.03 35.94ZM212.57 58.5C211.99 58.61 211.94 58.85 212.21 59.28C212.33 59.02 212.44 58.8 212.57 58.5ZM90.99 51.64L91.69 52.39C91.69 52 92.06 51.39 90.99 51.64ZM88.9 31.42C88.9 31.78 88.9 32.0601 89.33 32.2701C89.42 31.9101 89.44 31.63 88.9 31.42ZM79.21 38.37C79.358 38.4606 79.5157 38.5343 79.68 38.59C79.68 38.59 79.85 38.41 79.83 38.35C79.772 38.2282 79.6942 38.1167 79.6 38.0201L79.21 38.37V38.37ZM90.73 30.5201C90.61 30.6601 90.43 30.8001 90.46 30.8601C90.49 30.9201 90.67 31.16 90.76 31.15C90.85 31.14 90.99 30.9601 91.11 30.8601L90.73 30.5201ZM14.1 29.3601C14.05 29.3601 14.01 29.28 13.96 29.28L13.5 29.35C13.5 29.43 13.57 29.57 13.6 29.57C13.7555 29.558 13.9095 29.5312 14.06 29.4901C14.06 29.4901 14.06 29.4001 14.06 29.3601H14.1ZM130.87 -16.96V-16.71H131.64C131.64 -16.77 131.64 -16.84 131.64 -16.91L130.87 -16.96ZM184.05 -14.27L183.79 -13.96L184.34 -13.62C184.34 -13.71 184.49 -13.85 184.46 -13.89C184.337 -14.0454 184.199 -14.1893 184.05 -14.3199V-14.27ZM143.6 44.4601L143.9 44.33C143.83 44.25 143.75 44.11 143.69 44.12C143.556 44.1635 143.428 44.224 143.31 44.3L143.6 44.4601V44.4601ZM80.92 49.04L81.18 49.17C81.2702 48.9913 81.3503 48.8077 81.42 48.62C81.4381 48.5276 81.4381 48.4325 81.42 48.34C81.33 48.34 81.18 48.34 81.15 48.44C81.0717 48.635 81.0082 48.8355 80.96 49.04H80.92ZM199.25 17.7401C199.33 17.6801 199.45 17.64 199.47 17.56C199.49 17.48 199.39 17.41 199.34 17.34L199.03 17.56L199.25 17.7401V17.7401ZM75.44 47.7401C75.35 47.6901 75.28 47.61 75.19 47.6C74.87 47.6 74.66 47.76 74.81 47.9C74.96 48.04 75.29 48.0201 75.44 47.7401ZM197.32 15.47L197.21 15.2401C197.21 15.2901 197.12 15.34 197.13 15.37C197.158 15.4504 197.195 15.5275 197.24 15.6L197.32 15.47ZM120.26 19.26C120.26 19.13 120.31 19.08 120.32 19.03C120.124 19.0035 119.927 18.9868 119.73 18.98C119.73 18.98 119.73 19.1301 119.67 19.2101L120.26 19.26ZM121.69 20.03L121.45 19.95C121.462 20.0014 121.479 20.0516 121.5 20.1L121.69 20.03V20.03ZM177.79 -10.4499L177.96 -10.22C177.96 -10.22 178.05 -10.31 178.04 -10.34C178.013 -10.4353 177.979 -10.5289 177.94 -10.62L177.79 -10.4499V-10.4499ZM177.79 -11.9L177.55 -11.99C177.55 -11.99 177.49 -11.88 177.55 -11.85C177.594 -11.776 177.644 -11.7058 177.7 -11.64C177.75 -11.73 177.8 -11.81 177.84 -11.9H177.79ZM128.84 26.39L128.71 26.63C128.786 26.6718 128.867 26.7054 128.95 26.73C128.95 26.73 129.04 26.6201 129.03 26.6101C129.02 26.6001 128.9 26.46 128.84 26.39V26.39ZM82.03 49.57C82.39 49.57 82.54 49.57 82.7 49.57C82.86 49.57 82.79 49.48 82.79 49.47C82.79 49.46 82.64 49.27 82.59 49.28C82.3956 49.361 82.2083 49.458 82.03 49.57V49.57ZM161.03 72.9301L160.9 73.19C161 73.19 161.09 73.26 161.19 73.28C161.29 73.3 161.27 73.28 161.32 73.22L161.03 72.9301V72.9301ZM359.94 29.29C359.94 29.29 359.8 29.3401 359.8 29.3601C359.8 29.3801 359.8 29.56 359.8 29.66C359.8 29.76 359.94 29.66 359.94 29.6C359.949 29.4969 359.949 29.3932 359.94 29.29V29.29ZM74.64 49.9301V49.7101L73.96 49.78C73.955 49.8299 73.955 49.8802 73.96 49.9301H74.64ZM80.86 50.32V50.17C80.8035 50.202 80.75 50.2388 80.7 50.28C80.7 50.28 80.7 50.37 80.7 50.41L80.81 50.32H80.86ZM177.91 -18.68C177.85 -18.76 177.8 -18.9 177.72 -18.91C177.64 -18.92 177.53 -18.8399 177.44 -18.7899L177.7 -18.4799L177.91 -18.68ZM192.26 74.58H191.98C191.98 74.58 191.93 74.6501 191.91 74.6801C192.003 74.6898 192.097 74.6898 192.19 74.6801C192.19 74.6801 192.19 74.62 192.26 74.59V74.58ZM87.79 51.04C87.6307 51.0195 87.4693 51.0195 87.31 51.04C87.22 51.04 87.16 51.1901 87.09 51.2701C87.2785 51.3065 87.4687 51.3332 87.66 51.35C87.66 51.35 87.73 51.18 87.79 51.03V51.04ZM159.27 -21.77C159.265 -21.7234 159.265 -21.6765 159.27 -21.63H159.56C159.555 -21.7099 159.555 -21.79 159.56 -21.87L159.28 -21.7599L159.27 -21.77ZM85.64 34.14L85.58 34L85.27 34.16C85.27 34.22 85.34 34.2801 85.38 34.3301L85.64 34.14V34.14ZM92.64 33.9301C92.59 34.0301 92.49 34.15 92.52 34.23C92.55 34.31 92.7 34.33 92.8 34.37C92.9 34.41 92.91 34.16 92.89 34.07C92.87 33.98 92.73 33.9801 92.64 33.9301V33.9301ZM77.38 53.69C77.38 53.59 77.31 53.45 77.23 53.41C77.15 53.37 77.04 53.4601 76.94 53.4901C76.84 53.5201 77.01 53.72 77.09 53.75C77.17 53.78 77.28 53.75 77.38 53.69ZM75.38 57.3C75.3175 57.1501 75.2257 57.014 75.11 56.9C75.06 56.9 74.88 56.98 74.76 57.03C74.8404 57.1713 74.9378 57.3023 75.05 57.42C75.05 57.42 75.23 57.36 75.38 57.3V57.3ZM87.96 35.64H87.54C87.54 35.64 87.54 35.7101 87.54 35.7401H87.96V35.56V35.64ZM214.33 54.6L214.46 54.4C214.413 54.3953 214.367 54.3953 214.32 54.4C214.32 54.4 214.24 54.4 214.19 54.45L214.33 54.63V54.6ZM183.79 77.3L183.91 77.23L183.77 77.09C183.77 77.14 183.71 77.18 183.71 77.22C183.71 77.26 183.76 77.28 183.79 77.3ZM214.34 53.83L214.49 53.76C214.43 53.69 214.38 53.61 214.33 53.54L214.19 53.78L214.34 53.83ZM394.05 37.3601L394.42 37.57C394.42 37.49 394.57 37.37 394.55 37.34C394.444 37.2324 394.33 37.1322 394.21 37.04L394.05 37.3601V37.3601ZM92.1 36.4901C92.1 36.4901 92.1 36.41 92.03 36.4H91.89L92 36.56L92.1 36.4601V36.4901ZM149.41 57.23L149.31 57.35L149.52 57.44C149.52 57.39 149.52 57.33 149.52 57.29C149.52 57.25 149.44 57.29 149.39 57.23H149.41ZM214.6 52.23C214.6 52.23 214.6 52.15 214.6 52.11L214.41 52.19C214.41 52.19 214.41 52.27 214.49 52.28C214.533 52.272 214.574 52.255 214.61 52.23H214.6ZM171.04 76.9601L170.92 76.89C170.907 76.9285 170.891 76.9653 170.87 77C170.906 77.025 170.947 77.0421 170.99 77.05C170.99 77.05 170.99 76.9901 171.04 76.9601V76.9601ZM211.24 59.38C211.24 59.38 211.24 59.4701 211.24 59.4901C211.24 59.5101 211.31 59.54 211.35 59.56C211.39 59.58 211.35 59.47 211.35 59.45C211.35 59.43 211.27 59.4 211.23 59.38H211.24ZM214.23 41.16L214.34 41.08H214.24L214.23 41.16ZM390.79 42.36L390.73 42.22C390.73 42.22 390.64 42.31 390.64 42.34C390.673 42.4044 390.713 42.4649 390.76 42.5201V42.36H390.79ZM169.08 -18.96C169.01 -19.05 168.97 -19.17 168.89 -19.21C168.81 -19.25 168.71 -19.21 168.62 -19.14C168.53 -19.07 168.7 -18.92 168.77 -18.89C168.84 -18.86 168.97 -18.89 169.08 -18.96V-18.96ZM137.48 -18.64C137.387 -18.6777 137.29 -18.7013 137.19 -18.71C137.19 -18.71 137.12 -18.64 137.08 -18.6C137.04 -18.56 137.24 -18.47 137.32 -18.46C137.4 -18.45 137.43 -18.57 137.48 -18.64ZM176.79 -17.08C176.79 -17.13 176.79 -17.1999 176.79 -17.2299C176.79 -17.2599 176.69 -17.2299 176.64 -17.2299C176.59 -17.2299 176.64 -17.07 176.64 -17H176.8L176.79 -17.08ZM86.11 49.9301C86.2 49.8701 86.32 49.8301 86.38 49.7401C86.44 49.6501 86.38 49.57 86.38 49.48L86.01 49.64C86.01 49.74 86.09 49.8301 86.14 49.9301H86.11ZM125.79 27.04C125.79 27.14 125.79 27.2 125.73 27.26H125.87L125.79 27.04ZM82.79 44.48L82.64 44.7C82.64 44.7 82.74 44.79 82.77 44.78C82.8553 44.7431 82.9359 44.6962 83.01 44.64L82.79 44.48V44.48ZM76.08 49.17C76.0286 49.1053 75.9717 49.0451 75.91 48.9901C75.91 48.9901 75.82 48.9901 75.77 48.9901C75.7651 49.0666 75.7651 49.1434 75.77 49.22L76.06 49.17H76.08ZM177.06 -10.31C177.06 -10.36 177.13 -10.43 177.11 -10.46C177.09 -10.49 177.02 -10.46 176.97 -10.52L176.91 -10.31H177.06ZM19.79 25.14C19.7986 25.0904 19.7986 25.0397 19.79 24.9901C19.7069 24.9803 19.623 24.9803 19.54 24.9901C19.5311 25.0363 19.5311 25.0838 19.54 25.13H19.8L19.79 25.14ZM73 45.13L72.73 44.98V45.25H73.04C73.04 45.25 73.04 45.16 73.04 45.11L73 45.13ZM93.04 47.95L92.93 48.03C92.93 48.03 93.03 48.15 93.04 48.14C93.1016 48.0998 93.1587 48.0528 93.21 48H93.04V47.95ZM156.31 68.32H156.18C156.191 68.3946 156.208 68.4681 156.23 68.54C156.23 68.54 156.33 68.49 156.34 68.45C156.35 68.41 156.34 68.36 156.34 68.31L156.31 68.32ZM111.53 3.58005H111.39C111.39 3.58005 111.39 3.65003 111.39 3.69003C111.439 3.7 111.49 3.7 111.54 3.69003C111.54 3.69003 111.54 3.62005 111.54 3.58005H111.53ZM359.98 6.65003H359.79V6.76004L359.98 6.65003ZM66.79 16.67H66.91C66.91 16.67 66.91 16.5701 66.91 16.5501C66.91 16.5301 66.83 16.5501 66.79 16.5501C66.7843 16.5932 66.7843 16.6369 66.79 16.6801V16.67ZM111.9 11.59L111.98 11.48H111.86L111.9 11.59ZM9.89999 16.3601H9.65999C9.65999 16.3601 9.72999 16.4501 9.76999 16.4601C9.80999 16.4701 9.84999 16.46 9.89999 16.4V16.3601ZM196.95 16.48L196.89 16.57H196.97L196.95 16.48ZM364.17 7.87003C364.13 7.86573 364.09 7.86573 364.05 7.87003C364.05 7.87003 364.05 7.93006 364 7.96006C364.04 7.96873 364.08 7.96873 364.12 7.96006C364.12 7.96006 364.12 7.90003 364.17 7.87003ZM6.61 16.73L6.48999 16.66V16.7701L6.61 16.73ZM9.68999 23.14L9.81 23.0801L9.68999 23.0201V23.14ZM11.69 24.3301L11.62 24.2101C11.6151 24.2833 11.6151 24.3568 11.62 24.4301L11.71 24.3301H11.69ZM313.17 -3.85995V-3.74997H313.32L313.17 -3.85995ZM128.43 25.14C128.394 25.1333 128.356 25.1333 128.32 25.14C128.32 25.14 128.32 25.2 128.27 25.23C128.22 25.26 128.35 25.23 128.38 25.23C128.41 25.23 128.38 25.17 128.43 25.14ZM182.88 -11.49H182.79L182.84 -11.36L182.88 -11.49ZM178.66 -12.09C178.666 -12.1298 178.666 -12.1702 178.66 -12.21C178.66 -12.21 178.59 -12.21 178.56 -12.21C178.53 -12.21 178.56 -12.12 178.56 -12.09H178.66ZM175.24 -13.24V-13.35L175.1 -13.3L175.24 -13.24ZM129.89 26.76H129.79L129.84 26.89L129.89 26.76ZM175.64 -13.96L175.76 -14.0399H175.53L175.64 -13.9499V-13.96ZM183.35 -15.41H183.49V-15.53C183.447 -15.5395 183.403 -15.5395 183.36 -15.53C183.36 -15.53 183.36 -15.47 183.36 -15.43L183.35 -15.41ZM17.8 27.57L17.7 27.62L17.8 27.67V27.57ZM178.55 -16.43L178.33 -16.49V-16.39C178.393 -16.3844 178.457 -16.3844 178.52 -16.39L178.55 -16.43ZM136.9 -17.69C136.9 -17.69 136.82 -17.6099 136.82 -17.5699C136.82 -17.5299 136.87 -17.4899 136.89 -17.4499C136.91 -17.4099 136.97 -17.52 136.97 -17.56C136.959 -17.6088 136.935 -17.6537 136.9 -17.69V-17.69ZM175.31 -18.3199C175.31 -18.3199 175.41 -18.32 175.42 -18.39C175.43 -18.46 175.42 -18.48 175.42 -18.53L175.24 -18.44L175.32 -18.3199H175.31ZM146.51 -20.59H146.42V-20.49L146.51 -20.59ZM150.66 -20.7599L150.79 -20.96H150.68L150.66 -20.7599ZM171.59 -21.27L171.53 -21.38C171.525 -21.3067 171.525 -21.2332 171.53 -21.16C171.553 -21.199 171.58 -21.2358 171.61 -21.27H171.59ZM170.79 -21.06C170.79 -21.06 170.88 -21.06 170.89 -21.13C170.9 -21.1761 170.9 -21.2238 170.89 -21.27C170.838 -21.2483 170.791 -21.2179 170.75 -21.18C170.75 -21.18 170.75 -21.1 170.81 -21.06H170.79ZM165.75 -22.4L165.88 -22.46H165.75V-22.4ZM143.36 -22.55H143.26V-22.4199L143.36 -22.55ZM89.09 33.25C89.09 33.25 89.01 33.19 88.97 33.2C88.93 33.21 88.9 33.26 88.86 33.29L89.09 33.35V33.25ZM92.69 35.12C92.69 35.12 92.69 35.04 92.69 35.03C92.6478 35.0163 92.6022 35.0163 92.56 35.03V35.2H92.68L92.69 35.12ZM80.21 41.01C80.21 40.92 80.13 40.8301 80.1 40.7401C80.07 40.6501 79.99 40.74 79.99 40.81C79.98 40.9031 79.98 40.997 79.99 41.09L80.2 41.01H80.21ZM95.73 44.82C95.73 44.82 95.73 44.72 95.73 44.69C95.73 44.66 95.65 44.69 95.61 44.69V44.9H95.73V44.82ZM85.57 45.5V45.41H85.43L85.57 45.5ZM144.57 45.5L144.48 45.4301V45.53L144.57 45.5ZM83.96 45.76H83.83C83.83 45.76 83.83 45.85 83.83 45.86C83.83 45.87 83.92 45.86 83.96 45.86C84 45.86 83.96 45.79 83.96 45.75V45.76ZM145.15 47.88C145.15 47.88 145.15 47.7901 145.15 47.7401L145.07 47.92H145.19L145.15 47.88ZM214.63 49.7101H214.51L214.59 49.85C214.592 49.8167 214.592 49.7833 214.59 49.75L214.63 49.7101ZM80.27 52.9601L80.12 52.91C80.12 52.91 80.12 53.01 80.12 53.04C80.1403 53.0498 80.1625 53.0548 80.185 53.0548C80.2075 53.0548 80.2297 53.0498 80.25 53.04C80.25 53.04 80.25 52.96 80.25 52.92L80.27 52.9601ZM213.17 57.92C213.17 57.92 213.17 57.81 213.17 57.8C213.118 57.785 213.062 57.785 213.01 57.8C213.01 57.87 213.01 57.94 213.01 58.01L213.16 57.95L213.17 57.92ZM152.79 64.04C152.79 64.04 152.9 64.04 152.91 63.98C152.92 63.92 152.91 63.88 152.91 63.83L152.73 63.92L152.79 64.04ZM204.05 69.8V69.66L203.96 69.83H204.08L204.05 69.8ZM158.5 70.89H158.38V71.04L158.5 70.89Z" fill="#F6F6F6"/>
</svg>
