<svg width="120" height="382" viewBox="0 0 120 382" fill="none" xmlns="http://www.w3.org/2000/svg">
<path d="M93.2593 124.058C93.0173 127.263 92.8056 130.346 89.705 132.478C86.6102 134.511 83.7361 136.862 81.1293 139.492C79.9496 140.731 79.9495 143.104 79.3596 145.115C89.4932 146.279 89.463 146.324 96.6624 151.887C98.7345 153.504 101.109 154.713 103.287 156.18C110.139 160.79 110.849 162.423 108.641 170.842C107.341 175.967 105.616 181 103.832 187.259L94.1668 180.411C91.4897 182.996 89.1 186.881 85.7272 188.211C83.2228 189.173 80.5435 189.596 77.8643 189.453C75.1851 189.31 72.5663 188.603 70.179 187.38C68.7341 186.692 67.2102 186.184 65.6415 185.868C62.9493 185.293 60.2722 184.613 59.8336 181.424C59.2891 177.342 62.2838 176.254 65.3995 174.984C67.1388 174.274 68.4245 172.354 70.1487 170.706C68.3337 166.383 66.8969 162.438 65.0668 158.689C63.2367 154.94 68.0917 150.209 63.4484 146.823L63.8417 147.261C62.904 144.843 62.6922 141.442 60.9226 140.157C54.0408 135.123 53.0425 127.111 48.369 120.339L65.8684 112.781C69.1051 115.729 72.372 118.722 76.7431 122.743L82.2485 106.992C76.8943 104.649 72.0393 102.548 67.1993 100.401C66.0388 99.7329 64.7128 99.4066 63.3745 99.4601C62.0362 99.5137 60.7404 99.9447 59.637 100.704C59.2504 101.072 58.773 101.332 58.2534 101.456C57.7338 101.581 57.1906 101.565 56.6788 101.412C56.1671 101.258 55.7053 100.972 55.3402 100.582C54.9751 100.192 54.7198 99.7124 54.6004 99.1919C54.4724 98.4574 54.5149 97.7033 54.7247 96.9878C54.9345 96.2723 55.306 95.6145 55.8104 95.0652C58.8354 92.1326 62.1779 89.5478 65.2936 86.9176L83.3374 84.2874L94.8323 103.046C94.061 107.158 87.4968 110.605 92.1855 116.424C93.5618 118.117 92.8813 121.458 93.1535 123.982L93.2593 124.058ZM92.2611 172.898C96.2087 169.013 96.4204 165.053 94.2424 160.594C86.0902 161.229 85.9238 162.03 92.2611 172.898Z" fill="#EAF3FB"/>
<path d="M65.9742 49.4295C66.1104 50.9411 66.7456 52.5434 66.2768 53.7678C65.3036 55.6638 64.1486 57.461 62.8283 59.1341C62.0115 60.4189 61.3158 61.7491 60.8923 62.4596C61.1192 70.5921 69.9672 64.7119 71.3889 70.3805C61.815 82.4734 61.7998 82.4734 45.5255 74.4014C42.2302 76.1023 38.455 76.6353 34.8173 75.913C36.8742 70.441 39.6118 66.1782 45.9642 66.5863C49.3068 66.8131 50.7739 65.4375 52.0141 62.8526C53.2543 60.2678 54.1315 58.4992 52.9972 55.4759C51.3032 51.0167 51.7872 50.8353 55.9314 46.4062L66.2012 49.747L65.9742 49.4295Z" fill="#EAF3FB"/>
<path d="M65.3239 321.641C66.3417 321.787 67.3222 322.125 68.2127 322.639C71.2376 325.39 74.2626 328.307 77.7867 331.708C76.2742 334.943 74.7617 338.088 73.5215 340.869C71.8124 341.111 70.7083 341.625 69.9824 341.307C58.3212 336.137 57.4893 332.449 65.3239 321.656" fill="#EAF3FB"/>
<path d="M63.0854 194.091C62.2837 202.224 59.7428 206.426 55.3415 210.643L47.5219 203.887C50.6527 197.644 56.3095 197.492 63.0854 194.091Z" fill="#EAF3FB"/>
<path d="M98.4472 61.5525V75.3233L89.4933 78.9814C89.1303 76.8651 88.5253 75.4291 88.8732 75.1117C92.9115 71.6198 95.7398 67.7501 94.1214 62.0211L98.4472 61.5525Z" fill="#EAF3FB"/>
<path d="M74.8676 261.963C72.9619 260.194 71.4192 259.348 70.7839 258.063C68.9085 254.208 70.1487 250.762 73.1283 247.981C73.9651 247.365 74.9973 247.075 76.0323 247.164C78.8455 247.391 81.1444 252.198 79.7681 256.4C79.1026 258.471 76.7431 259.968 74.8676 261.963Z" fill="#EAF3FB"/>
<path d="M113.224 228.163C111.309 228.9 109.314 229.407 107.28 229.675C102.425 229.78 99.7931 226.576 100.701 221.663C100.856 220.934 101.168 220.247 101.615 219.649C102.061 219.052 102.632 218.558 103.287 218.201C104.005 218.045 104.751 218.065 105.459 218.259C106.168 218.454 106.819 218.818 107.355 219.32C109.506 222.173 111.5 225.14 113.33 228.208L113.224 228.163Z" fill="#EAF3FB"/>
<path d="M61.6939 39.544L48.7622 43.1114L45.1625 35.4173C47.7903 34.3666 50.471 33.4534 53.1938 32.6813C53.9046 32.4999 55.0088 33.558 55.7953 34.1929C57.3078 35.4777 58.8202 36.8835 61.6939 39.4986" fill="#EAF3FB"/>
<path d="M106.872 265.485C112.74 268.81 113.36 273.3 112.74 278.061C112.462 278.733 112.02 279.324 111.454 279.78C110.889 280.237 110.218 280.545 109.503 280.677C108.769 280.624 108.058 280.401 107.425 280.026C106.792 279.651 106.256 279.134 105.858 278.515C103.801 274.615 103.287 270.503 106.872 265.485Z" fill="#EAF3FB"/>
<path d="M57.0354 20.1951C62.5862 22.6741 66.1102 24.4729 67.9403 29.038C69.5284 33.195 69.8158 37.1856 67.5622 37.231C63.8264 37.3065 64.2045 34.0112 62.9189 31.9101C61.6333 29.8089 59.0923 28.4787 57.6252 26.438C56.8841 25.395 57.2926 23.5357 57.0354 20.1951Z" fill="#EAF3FB"/>
<path d="M112.438 354.322L120 366.597C115.357 369.62 112.438 367.594 110.123 364.435C107.991 361.518 108.853 358.782 112.483 354.322" fill="#EAF3FB"/>
<path d="M58.654 295.248C63.5241 297.501 64.0535 301.144 61.4823 305.361C61.0395 305.927 60.4685 306.38 59.8164 306.682C59.1642 306.984 58.4496 307.127 57.7313 307.099C57.0252 306.89 56.3761 306.523 55.8336 306.025C55.291 305.527 54.8693 304.913 54.6004 304.227C54.2645 303.373 54.1032 302.46 54.1259 301.542C54.1487 300.624 54.355 299.72 54.7327 298.884C55.1105 298.047 55.6521 297.294 56.3255 296.67C56.999 296.045 57.7907 295.562 58.654 295.248Z" fill="#EAF3FB"/>
<path d="M107.386 197.658C109.125 201.543 110.501 203.705 110.955 206.018C110.957 206.771 110.78 207.514 110.438 208.185C110.097 208.856 109.601 209.437 108.991 209.88C108.381 210.322 107.675 210.614 106.931 210.731C106.186 210.848 105.425 210.787 104.709 210.553C103.65 210.084 102.334 207.937 102.637 207.03C103.995 203.803 105.582 200.676 107.386 197.674" fill="#EAF3FB"/>
<path d="M55.9617 104.407C53.3299 109.229 52.74 111.451 51.2881 112.676C49.7451 113.845 47.8151 114.386 45.8886 114.187C43.8921 113.915 43.3476 109.093 45.4499 107.717C47.5523 106.342 50.6226 105.994 55.9617 104.407Z" fill="#EAF3FB"/>
<path d="M28.8279 31.9405L32.9721 24.6545L39.7026 28.6452C37.6154 37.337 32.5789 31.7894 28.8582 31.8801L28.8279 31.9405Z" fill="#EAF3FB"/>
<path d="M82.309 211.067C85.6213 211.565 87.1641 214.468 86.4381 218.746C86.2263 220 84.9256 221.769 83.9425 221.996C83.1993 222.006 82.4621 221.863 81.7774 221.574C81.0927 221.285 80.4754 220.857 79.9646 220.318C77.9379 218.353 77.1212 215.783 79.0723 213.304C80.0235 212.389 81.1165 211.633 82.309 211.067Z" fill="#EAF3FB"/>
<path d="M93.2291 124.058C95.8454 122.504 98.5756 121.15 101.396 120.007C103.877 119.191 104.905 121.428 104.421 126.144C100.232 128.064 97.7363 120.778 93.3047 124.058" fill="#EAF3FB"/>
<path d="M29.8412 122.335C29.5665 120.804 29.3697 119.26 29.2514 117.709C29.2514 116.394 29.4631 115.064 29.6446 112.917C31.384 117.21 31.384 117.21 29.8412 122.335Z" fill="#EAF3FB"/>
<path d="M109.594 141.653L105.057 145.327C104.195 144.148 102.364 142.576 102.652 141.895C103.635 140.278 104.877 138.833 106.327 137.617C107.204 138.706 108.066 139.794 109.534 141.653" fill="#EAF3FB"/>
<path d="M11.8728 170.178L6.32204 174.425C5.83805 173.609 4.80962 172.717 4.96086 171.976C5.33898 169.165 6.62454 166.837 9.92174 166.928C10.436 166.928 10.8897 168.439 11.8728 170.178Z" fill="#EAF3FB"/>
<path d="M110.713 91.6948C110.828 94.2393 110.792 96.7882 110.607 99.3285C110.517 99.9936 109.231 100.492 108.49 101.067C108.021 100.417 106.977 99.5552 107.174 99.1471C107.991 97.0157 109.095 94.9901 110.713 91.6948Z" fill="#EAF3FB"/>
<path d="M52.6947 23.1879C51.5603 24.5786 50.7284 26.5437 49.6697 26.6192C46.6448 26.8611 47.0531 24.0948 47.3556 22.3867C47.5371 21.3588 49.1705 20.5879 50.1536 19.696C50.925 20.7995 51.6661 21.903 52.619 23.1879" fill="#EAF3FB"/>
<path d="M28.1019 377.949C26.9373 379.732 26.3777 381.335 25.2735 381.954C24.6988 382.272 22.2486 380.851 22.2486 380.125C22.2406 379.397 22.3921 378.676 22.6925 378.013C22.993 377.35 23.4352 376.76 23.9879 376.286C24.5324 375.878 26.3473 377.193 28.1321 377.949" fill="#EAF3FB"/>
<path d="M93.9096 39.3172C92.3971 36.294 86.2413 38.3196 86.7706 32.9382C93.6827 32.9382 93.6827 32.9382 93.6827 39.6649L93.9096 39.3172Z" fill="#EAF3FB"/>
<path d="M103.862 39.3476C104.631 40.0097 105.335 40.7436 105.964 41.5395C106.378 42.3784 106.698 43.2605 106.917 44.1697L104.437 44.9255C104.133 44.0364 103.915 43.1202 103.786 42.1895C103.816 41.1745 103.928 40.1635 104.119 39.1663L103.862 39.3476Z" fill="#EAF3FB"/>
<path d="M66.2313 49.7923C68.5454 49.0516 70.8444 48.2051 73.219 47.6609C73.6425 47.5702 74.8979 48.9004 74.8071 49.3993C74.7164 49.8981 73.5669 51.1981 73.0224 51.1225C70.6509 50.6904 68.3033 50.1354 65.9894 49.4597L66.2313 49.7923Z" fill="#EAF3FB"/>
<path d="M5.41469 66.8288C4.61083 67.5859 3.74009 68.269 2.81318 68.8695C1.7948 67.9181 0.854096 66.8869 0 65.7858C0.725989 65.2113 1.76956 64.0172 2.13255 64.1835C3.32057 64.9472 4.41681 65.8449 5.39955 66.859" fill="#EAF3FB"/>
<path d="M77.3027 9.85593L73.3551 7.27106C74.7164 5.91061 76.0776 4.55017 77.454 3.20483C78.3312 4.24785 79.8891 5.29086 79.9193 6.3641C79.9496 7.43735 78.4068 8.49548 77.3027 9.85593Z" fill="#EAF3FB"/>
<path d="M88.2831 266.483C87.1708 267.079 85.9934 267.546 84.7742 267.874C84.5322 267.874 83.4432 265.893 83.6852 265.621C84.5862 264.786 85.6055 264.088 86.7102 263.55C87.1639 264.351 87.6025 265.168 88.3436 266.483" fill="#EAF3FB"/>
<path d="M110.94 376.74L107.25 379.914C106.431 378.803 105.784 377.575 105.329 376.271C105.193 375.621 106.297 374.76 106.841 373.898L110.955 376.74" fill="#EAF3FB"/>
<path d="M63.5242 146.762C63.2217 147.7 63.2065 149.09 62.5713 149.468C61.2823 150.152 59.855 150.534 58.3968 150.587C58.1095 150.587 57.2322 148.455 57.444 148.289C58.4509 147.369 59.665 146.706 60.9832 146.354C61.8604 146.158 62.9192 146.883 63.9023 147.201L63.5242 146.762Z" fill="#EAF3FB"/>
<path d="M25.5003 91.6948L23.035 92.7831L22.0821 90.1982C22.8989 89.911 23.8669 89.261 24.5021 89.4878C25.1374 89.7145 25.1827 90.9087 25.5003 91.6948Z" fill="#EAF3FB"/>
<path d="M59.7731 84.9526C59.516 85.8294 59.2588 86.7061 58.9866 87.5829C58.2606 87.205 57.0052 86.9329 56.9145 86.4492C56.7935 85.6782 57.4287 84.7562 57.7312 83.8945L59.7731 84.9526Z" fill="#EAF3FB"/>
<path d="M93.9701 10.8832L94.9986 13.6797C94.1407 14.0914 93.211 14.3327 92.261 14.3902C91.8527 14.3902 91.1569 12.5158 91.3989 12.2437C92.1862 11.6271 93.0775 11.1562 94.0306 10.853" fill="#EAF3FB"/>
<path d="M94.1215 26.559C93.1535 26.8311 92.0948 27.4509 91.2327 27.2543C90.7033 27.1183 90.4462 25.7427 90.0529 24.9718C90.915 24.6846 91.9738 23.9439 92.5788 24.216C93.1838 24.4881 93.6224 25.7276 94.0913 26.559" fill="#EAF3FB"/>
<path d="M84.0787 54.0852C84.6232 54.705 85.1827 55.3096 85.7272 55.9142C85.0316 56.3662 84.2917 56.746 83.519 57.048C83.3375 57.048 82.5511 56.2015 82.6418 56.0201C83.0802 55.3264 83.5869 54.6782 84.1543 54.0852" fill="#EAF3FB"/>
<path d="M28.8582 31.8801C28.9846 32.3928 29.1411 32.8975 29.327 33.3917C30.2799 35.5382 32.0646 37.715 31.989 39.8161C31.9134 41.9172 29.4783 38.9696 29.4934 34.8882C29.5567 34.3863 29.5567 33.8785 29.4934 33.3766C29.3516 32.853 29.1538 32.3462 28.9035 31.865" fill="#EAF3FB"/>
<path d="M61.2402 351.36L60.0755 350.559C60.499 350.317 60.9074 349.909 61.3309 349.909C61.7544 349.909 62.0418 350.392 62.4048 350.649L61.2402 351.36Z" fill="#EAF3FB"/>
<path d="M70.4058 231.444C70.2545 231.761 70.1487 232.335 69.9672 232.351C69.5215 232.333 69.0819 232.241 68.6665 232.078C68.8026 231.731 68.9235 231.096 69.0748 231.081C69.5335 231.138 69.9816 231.26 70.4058 231.444Z" fill="#EAF3FB"/>
<path d="M46.8869 223.689L45.8735 221.754C46.7236 221.52 47.5952 221.373 48.4749 221.316C48.7774 221.316 49.08 222.056 49.3825 222.449L46.8869 223.689Z" fill="#EAF3FB"/>
<path d="M37.2219 48.5983C36.5564 49.1123 35.9212 50.0041 35.2557 50.0192C34.5902 50.0344 34.1517 49.0064 33.592 48.432C34.0004 48.1297 34.4541 47.5251 34.7717 47.5855C35.6206 47.8394 36.4416 48.1788 37.2219 48.5983Z" fill="#EAF3FB"/>
<path d="M79.4806 42.4005C78.6159 42.7259 77.7254 42.9787 76.8187 43.1563C76.6069 43.1563 76.2893 42.3703 76.0171 41.947C76.8777 41.6285 77.7629 41.3807 78.6639 41.2063C78.8908 41.2063 79.2084 41.9772 79.4806 42.4005Z" fill="#EAF3FB"/>
<path d="M104.119 39.1352C100.761 39.1352 97.4034 39.1353 93.9701 39.2562C93.9701 39.2562 93.7281 39.6038 93.6827 39.6643C96.9043 36.7469 100.307 38.062 103.786 39.4073L104.119 39.1352Z" fill="#EAF3FB"/>
<path d="M48.7621 8.34403C49.11 8.34403 49.6697 8.2231 49.7604 8.34403C49.9402 8.75062 50.0476 9.18543 50.078 9.62891L48.3084 9.55333C48.4597 9.13007 48.6109 8.70681 48.7621 8.31379" fill="#EAF3FB"/>
<path d="M69.6648 0.997671L69.6798 0L70.9352 0.483728L69.6648 0.997671Z" fill="#EAF3FB"/>
</svg>
