<svg width="68" height="259" viewBox="0 0 68 259" fill="none" xmlns="http://www.w3.org/2000/svg">
<path d="M111.298 130.381C104.298 130.503 97.2081 130.523 90.1681 130.776C84.0581 130.998 77.9581 131.463 71.8481 131.787C68.0981 132.009 64.2281 131.787 60.6181 132.596C53.8481 134.184 47.1081 133.223 40.3581 133.233C33.7681 133.233 27.1782 133.233 20.5882 133.142C16.8134 133.096 13.1091 132.102 9.80813 130.25C6.86813 128.602 5.80815 126.205 6.51815 123.172C6.84815 121.655 7.73815 120.138 9.19815 120.33C13.1981 120.866 13.9981 115.931 17.8581 115.8C21.5181 115.668 25.1281 114.04 28.7381 113.029C32.1381 112.089 35.4881 111.007 38.9081 110.137C52.0948 106.766 65.2948 103.433 78.5082 100.136C78.9917 100.038 79.4466 99.8293 79.8383 99.5261C80.23 99.2229 80.548 98.8333 80.7682 98.387C79.7682 98.387 78.6882 98.2859 77.6482 98.296C70.8348 98.3365 64.0182 98.3972 57.1982 98.4781C55.5582 98.4781 53.9182 98.7106 52.2682 98.8218C51.0982 98.9027 49.7681 99.378 48.7881 98.9837C43.4381 96.8399 37.5981 97.8612 32.1781 96.1826C28.7881 95.1714 25.3882 94.2411 22.5182 92.0468C21.5354 91.4249 20.7236 90.5624 20.1581 89.539C19.763 88.4591 19.763 87.2719 20.1581 86.1919C20.3781 85.656 21.7382 85.3526 22.5782 85.3628C25.7382 85.4234 28.8981 85.656 32.0681 85.565C29.0681 84.4527 25.4081 85.565 22.9981 82.4404C24.2481 79.3461 27.1681 78.8608 29.8181 78.072C34.3081 76.7271 39.0981 76.1305 43.2881 74.1789C57.9081 67.3634 73.9182 65.432 89.0182 60.3659C90.3582 59.921 91.7282 59.5771 93.0782 59.1929C98.4382 57.6457 103.698 55.684 109.368 54.956C107.904 54.7948 106.431 54.734 104.958 54.7739C99.3282 55.2795 93.7281 55.9469 88.1081 56.4728C84.5981 56.8064 81.1082 57.0189 77.5782 57.2818C77.1131 57.226 76.6432 57.226 76.1781 57.2818C68.1781 59.9008 59.8781 58.7176 51.7481 59.6277C44.0031 60.3328 36.203 60.1156 28.5082 58.9806C25.6919 58.6289 23.0357 57.4633 20.8581 55.6234C19.9969 54.835 19.297 53.8833 18.7981 52.8223C18.6053 52.4543 18.5021 52.045 18.497 51.6285C18.492 51.212 18.5852 50.8003 18.769 50.4275C18.9528 50.0548 19.222 49.7318 19.554 49.4853C19.886 49.2388 20.2714 49.0758 20.6781 49.0101C23.5247 48.8561 26.3617 48.5558 29.1781 48.1102L23.7181 47.099C23.8681 46.1788 23.7181 45.208 24.1081 44.9754C25.8367 43.8044 27.6638 42.7893 29.5681 41.9418C43.2182 36.1982 56.9082 30.5456 70.5682 24.8323C71.8742 24.2799 73.078 23.5071 74.1282 22.547C67.012 22.7013 59.9252 23.5205 52.9582 24.9941C52.2782 25.1559 51.5082 25.8435 50.9582 25.6716C45.9582 23.9425 40.8081 25.4491 35.7481 25.1357C34.8981 25.1357 34.0881 24.3874 32.7481 23.7605C33.2459 22.9632 33.8331 22.2269 34.4981 21.5662C36.9684 19.7151 39.8613 18.5254 42.9081 18.1078C48.7181 17.2887 54.5481 16.6618 60.3681 15.9135C62.4626 15.6999 64.5428 15.3622 66.5981 14.9023C74.7606 12.6839 83.0934 11.1652 91.5082 10.3621C93.3865 10.2088 95.2174 9.68666 96.8982 8.82501C106.438 3.88024 116.678 1.58483 127.228 0.907324C133.378 0.512956 139.408 1.74665 144.358 6.02402C144.898 6.47537 145.382 6.99147 145.798 7.56101C146.06 8.10255 146.248 8.6774 146.358 9.26994C143.798 12.3035 140.298 13.9215 136.358 14.7709C111.668 20.019 88.0282 28.5636 64.6881 38.0285C59.5181 40.1217 54.5582 42.7508 49.6881 45.0361C49.6881 47.8169 51.7781 46.9574 52.7481 47.7057C53.4581 48.2416 53.6481 49.627 54.3681 49.9303C55.4996 50.2481 56.6796 50.3509 57.8481 50.2337C67.7193 50.4983 77.5972 50.1606 87.4281 49.2225C96.3281 48.3259 105.178 47.1697 113.978 45.7541C117.449 45.3525 120.802 44.2339 123.828 42.4677C129.268 39.0397 146.828 38.9386 152.778 41.6486C154.565 42.5636 156.301 43.5763 157.978 44.6822C157.978 47.7158 156.408 49.0607 154.418 49.9404C152.688 50.6725 150.911 51.284 149.098 51.7707C122.438 59.3952 95.7581 66.9387 69.0981 74.6238C60.3081 77.172 51.6381 80.145 42.7281 82.9865C48.1481 89.6098 48.6481 89.9435 55.5981 90.0649C65.4781 90.2974 75.3481 90.4996 85.2281 90.5401C88.2833 90.4193 91.3306 90.1426 94.3581 89.7109C97.6381 89.3873 100.908 88.8008 104.188 88.7604C110.658 88.6896 116.628 86.738 122.598 84.5336C131.988 81.0045 141.598 79.3866 151.598 81.3584C156.308 82.2786 159.328 83.9572 163.768 88.2245C161.628 92.5827 157.388 93.4018 153.318 94.3523C150.8 94.9465 148.238 95.3354 145.658 95.5152C133.658 96.3343 121.988 99.2364 110.278 101.754C90.7681 105.941 71.2782 110.309 52.0882 115.911C50.7582 116.295 49.4681 116.831 47.7881 117.418L50.5381 119.713L40.1382 121.736C41.5782 124.092 43.5282 122.949 45.1382 123.313C46.7474 123.679 48.389 123.879 50.0381 123.91C53.3281 123.991 56.6281 124.061 59.9081 123.91C72.8181 123.232 85.7282 121.948 98.6382 121.887C106.698 121.887 114.528 120.36 122.488 119.865C124.83 119.655 127.13 119.106 129.318 118.237C135.648 115.962 142.208 115.618 148.808 115.648C153.066 115.628 157.236 116.865 160.808 119.208C162.218 120.128 162.268 120.33 163.458 124.102C160.768 127.338 156.888 128.359 152.988 129.158C138.678 131.929 124.278 134.275 110.048 137.379C90.5481 141.636 70.9882 145.762 51.8982 151.748C45.6582 153.71 39.3781 155.631 33.4081 159.079C36.1781 161.992 40.5981 161.708 42.7281 165.146C43.0781 165.703 44.4682 165.662 45.3882 165.753C50.9982 166.279 56.6081 167.118 62.2281 167.199C77.0481 167.391 91.8782 167.361 106.698 167.199C117.499 167.131 128.268 165.99 138.848 163.791C142.293 162.961 145.878 162.909 149.345 163.64C152.812 164.37 156.078 165.865 158.908 168.018C159.588 168.634 160.21 169.311 160.768 170.041C159.508 173.974 156.328 175.036 153.158 175.784C126.648 182.114 100.158 188.374 73.3081 193.349C64.5481 194.977 55.8881 197.191 46.9281 199.194C47.0281 200.205 47.1182 201.085 47.2582 202.47L42.2582 203.683C44.4182 205.706 46.7982 205.605 49.0682 205.645C58.6982 205.807 68.3281 205.908 77.9681 206.019C90.2007 206.159 102.431 205.585 114.598 204.3C116.461 204.242 118.287 203.758 119.938 202.884C127.108 198.607 135.028 197.889 143.068 198.84C145.54 199.042 147.942 199.763 150.122 200.957C152.302 202.152 154.211 203.793 155.728 205.776C156.022 206.15 156.251 206.57 156.408 207.02C156.508 207.564 156.558 208.116 156.558 208.669C153.158 211.702 148.758 212.541 144.398 213.148C112.066 217.793 79.9985 224.155 48.3282 232.209C41.4458 233.756 34.7178 235.936 28.2281 238.721C26.3481 239.591 24.2981 240.248 22.6781 242.473C24.6781 243.171 26.3382 243.798 28.0182 244.344C29.3582 244.789 30.8682 244.89 32.0182 245.587C39.2682 249.855 47.3181 249.43 55.2281 249.804C66.2812 250.173 77.3463 249.788 88.3481 248.651C96.33 248.084 104.218 246.567 111.848 244.131C116.3 242.508 121.165 242.458 125.648 243.99C128.848 245.092 130.838 247.023 131.388 250.3C129.988 253.212 127.138 253.444 124.808 254.213C120.348 255.669 115.728 256.62 111.218 257.944C108.975 258.677 106.561 258.677 104.318 257.944C100.698 256.741 97.0182 256.751 93.1982 256.933C79.8082 257.712 66.3981 258.49 52.9981 258.602C39.8102 258.872 26.64 257.489 13.7881 254.486C10.4773 253.502 7.26895 252.194 4.20816 250.583C3.24783 250.107 2.3961 249.435 1.70736 248.608C1.01863 247.781 0.508027 246.817 0.208155 245.78C-0.551845 243.525 0.828148 241.624 3.38815 241.603C4.3229 241.709 5.24653 241.899 6.14816 242.17C6.97816 242.261 7.76813 242.362 8.55813 242.473V241.988L5.96811 242.23L3.79812 239.197C5.33288 237.199 7.4951 235.79 9.92813 235.202C15.3181 233.665 20.5081 231.471 26.2781 231.158C30.7462 231.012 35.1425 229.981 39.2181 228.124C40.9535 227.397 42.7603 226.858 44.6081 226.516C54.6548 224.204 64.7148 221.912 74.7881 219.64C80.0281 218.457 85.2881 217.324 90.5381 216.141C91.1581 216 91.7481 215.696 93.8481 214.898C91.0981 214.736 89.8482 214.584 88.6382 214.604C78.0582 214.746 67.4782 214.908 56.8982 215.09C55.0215 215.14 53.1488 215.292 51.2881 215.545C48.5081 215.909 45.8381 216.313 42.9981 215.262C41.0881 214.564 38.8082 214.898 36.7082 214.716C31.0982 214.22 25.4882 213.704 19.8982 213.148C16.6182 212.738 13.498 211.481 10.8382 209.498C9.82697 208.868 9.03387 207.936 8.5682 206.832C8.10254 205.727 7.9872 204.503 8.23812 203.329C8.36812 202.652 8.64816 201.61 9.08816 201.479C12.8282 200.276 14.9381 196.504 19.2381 195.826C28.4881 194.37 37.5981 192.075 46.7781 190.214C60.7781 187.373 74.7781 184.642 88.7781 181.781C94.9881 180.507 101.158 179.04 107.328 177.584C109.66 177.102 111.867 176.135 113.808 174.743C112.808 174.652 111.808 174.5 110.808 174.5C103.998 174.5 97.1781 174.581 90.3581 174.621C89.8931 174.566 89.4232 174.566 88.9582 174.621C80.8182 176.735 72.6182 174.935 64.4482 174.965C56.4482 174.965 48.4482 174.803 40.4482 174.5C33.1489 174.305 25.8925 173.305 18.8081 171.517C15.6581 170.688 12.3881 169.798 10.2381 166.977C9.52506 166.052 8.94282 165.031 8.50814 163.943C7.89814 162.386 8.86814 160.798 10.6881 160.262C11.5813 160.077 12.4874 159.962 13.3982 159.919L11.8481 157.896C14.3865 155.488 17.4184 153.676 20.7281 152.587C34.8989 147.557 49.3344 143.323 63.9681 139.907C73.2981 137.632 82.6682 135.468 92.0682 133.516C94.7882 132.96 97.6882 133.243 100.498 133.233C104.318 133.233 107.988 132.748 111.138 130.311L112.008 129.785L111.288 130.462" fill="#EFEFEF"/>
</svg>
