<svg width="156" height="46" viewBox="0 0 156 46" fill="none" xmlns="http://www.w3.org/2000/svg">
<path d="M51.9804 2.01001C56.4914 3.57563 60.8441 5.5645 64.9804 7.95001C65.4331 8.28948 65.9112 8.59368 66.4104 8.85999C71.6004 10.95 76.7204 13.23 82.0104 14.99C86.3881 16.5778 90.8479 17.9298 95.3704 19.04C98.128 19.7484 100.927 20.2861 103.75 20.65C106.33 20.9 108.75 22.17 111.43 22.18C113.02 22.18 114.6 22.25 116.19 22.26C120.52 22.26 124.78 23.26 129.13 23.09C131.063 23.1451 132.986 23.3897 134.87 23.82C139.37 24.61 143.96 24.7 148.45 25.65C150.582 26.0933 152.49 27.272 153.84 28.98C155.23 30.65 155.12 32.79 155.26 34.8C155.26 35.41 154.79 36.06 154.47 36.8C153.966 36.9788 153.48 37.2065 153.02 37.48C150.7 39.1 148.38 38.7 145.95 37.71C144.267 37.0351 142.527 36.513 140.75 36.15C138.91 35.76 137.05 35.49 135.25 34.94C133.45 34.39 131.49 34.01 129.62 33.58C126.56 32.86 123.34 32.87 120.2 32.41C116.55 31.88 112.84 32.3 109.2 31.74C107.74 31.52 106.27 31.33 104.83 30.99C103.524 30.5525 102.103 30.6023 100.83 31.13C100.05 31.52 99.1204 30.13 98.3904 31.31C97.5035 31.2047 96.6073 31.2047 95.7204 31.31C94.8402 31.4506 93.9392 31.3821 93.0904 31.11C92.416 31.0489 91.7391 31.1954 91.1504 31.53C90.426 31.8772 89.6363 32.0675 88.8332 32.0881C88.0301 32.1088 87.2318 31.9595 86.4904 31.65C85.8504 31.43 85.2304 31.12 84.5704 30.95C82.8104 30.5 81.0004 29.79 79.4404 31.44C77.0804 31.78 75.2704 33.44 72.9904 34.08C72.1304 34.3 71.7604 34.48 71.1804 33.76C70.9604 33.48 70.3704 33.49 69.9404 33.36L69.8204 33.21C69.4004 32.69 68.8904 32.21 69.5604 31.29L71.2904 31.55C72.3604 29.9 74.2204 29.5 76.0804 29.06C76.2604 29.06 76.4204 28.25 76.3304 27.88C76.2404 27.51 75.8504 27.14 75.4604 26.59C73.7904 26.78 72.0104 26.9 70.2604 27.21C66.2604 27.93 62.1704 27.73 58.1104 27.81C57.1104 27.81 56.1104 28 55.0404 28C53.3514 28.123 51.6547 28.0962 49.9704 27.92C48.1597 27.7716 46.3374 27.8624 44.5504 28.19C43.5504 28.28 42.5504 28.67 41.5504 28.74C38.0404 29.02 34.5504 29.19 31.0004 29.45C30.3103 29.4887 29.6329 29.6513 29.0004 29.93C28.0694 30.3319 27.0734 30.5622 26.0604 30.61C21.8696 31.0082 17.7368 31.877 13.7404 33.2C9.88991 34.4518 5.79505 34.7605 1.80041 34.1L0.0404103 31.95C-0.0674351 31.2363 0.0417615 30.5066 0.353826 29.8557C0.66589 29.2048 1.16641 28.6628 1.79041 28.3C2.9296 27.782 4.10223 27.341 5.30041 26.98C7.34962 26.2673 9.43602 25.6664 11.5504 25.18C15.7804 24.32 19.8904 22.83 24.2604 22.75C24.5977 22.7378 24.9328 22.6909 25.2604 22.61C34.2004 20.61 43.3204 20.29 52.4004 19.93C56.961 19.618 61.5427 19.8733 66.0404 20.69C66.2672 20.7447 66.5037 20.7447 66.7304 20.69C69.2504 19.99 71.8904 20.46 75.0204 20.01C74.1566 19.6847 73.3119 19.3108 72.4904 18.89C71.9204 18.54 71.4904 17.99 70.9104 17.61C70.3892 17.1711 69.7729 16.8595 69.1104 16.7C66.5204 16.51 64.6504 14.7 62.3204 13.9C61.6082 13.569 60.937 13.1563 60.3204 12.67C59.3401 11.928 58.2803 11.2974 57.1604 10.79C55.9804 10.39 55.3304 9.13996 53.9004 9.14996C53.5029 9.10264 53.1254 8.94973 52.8071 8.70703C52.4888 8.46433 52.2413 8.14078 52.0904 7.77002C51.5347 6.85985 50.9095 5.99392 50.2204 5.17999L51.0204 3.83002L50.9404 3.89996C51.3404 3.28996 52.1804 2.9 52.0004 2L51.9804 2.01001ZM78.7204 26.34C78.6012 26.4912 78.4942 26.6518 78.4004 26.82C78.4004 26.88 78.4004 27 78.4904 27.09C78.5744 27.0439 78.6518 26.9868 78.7204 26.92C78.8204 26.75 78.8904 26.57 78.9804 26.4L78.7204 26.34Z" fill="#ECF2F8"/>
<path d="M51.8704 41.79C52.3004 41.43 52.9604 41.14 53.1204 40.68C53.7304 38.95 55.1804 38.28 56.6904 37.87C58.2004 37.46 59.0604 35.87 60.8504 36.53C60.8504 36.41 60.8504 36.53 60.8504 36.53C60.8504 36.53 60.8504 36.94 60.7904 37.18L62.4204 37.37C62.4204 37.57 62.4704 37.89 62.4204 37.93C61.7748 38.1532 61.2247 38.59 60.861 39.1682C60.4973 39.7464 60.3419 40.4314 60.4204 41.11C59.5504 41.47 58.6604 41.92 57.7204 42.21C56.8409 42.3451 55.9695 42.5287 55.1104 42.76C54.5004 43.03 54.1104 43.76 53.3704 44.39L51.9404 41.67L51.8604 41.76" fill="#ECF2F8"/>
<path d="M50.6004 44.9599V43.8199L49.1704 44.8199C49.0404 44.6599 48.8004 44.5099 48.8004 44.3499C48.8004 42.8099 50.1804 42.4499 51.0804 41.6799L50.9904 41.6099C51.1904 42.2399 51.3804 42.8799 51.5704 43.5099C51.8504 44.4099 51.2904 44.6999 50.5704 44.8899L50.6004 44.9599Z" fill="#ECF2F8"/>
<path d="M70.0703 36.1001C69.6903 36.2901 69.4303 36.5401 69.2003 36.5101C68.9703 36.4801 68.8803 36.1301 68.7303 35.9201C68.8803 35.8101 69.0603 35.5801 69.1703 35.6101C69.4876 35.7395 69.7895 35.9038 70.0703 36.1001Z" fill="#ECF2F8"/>
<path d="M69.8305 33.2797L69.9505 33.4297L69.5505 34.1797L68.6605 33.4297L68.6005 33.5098L69.7905 33.2397" fill="#ECF2F8"/>
<path d="M68.7004 33.47C68.4264 33.6552 68.1309 33.8063 67.8204 33.92C67.6604 33.92 67.4504 33.76 67.2604 33.67C67.4104 33.52 67.5704 33.23 67.7104 33.25C68.0284 33.3206 68.3372 33.428 68.6304 33.57L68.7004 33.47Z" fill="#ECF2F8"/>
<path d="M65.9504 35.1001C66.0604 35.2201 66.2804 35.3801 66.2504 35.4401C66.2204 35.5001 66.0304 35.7101 65.8904 35.8301C65.7504 35.9501 65.6804 35.6801 65.6904 35.6501C65.7644 35.461 65.8513 35.2773 65.9504 35.1001Z" fill="#ECF2F8"/>
<path d="M51.9504 41.6997L50.9504 41.6197L51.0304 41.6897C51.2304 41.5097 51.4304 41.3497 51.6404 41.1797L51.8204 41.7897L51.9004 41.6997" fill="#ECF2F8"/>
<path d="M51.0003 3.83971C50.7803 3.83971 50.4803 3.74971 50.3403 3.83971C48.6903 5.05971 47.6403 4.22971 46.7303 2.83971C46.7303 1.30971 48.2003 1.31973 49.0503 0.739732C49.9003 0.159732 50.5503 0.859742 51.2203 1.24974C50.4803 2.06974 50.7703 3.01974 50.9203 3.93974L51.0003 3.83971Z" fill="#ECF2F8"/>
<path d="M50.5504 44.8999C50.6104 45.0999 50.6604 45.2999 50.7104 45.4999C50.7104 45.4299 50.7104 45.3599 50.7104 45.2899C50.7104 45.2199 50.7104 45.0899 50.6304 44.9799V44.8999" fill="#ECF2F8"/>
</svg>
