<svg width="210" height="23" viewBox="0 0 210 23" fill="none" xmlns="http://www.w3.org/2000/svg">
<g clip-path="url(#clip0_841_143682)">
<path d="M105.457 7.98366C106.715 7.98366 107.769 8.28019 108.618 8.87324C109.463 9.46039 110.069 10.3194 110.33 11.2996H113.414C112.972 9.5204 112.065 8.12822 110.692 7.123C109.32 6.11778 107.574 5.61665 105.454 5.61961C103.931 5.59189 102.427 5.96277 101.1 6.69378C99.832 7.40565 98.798 8.45555 98.1189 9.72056C97.38 11.1306 97.0129 12.6983 97.0508 14.2819C97.0508 16.0417 97.4069 17.577 98.1189 18.8876C98.7921 20.1573 99.8234 21.2123 101.091 21.9278C102.422 22.6599 103.929 23.0301 105.457 22.9997C107.534 22.9997 109.264 22.4808 110.647 21.443C112.025 20.4153 113.001 18.9579 113.414 17.3131H110.319C110.054 18.3013 109.442 19.1672 108.59 19.7594C107.752 20.3332 106.704 20.6201 105.445 20.6201C103.81 20.6201 102.49 20.0671 101.485 18.961C100.48 17.855 99.9765 16.2893 99.975 14.2641C99.975 12.2581 100.478 10.7073 101.485 9.61159C102.492 8.51593 103.815 7.97328 105.457 7.98366Z" fill="#3975A6"/>
<path d="M179.941 6.66248C178.612 5.95066 177.115 5.59105 175.6 5.61945C174.048 5.58995 172.514 5.95473 171.15 6.67805C169.868 7.37819 168.825 8.42969 168.148 9.7026C167.59 10.7537 167.247 11.9013 167.14 13.0808H165.821V12.805C165.821 10.4699 165.171 8.68331 163.872 7.44531C162.572 6.20732 160.874 5.58831 158.777 5.58831C157.663 5.57636 156.561 5.81852 155.559 6.29552C154.614 6.74191 153.814 7.4346 153.248 8.29707V5.89522H150.383V13.0808H148.055V12.805C148.055 10.4699 147.405 8.68331 146.106 7.44531C144.806 6.20732 143.108 5.58831 141.011 5.58831C139.898 5.57679 138.796 5.81893 137.795 6.29552C136.851 6.74167 136.052 7.43445 135.486 8.29707V5.89522H132.614V13.0808H131.134C131.016 11.8939 130.648 10.7437 130.052 9.7026C129.322 8.42664 128.237 7.37818 126.923 6.67805C125.554 5.98257 124.033 5.61946 122.489 5.61946C120.945 5.61946 119.425 5.98257 118.055 6.67805C116.737 7.38162 115.652 8.43683 114.926 9.7204C114.144 11.1174 113.752 12.6902 113.787 14.2817C113.753 15.8799 114.138 17.4601 114.905 18.8719C115.611 20.156 116.679 21.2156 117.982 21.9254C119.324 22.6495 120.836 23.0197 122.368 22.9996C123.926 23.0181 125.463 22.6484 126.834 21.9254C128.167 21.2161 129.272 20.1579 130.023 18.8697C130.653 17.7906 131.036 16.5911 131.145 15.3536H132.617V22.7238H135.479V13.4188C135.479 11.6575 135.924 10.3164 136.814 9.3957C137.704 8.47499 138.905 8.01464 140.417 8.01464C141.903 8.01464 143.077 8.45943 143.938 9.349C144.798 10.2386 145.228 11.5233 145.227 13.2031V22.7238H148.057V15.3536H150.385V22.7238H153.245V13.4188C153.245 11.6575 153.691 10.3164 154.582 9.3957C155.473 8.47499 156.673 8.01464 158.183 8.01464C159.669 8.01464 160.843 8.45943 161.703 9.349C162.564 10.2386 162.994 11.5233 162.992 13.2031V22.7238H165.823V15.3536H167.135C167.234 16.5834 167.59 17.7802 168.183 18.8697C168.875 20.1496 169.928 21.2098 171.216 21.9254C172.555 22.6538 174.067 23.0243 175.6 22.9996C177.654 22.9996 179.374 22.4932 180.758 21.4806C182.112 20.5086 183.087 19.1169 183.525 17.5331H180.444C180.127 18.4504 179.514 19.2425 178.697 19.7904C177.87 20.3523 176.837 20.634 175.6 20.6355C174.181 20.6681 172.803 20.1683 171.749 19.2389C170.686 18.3078 170.104 17.0127 170.002 15.3536H183.776C183.838 14.7923 183.87 14.2281 183.872 13.6634C183.895 12.2244 183.543 10.8032 182.849 9.53358C182.178 8.32659 181.169 7.33083 179.941 6.66248ZM127.442 17.7266C126.935 18.622 126.177 19.3573 125.256 19.846C124.368 20.3136 123.373 20.556 122.364 20.551C121.376 20.5608 120.401 20.3234 119.533 19.8616C118.652 19.3737 117.939 18.6415 117.483 17.7577C116.969 16.8163 116.711 15.6598 116.711 14.2884C116.711 12.9169 116.971 11.7649 117.49 10.8324C117.96 9.94529 118.687 9.21338 119.581 8.72852C120.466 8.27572 121.451 8.03919 122.45 8.03919C123.45 8.03919 124.434 8.27572 125.32 8.72852C126.225 9.21468 126.967 9.94507 127.458 10.8324C128.002 11.7753 128.274 12.9221 128.276 14.2728C128.277 15.6235 128 16.7747 127.442 17.7266ZM170.03 13.0897C170.181 11.4929 170.764 10.2445 171.776 9.34455C172.784 8.44662 174.107 7.96234 175.47 7.99239C176.422 7.98111 177.364 8.18591 178.221 8.59063C179.035 8.97762 179.717 9.58525 180.187 10.3409C180.687 11.173 180.937 12.1253 180.911 13.0897H170.03Z" fill="#3975A6"/>
<path d="M192.612 7.98366C193.871 7.98366 194.925 8.28019 195.773 8.87324C196.618 9.46107 197.224 10.3198 197.486 11.2996H200.567C200.128 9.5204 199.222 8.12822 197.848 7.123C196.474 6.11778 194.728 5.61665 192.61 5.61961C191.086 5.59189 189.583 5.96277 188.256 6.69378C186.992 7.40731 185.962 8.45706 185.286 9.72056C184.547 11.1306 184.18 12.6984 184.218 14.2819C184.218 16.0417 184.574 17.577 185.286 18.8876C185.959 20.1573 186.99 21.2123 188.258 21.9278C189.585 22.6588 191.089 23.0297 192.612 23.0019C194.686 23.0019 196.416 22.483 197.802 21.4452C199.181 20.4179 200.156 18.9602 200.567 17.3153H197.486C197.221 18.3035 196.609 19.1694 195.757 19.7617C194.919 20.3354 193.871 20.6223 192.612 20.6223C190.977 20.6223 189.656 20.0693 188.65 18.9633C187.643 17.8572 187.14 16.2916 187.142 14.2663C187.142 12.2603 187.644 10.7095 188.65 9.61382C189.655 8.51815 190.976 7.97032 192.612 7.97032" fill="#3975A6"/>
<path d="M210.002 8.19941V5.89541H205.504V1.66992H202.644V5.89541H200.41V8.19941H202.644V18.1182C202.644 19.7491 203.042 20.9263 203.837 21.6498C204.633 22.3733 205.828 22.7314 207.422 22.724H210.002V20.3599H207.896C207.015 20.3599 206.396 20.1909 206.04 19.8529C205.683 19.5148 205.504 18.9366 205.504 18.1182V8.19941H210.002Z" fill="#3975A6"/>
<path d="M94.0879 18.7986C93.3667 17.4731 93.0061 15.9164 93.0061 14.1283C92.9678 12.5276 93.3396 10.9428 94.0879 9.51809C94.772 8.24067 95.8137 7.1794 97.0918 6.45795C97.7748 6.04106 98.5318 5.7529 99.3236 5.6084H82.5233L86.9392 10.5589L88.7087 22.7127H99.3236C98.5365 22.5513 97.7824 22.2635 97.0918 21.861C95.8103 21.1379 94.7678 20.0713 94.0879 18.7875" fill="#3975A6"/>
<path d="M24.3088 6.40327C25.3681 6.95806 26.2327 7.81017 26.7912 8.8496C27.3985 9.93489 27.7021 11.2552 27.7021 12.8104V22.7292H24.8736V13.2041C24.8736 11.5272 24.4493 10.2425 23.6005 9.34999C22.7518 8.45745 21.604 8.01266 20.1571 8.01562C18.6677 8.01562 17.4835 8.48116 16.6044 9.41225C15.7253 10.3433 15.2851 11.6896 15.2835 13.4509V22.7248H12.4527V13.2041C12.4527 11.5272 12.0284 10.2425 11.1797 9.34999C10.331 8.45745 9.18318 8.01266 7.73628 8.01562C6.24687 8.01562 5.06263 8.48116 4.18356 9.41225C3.30449 10.3433 2.86419 11.6896 2.86267 13.4509V22.7248H0V5.8962H2.86267V8.32253C3.41404 7.45347 4.20273 6.75183 5.14006 6.29651C6.12046 5.81901 7.20329 5.57657 8.29879 5.5893C9.64234 5.56352 10.9681 5.89238 12.1362 6.54115C13.254 7.18398 14.1264 8.16551 14.6208 9.33665C15.0769 8.1795 15.9184 7.20582 17.0098 6.57229C18.1296 5.91415 19.4151 5.57374 20.7219 5.5893C21.9673 5.56734 23.1988 5.847 24.3065 6.40327" fill="black"/>
<path d="M45.6593 15.3541H31.8971C32.0018 17.0131 32.5841 18.3082 33.6438 19.2393C34.6968 20.1695 36.0754 20.6695 37.4949 20.6359C38.7323 20.6359 39.7647 20.3542 40.5921 19.7908C41.4096 19.2438 42.0221 18.4513 42.3366 17.5335H45.4202C44.9821 19.1173 44.0066 20.509 42.6532 21.481C41.2685 22.4922 39.5491 22.9985 37.4949 23C35.9615 23.0251 34.4484 22.6546 33.1086 21.9258C31.82 21.2096 30.7669 20.1497 30.0729 18.8701C29.3164 17.4549 28.9381 15.876 28.9729 14.2799C28.9368 12.6913 29.3046 11.1188 30.0433 9.70303C30.7164 8.43074 31.7568 7.37916 33.0358 6.67848C34.4 5.95467 35.9335 5.58986 37.4858 5.61988C38.9966 5.59268 40.4885 5.95228 41.8128 6.66291C43.0426 7.33053 44.0521 8.32642 44.7233 9.53401C45.4167 10.8038 45.7678 12.225 45.7436 13.6639C45.7426 14.2285 45.7115 14.7926 45.6502 15.3541H45.6593ZM42.0656 10.3324C41.5962 9.57678 40.9139 8.96916 40.1002 8.58217C39.2471 8.17945 38.3103 7.97471 37.3628 7.98393C35.9986 7.95422 34.675 8.43841 33.6666 9.33609C32.6509 10.2375 32.0694 11.4859 31.9221 13.0812H42.8035C42.83 12.1168 42.5791 11.1645 42.0793 10.3324" fill="black"/>
<path d="M52.1841 6.38468C53.2292 5.82509 54.4088 5.54938 55.6001 5.58628V8.4774H54.8463C51.6382 8.4774 50.0342 10.1765 50.0342 13.5747V22.7262H47.1693V5.89541H50.0296V8.62864C50.5067 7.69041 51.256 6.91001 52.1841 6.38468Z" fill="black"/>
<path d="M56.5384 9.72127C57.2153 8.45829 58.246 7.40931 59.5103 6.69672C60.8385 5.96563 62.3427 5.59475 63.867 5.62255C65.9834 5.62255 67.7294 6.12368 69.105 7.12594C70.4805 8.12819 71.3869 9.52037 71.8242 11.3025H68.7406C68.4775 10.3226 67.8707 9.4639 67.0257 8.87618C66.1755 8.28313 65.1226 7.9866 63.867 7.9866C62.2318 7.9866 60.9109 8.53443 59.9043 9.6301C58.8977 10.7258 58.3944 12.2766 58.3944 14.2826C58.3944 16.3078 58.8977 17.8735 59.9043 18.9795C60.9109 20.0856 62.2318 20.6386 63.867 20.6386C65.1241 20.6386 66.1717 20.3517 67.0098 19.7779C67.8625 19.1858 68.4751 18.3199 68.7406 17.3316H71.8219C71.4095 18.9764 70.4331 20.4338 69.0549 21.4615C67.6702 22.4993 65.9409 23.0182 63.867 23.0182C62.3427 23.046 60.8385 22.6751 59.5103 21.9441C58.2428 21.2285 57.2115 20.1736 56.5384 18.9039C55.8263 17.5933 55.4703 16.058 55.4703 14.2981C55.4296 12.7094 55.7968 11.136 56.5384 9.72127Z" fill="black"/>
<path d="M85.3428 6.40273C86.4004 6.95519 87.2613 7.80827 87.8114 8.84906C88.4081 9.93435 88.7072 11.2546 88.7087 12.8099V22.7287H85.8711V13.2035C85.8711 11.5267 85.4414 10.242 84.5821 9.34945C83.7228 8.45691 82.5484 8.01212 81.059 8.01509C79.5498 8.01509 78.3497 8.47543 77.4585 9.39615C76.5672 10.3169 76.1216 11.6579 76.1216 13.4193V22.7242H73.2681V0H76.1285V8.29085C76.7021 7.42237 77.5141 6.72882 78.4719 6.28931C79.5185 5.80664 80.6646 5.5647 81.8219 5.58209C83.0464 5.56471 84.2562 5.84438 85.3428 6.39605" fill="black"/>
</g>
<defs>
<clipPath id="clip0_841_143682">
<rect width="210" height="23" fill="white"/>
</clipPath>
</defs>
</svg>
