<svg width="184" height="21" viewBox="0 0 184 21" fill="none" xmlns="http://www.w3.org/2000/svg">
<g clip-path="url(#clip0_841_143328)">
<path d="M92.4001 7.28969C93.5029 7.28969 94.4261 7.56043 95.1697 8.10191C95.9102 8.63801 96.4414 9.42232 96.6703 10.3172H99.3721C98.985 8.69279 98.1902 7.42167 96.9876 6.50386C95.785 5.58605 94.2552 5.1285 92.3981 5.1312C91.0631 5.10589 89.7458 5.44452 88.5829 6.11197C87.4719 6.76193 86.5658 7.72054 85.9708 8.87555C85.3234 10.163 85.0017 11.5944 85.035 13.0402C85.035 14.6471 85.3469 16.0488 85.9708 17.2455C86.5606 18.4048 87.4643 19.368 88.5749 20.0213C89.741 20.6898 91.062 21.0277 92.4001 21C94.2199 21 95.7358 20.5262 96.9477 19.5786C98.1552 18.6403 99.0108 17.3096 99.3721 15.8079H96.6603C96.4285 16.7101 95.8924 17.5007 95.1458 18.0415C94.4115 18.5654 93.4929 18.8273 92.3901 18.8273C90.9574 18.8273 89.8007 18.3224 88.9201 17.3125C88.0394 16.3026 87.5984 14.8731 87.5971 13.024C87.5971 11.1924 88.0381 9.77644 88.9201 8.77605C89.8021 7.77567 90.9621 7.28021 92.4001 7.28969Z" fill="white"/>
<path d="M157.662 6.08369C156.498 5.43376 155.187 5.10543 153.859 5.13135C152.499 5.10442 151.156 5.43748 149.96 6.0979C148.837 6.73716 147.923 7.69722 147.33 8.85945C146.841 9.81914 146.54 10.8669 146.446 11.9439H145.291V11.6921C145.291 9.55999 144.721 7.92879 143.583 6.79845C142.444 5.6681 140.956 5.10292 139.119 5.10292C138.143 5.09201 137.177 5.31311 136.299 5.74864C135.472 6.15621 134.771 6.78866 134.274 7.57614V5.38314H131.764V11.9439H129.724V11.6921C129.724 9.55999 129.155 7.92879 128.016 6.79845C126.878 5.6681 125.39 5.10292 123.553 5.10292C122.577 5.0924 121.612 5.31349 120.735 5.74864C119.908 6.15599 119.207 6.78853 118.712 7.57614V5.38314H116.195V11.9439H114.898C114.795 10.8602 114.472 9.81001 113.951 8.85945C113.311 7.69444 112.36 6.73716 111.209 6.0979C110.009 5.4629 108.676 5.13137 107.324 5.13137C105.971 5.13137 104.639 5.4629 103.439 6.0979C102.284 6.74029 101.333 7.70375 100.697 8.8757C100.012 10.1512 99.6682 11.5872 99.6993 13.0404C99.6691 14.4996 100.006 15.9424 100.679 17.2314C101.297 18.4038 102.233 19.3714 103.375 20.0194C104.55 20.6805 105.875 21.0185 107.218 21.0001C108.583 21.017 109.93 20.6795 111.131 20.0194C112.299 19.3718 113.267 18.4056 113.925 17.2294C114.477 16.2442 114.812 15.1489 114.908 14.0191H116.197V20.7483H118.706V12.2525C118.706 10.6443 119.096 9.41988 119.875 8.57923C120.655 7.73858 121.707 7.31827 123.032 7.31827C124.334 7.31827 125.362 7.72438 126.117 8.5366C126.871 9.34882 127.247 10.5218 127.246 12.0555V20.7483H129.726V14.0191H131.766V20.7483H134.272V12.2525C134.272 10.6443 134.662 9.41988 135.443 8.57923C136.224 7.73858 137.276 7.31827 138.598 7.31827C139.9 7.31827 140.929 7.72438 141.683 8.5366C142.437 9.34882 142.814 10.5218 142.812 12.0555V20.7483H145.293V14.0191H146.442C146.529 15.1419 146.841 16.2347 147.36 17.2294C147.967 18.398 148.889 19.366 150.018 20.0194C151.191 20.6844 152.516 21.0227 153.859 21.0001C155.659 21.0001 157.166 20.5379 158.379 19.6133C159.565 18.7258 160.419 17.4551 160.803 16.009H158.103C157.826 16.8465 157.289 17.5698 156.573 18.0701C155.848 18.5831 154.943 18.8403 153.859 18.8417C152.616 18.8714 151.408 18.4151 150.485 17.5665C149.554 16.7163 149.044 15.5339 148.954 14.0191H161.023C161.077 13.5065 161.105 12.9914 161.107 12.4759C161.127 11.162 160.819 9.8643 160.211 8.70513C159.623 7.60309 158.739 6.69392 157.662 6.08369ZM111.664 16.1857C111.22 17.0033 110.555 17.6746 109.748 18.1208C108.97 18.5477 108.098 18.769 107.214 18.7645C106.348 18.7734 105.494 18.5567 104.734 18.135C103.962 17.6895 103.337 17.0211 102.938 16.2141C102.487 15.3545 102.261 14.2986 102.261 13.0465C102.261 11.7943 102.489 10.7425 102.944 9.89098C103.355 9.08103 103.992 8.41277 104.776 7.97007C105.551 7.55664 106.414 7.34069 107.29 7.34069C108.166 7.34069 109.028 7.55664 109.804 7.97007C110.597 8.41395 111.248 9.08084 111.678 9.89098C112.154 10.7519 112.393 11.799 112.394 13.0322C112.396 14.2655 112.152 15.3166 111.664 16.1857ZM148.978 11.952C149.111 10.4941 149.622 9.35423 150.509 8.53253C151.391 7.71268 152.551 7.27051 153.745 7.29795C154.58 7.28766 155.405 7.47464 156.156 7.84417C156.869 8.19751 157.467 8.7523 157.878 9.44222C158.316 10.202 158.536 11.0715 158.512 11.952H148.978Z" fill="white"/>
<path d="M168.765 7.28969C169.868 7.28969 170.791 7.56043 171.535 8.10191C172.274 8.63862 172.805 9.42269 173.035 10.3172H175.735C175.351 8.69279 174.556 7.42167 173.352 6.50386C172.149 5.58605 170.619 5.1285 168.763 5.1312C167.428 5.10589 166.111 5.44452 164.948 6.11197C163.84 6.76345 162.938 7.72191 162.346 8.87555C161.698 10.163 161.377 11.5944 161.41 13.0402C161.41 14.6471 161.722 16.0488 162.346 17.2455C162.935 18.4048 163.839 19.368 164.95 20.0213C166.113 20.6887 167.43 21.0273 168.765 21.002C170.582 21.002 172.098 20.5282 173.313 19.5806C174.52 18.6427 175.375 17.3118 175.735 15.8099H173.035C172.803 16.7121 172.267 17.5028 171.521 18.0435C170.786 18.5674 169.868 18.8293 168.765 18.8293C167.332 18.8293 166.175 18.3244 165.293 17.3145C164.411 16.3047 163.971 14.8752 163.972 13.026C163.972 11.1944 164.412 9.77847 165.293 8.77809C166.174 7.7777 167.331 7.2775 168.765 7.2775" fill="white"/>
<path d="M184.002 7.48661V5.38296H180.061V1.5249H177.555V5.38296H175.597V7.48661H177.555V16.5429C177.555 18.032 177.903 19.1068 178.6 19.7674C179.297 20.428 180.344 20.7549 181.741 20.7482H184.002V18.5897H182.156C181.385 18.5897 180.843 18.4354 180.53 18.1267C180.217 17.8181 180.061 17.2901 180.061 16.5429V7.48661H184.002Z" fill="white"/>
<path d="M82.4389 17.1643C81.807 15.9541 81.4911 14.5327 81.4911 12.9001C81.4575 11.4386 81.7833 9.99166 82.4389 8.69081C83.0383 7.52447 83.9511 6.55548 85.0709 5.89677C85.6694 5.51613 86.3327 5.25303 87.0264 5.12109H72.3062L76.1753 9.64111L77.7257 20.7381H87.0264C86.3368 20.5907 85.676 20.3279 85.0709 19.9604C83.948 19.3002 83.0347 18.3263 82.4389 17.1542" fill="white"/>
<path d="M21.2991 5.84604C22.2273 6.35259 22.9849 7.1306 23.4742 8.07965C24.0063 9.07056 24.2723 10.276 24.2723 11.6961V20.7523H21.794V12.0555C21.794 10.5244 21.4222 9.35145 20.6786 8.53652C19.9349 7.72159 18.9293 7.31548 17.6615 7.31819C16.3565 7.31819 15.3189 7.74325 14.5486 8.59337C13.7784 9.4435 13.3926 10.6727 13.3913 12.2809V20.7483H10.911V12.0555C10.911 10.5244 10.5392 9.35145 9.79553 8.53652C9.0519 7.72159 8.04621 7.31548 6.77845 7.31819C5.47345 7.31819 4.43583 7.74325 3.66559 8.59337C2.89536 9.4435 2.50958 10.6727 2.50825 12.2809V20.7483H0V5.38306H2.50825V7.59841C2.99135 6.80492 3.68239 6.16429 4.50367 5.74856C5.36269 5.31258 6.31146 5.09123 7.27132 5.10285C8.44852 5.07931 9.61014 5.37957 10.6336 5.97193C11.613 6.55886 12.3774 7.45504 12.8106 8.52434C13.2102 7.46781 13.9475 6.57881 14.9038 6.00036C15.885 5.39945 17.0113 5.08865 18.1564 5.10285C19.2475 5.0828 20.3266 5.33814 21.2972 5.84604" fill="#353535"/>
<path d="M40.0063 14.0187H27.9479C28.0397 15.5335 28.5499 16.716 29.4784 17.5661C30.401 18.4154 31.6089 18.8719 32.8527 18.8413C33.9368 18.8413 34.8414 18.5841 35.5664 18.0697C36.2827 17.5702 36.8193 16.8466 37.0949 16.0086H39.7967C39.4129 17.4547 38.5581 18.7254 37.3723 19.6129C36.1591 20.5361 34.6525 20.9984 32.8527 20.9998C31.5091 21.0227 30.1834 20.6844 29.0095 20.019C27.8803 19.3651 26.9577 18.3973 26.3496 17.229C25.6868 15.9368 25.3552 14.4952 25.3858 13.0379C25.3542 11.5875 25.6764 10.1517 26.3236 8.85905C26.9134 7.6974 27.825 6.73726 28.9456 6.09751C30.1409 5.43664 31.4846 5.10355 32.8447 5.13096C34.1685 5.10612 35.4756 5.43446 36.636 6.08329C37.7135 6.69286 38.5981 7.60215 39.1861 8.70473C39.7937 9.86409 40.1013 11.1617 40.0801 12.4755C40.0793 12.991 40.052 13.5061 39.9983 14.0187H40.0063ZM36.8575 9.4337C36.4462 8.74379 35.8484 8.189 35.1354 7.83566C34.388 7.46796 33.5671 7.28103 32.7369 7.28944C31.5416 7.26231 30.3819 7.7044 29.4984 8.52402C28.6084 9.34707 28.0989 10.4869 27.9699 11.9435H37.504C37.5272 11.063 37.3074 10.1935 36.8695 9.4337" fill="#353535"/>
<path d="M45.7232 5.82962C46.6389 5.31869 47.6725 5.06696 48.7163 5.10064V7.74037H48.0558C45.2449 7.74037 43.8395 9.29172 43.8395 12.3944V20.7501H41.3293V5.38289H43.8355V7.87845C44.2535 7.02181 44.91 6.30927 45.7232 5.82962Z" fill="#353535"/>
<path d="M49.5384 8.87548C50.1315 7.72232 51.0346 6.76456 52.1424 6.11393C53.3061 5.44641 54.624 5.10778 55.9596 5.13316C57.8141 5.13316 59.3439 5.59072 60.5491 6.50582C61.7544 7.42093 62.5485 8.69205 62.9317 10.3192H60.2299C59.9994 9.42449 59.4676 8.64049 58.7273 8.10387C57.9823 7.56239 57.0598 7.29165 55.9596 7.29165C54.5269 7.29165 53.3696 7.79184 52.4876 8.79223C51.6056 9.79262 51.1646 11.2086 51.1646 13.0401C51.1646 14.8893 51.6056 16.3188 52.4876 17.3287C53.3696 18.3385 54.5269 18.8435 55.9596 18.8435C57.0611 18.8435 57.979 18.5815 58.7133 18.0576C59.4605 17.517 59.9972 16.7264 60.2299 15.824H62.9297C62.5684 17.3258 61.7128 18.6565 60.5052 19.5948C59.292 20.5424 57.7768 21.0162 55.9596 21.0162C54.624 21.0415 53.3061 20.7029 52.1424 20.0354C51.0318 19.3821 50.1282 18.4189 49.5384 17.2596C48.9145 16.063 48.6025 14.6612 48.6025 13.0544C48.5669 11.6038 48.8886 10.1671 49.5384 8.87548Z" fill="#353535"/>
<path d="M74.7765 5.84597C75.7032 6.35039 76.4575 7.12929 76.9395 8.07958C77.4623 9.07049 77.7244 10.276 77.7257 11.696V20.7523H75.2394V12.0554C75.2394 10.5244 74.863 9.35139 74.11 8.53646C73.3571 7.72153 72.3281 7.31542 71.0231 7.31812C69.7008 7.31812 68.6492 7.73844 67.8684 8.57909C67.0875 9.41974 66.697 10.6442 66.697 12.2524V20.7482H64.1968V0H66.703V7.56991C67.2056 6.77695 67.9171 6.1437 68.7563 5.74241C69.6734 5.30171 70.6775 5.08082 71.6916 5.09669C72.7645 5.08082 73.8245 5.33618 74.7765 5.83987" fill="#353535"/>
</g>
<defs>
<clipPath id="clip0_841_143328">
<rect width="184" height="21" fill="white"/>
</clipPath>
</defs>
</svg>
