<svg width="156" height="46" viewBox="0 0 156 46" fill="none" xmlns="http://www.w3.org/2000/svg">
<path d="M103.28 2.01001C98.7691 3.57563 94.4164 5.5645 90.2801 7.95001C89.8274 8.28948 89.3493 8.59368 88.8501 8.85999C83.6601 10.95 78.5401 13.23 73.2501 14.99C68.8724 16.5778 64.4126 17.9298 59.8901 19.04C57.1325 19.7484 54.3339 20.2861 51.5101 20.65C48.9301 20.9 46.5101 22.17 43.8301 22.18C42.2401 22.18 40.6601 22.25 39.0701 22.26C34.7401 22.26 30.4801 23.26 26.1301 23.09C24.1975 23.1451 22.275 23.3897 20.3901 23.82C15.8901 24.61 11.3001 24.7 6.81009 25.65C4.67841 26.0933 2.77048 27.272 1.42009 28.98C0.0300897 30.65 0.140076 32.79 7.62939e-05 34.8C7.62939e-05 35.41 0.470085 36.06 0.790085 36.8C1.29445 36.9788 1.78009 37.2065 2.24008 37.48C4.56008 39.1 6.88009 38.7 9.31009 37.71C10.9931 37.0351 12.7335 36.513 14.5101 36.15C16.3501 35.76 18.2101 35.49 20.0101 34.94C21.8101 34.39 23.7701 34.01 25.6401 33.58C28.7001 32.86 31.9201 32.87 35.0601 32.41C38.7101 31.88 42.4201 32.3 46.0601 31.74C47.5201 31.52 48.9901 31.33 50.4301 30.99C51.7366 30.5525 53.1573 30.6023 54.4301 31.13C55.2101 31.52 56.1401 30.13 56.8701 31.31C57.757 31.2047 58.6532 31.2047 59.5401 31.31C60.4203 31.4506 61.3213 31.3821 62.1701 31.11C62.8445 31.0489 63.5214 31.1954 64.1101 31.53C64.8345 31.8772 65.6242 32.0675 66.4273 32.0881C67.2304 32.1088 68.0287 31.9595 68.7701 31.65C69.4101 31.43 70.0301 31.12 70.6901 30.95C72.4501 30.5 74.2601 29.79 75.8201 31.44C78.1801 31.78 79.9901 33.44 82.2701 34.08C83.1301 34.3 83.5001 34.48 84.0801 33.76C84.3001 33.48 84.8901 33.49 85.3201 33.36L85.4401 33.21C85.8601 32.69 86.3701 32.21 85.7001 31.29L83.9701 31.55C82.9001 29.9 81.0401 29.5 79.1801 29.06C79.0001 29.06 78.8401 28.25 78.9301 27.88C79.0201 27.51 79.4101 27.14 79.8001 26.59C81.4701 26.78 83.2501 26.9 85.0001 27.21C89.0001 27.93 93.0901 27.73 97.1501 27.81C98.1501 27.81 99.1501 28 100.22 28C101.909 28.123 103.606 28.0962 105.29 27.92C107.101 27.7716 108.923 27.8624 110.71 28.19C111.71 28.28 112.71 28.67 113.71 28.74C117.22 29.02 120.71 29.19 124.26 29.45C124.95 29.4887 125.628 29.6513 126.26 29.93C127.191 30.3319 128.187 30.5622 129.2 30.61C133.391 31.0082 137.524 31.877 141.52 33.2C145.371 34.4518 149.465 34.7605 153.46 34.1L155.22 31.95C155.328 31.2363 155.219 30.5066 154.907 29.8557C154.595 29.2048 154.094 28.6628 153.47 28.3C152.331 27.782 151.158 27.341 149.96 26.98C147.911 26.2673 145.824 25.6664 143.71 25.18C139.48 24.32 135.37 22.83 131 22.75C130.663 22.7378 130.328 22.6909 130 22.61C121.06 20.61 111.94 20.29 102.86 19.93C98.2995 19.618 93.7178 19.8733 89.2201 20.69C88.9934 20.7447 88.7568 20.7447 88.5301 20.69C86.0101 19.99 83.3701 20.46 80.2401 20.01C81.1039 19.6847 81.9486 19.3108 82.7701 18.89C83.3401 18.54 83.7701 17.99 84.3501 17.61C84.8713 17.1711 85.4876 16.8595 86.1501 16.7C88.7401 16.51 90.6101 14.7 92.9401 13.9C93.6523 13.569 94.3235 13.1563 94.9401 12.67C95.9204 11.928 96.9802 11.2974 98.1001 10.79C99.2801 10.39 99.9301 9.13996 101.36 9.14996C101.758 9.10265 102.135 8.94973 102.453 8.70703C102.772 8.46433 103.019 8.14078 103.17 7.77002C103.726 6.85985 104.351 5.99392 105.04 5.17999L104.24 3.83002L104.32 3.89996C103.92 3.28996 103.08 2.9 103.26 2L103.28 2.01001ZM76.5401 26.34C76.6593 26.4912 76.7663 26.6518 76.8601 26.82C76.8601 26.88 76.8601 27 76.7701 27.09C76.6861 27.0439 76.6087 26.9868 76.5401 26.92C76.4401 26.75 76.3701 26.57 76.2801 26.4L76.5401 26.34" fill="#ECF2F8"/>
<path d="M103.39 41.79C102.96 41.43 102.3 41.14 102.14 40.68C101.53 38.95 100.08 38.28 98.5701 37.87C97.0601 37.46 96.2001 35.87 94.4101 36.53C94.4101 36.41 94.4101 36.53 94.4101 36.53C94.4101 36.53 94.4101 36.94 94.4701 37.18L92.8401 37.37C92.8401 37.57 92.7901 37.89 92.8401 37.93C93.4857 38.1532 94.0358 38.59 94.3995 39.1682C94.7632 39.7464 94.9186 40.4314 94.8401 41.11C95.7101 41.47 96.6001 41.92 97.5401 42.21C98.4196 42.3451 99.291 42.5287 100.15 42.76C100.76 43.03 101.15 43.76 101.89 44.39L103.32 41.67L103.4 41.76" fill="#ECF2F8"/>
<path d="M104.66 44.9599V43.8199L106.09 44.8199C106.22 44.6599 106.46 44.5099 106.46 44.3499C106.46 42.8099 105.08 42.4499 104.18 41.6799L104.27 41.6099C104.07 42.2399 103.88 42.8799 103.69 43.5099C103.41 44.4099 103.97 44.6999 104.69 44.8899L104.66 44.9599Z" fill="#ECF2F8"/>
<path d="M85.1902 36.1001C85.5702 36.2901 85.8302 36.5401 86.0602 36.5101C86.2902 36.4801 86.3802 36.1301 86.5302 35.9201C86.3802 35.8101 86.2001 35.5801 86.0901 35.6101C85.7729 35.7395 85.471 35.9038 85.1902 36.1001" fill="#ECF2F8"/>
<path d="M85.43 33.2797L85.31 33.4297L85.71 34.1797L86.6 33.4297L86.66 33.5098L85.47 33.2397" fill="#ECF2F8"/>
<path d="M86.5601 33.47C86.8341 33.6552 87.1296 33.8063 87.4401 33.92C87.6001 33.92 87.8101 33.76 88.0001 33.67C87.8501 33.52 87.6901 33.23 87.5501 33.25C87.2321 33.3206 86.9233 33.428 86.6301 33.57L86.5601 33.47" fill="#ECF2F8"/>
<path d="M89.3101 35.1001C89.2001 35.2201 88.9801 35.3801 89.0101 35.4401C89.0401 35.5001 89.2301 35.7101 89.3701 35.8301C89.5101 35.9501 89.5801 35.6801 89.5701 35.6501C89.4961 35.461 89.4092 35.2773 89.3101 35.1001" fill="#ECF2F8"/>
<path d="M103.31 41.6997L104.31 41.6197L104.23 41.6897C104.03 41.5097 103.83 41.3497 103.62 41.1797L103.44 41.7897L103.36 41.6997" fill="#ECF2F8"/>
<path d="M104.26 3.83971C104.48 3.83971 104.78 3.74971 104.92 3.83971C106.57 5.05971 107.62 4.22971 108.53 2.83971C108.53 1.30971 107.06 1.31973 106.21 0.739732C105.36 0.159732 104.71 0.859742 104.04 1.24974C104.78 2.06974 104.49 3.01974 104.34 3.93974L104.26 3.83971Z" fill="#ECF2F8"/>
<path d="M104.71 44.8999C104.65 45.0999 104.6 45.2999 104.55 45.4999C104.55 45.4299 104.55 45.3599 104.55 45.2899C104.55 45.2199 104.55 45.0899 104.63 44.9799V44.8999" fill="#ECF2F8"/>
</svg>
