<svg width="14" height="21" viewBox="0 0 14 21" fill="none" xmlns="http://www.w3.org/2000/svg">
<path d="M13.5 13.6216C13.5 17.4456 10.5654 20.5 7 20.5C3.43463 20.5 0.5 17.4456 0.5 13.6216C0.5 12.7156 0.89787 11.4375 1.55022 9.97817C2.19474 8.53636 3.05825 6.98052 3.92794 5.54129C4.79663 4.10371 5.66612 2.79129 6.31884 1.83777C6.58818 1.44431 6.82035 1.11234 7 0.85834C7.17965 1.11234 7.41182 1.44431 7.68116 1.83777C8.33388 2.79129 9.20337 4.10371 10.0721 5.54129C10.9418 6.98052 11.8053 8.53636 12.4498 9.97817C13.1021 11.4375 13.5 12.7156 13.5 13.6216Z" stroke="#3975A6"/>
</svg>