<svg width="122" height="122" viewBox="0 0 122 122" fill="none" xmlns="http://www.w3.org/2000/svg">
<path d="M120.837 29.6671L61.9402 0.22182C61.6483 0.0759428 61.3264 0 61 0C60.6736 0 60.3517 0.0759428 60.0598 0.22182L1.16324 29.6671C0.813576 29.8418 0.519517 30.1105 0.314054 30.443C0.10859 30.7755 -0.0001508 31.1586 3.13486e-05 31.5495V90.44C-0.00211212 90.8326 0.105704 91.218 0.311277 91.5526C0.51685 91.8871 0.811971 92.1574 1.16324 92.3329L60.0598 121.778C60.3517 121.924 60.6736 122 61 122C61.3264 122 61.6483 121.924 61.9402 121.778L120.837 92.3329C121.188 92.1574 121.483 91.8871 121.689 91.5526C121.894 91.218 122.002 90.8326 122 90.44V31.5495C122 31.1586 121.891 30.7755 121.686 30.443C121.48 30.1105 121.186 29.8418 120.837 29.6671ZM61 58.6433L44.5574 50.4218L97.1141 22.5056L115.204 31.5495L61 58.6433ZM27.7298 42.0089L80.2865 14.0926L92.4865 20.192L39.9361 48.1124L27.7298 42.0089ZM25.2414 45.4687L37.8621 51.7784V68.5369L33.0389 63.7142C32.6445 63.3198 32.1096 63.0981 31.5517 63.098H25.2414V45.4687ZM61 4.45563L75.6652 11.7791L23.1085 39.6995L6.80679 31.5495L61 4.45563ZM4.20693 34.9525L21.0345 43.3654V65.2012C21.0345 65.759 21.2561 66.294 21.6506 66.6884C22.0451 67.0828 22.5801 67.3044 23.138 67.3044H30.6809L38.4784 75.1011C38.7726 75.3952 39.1473 75.5954 39.5553 75.6765C39.9633 75.7577 40.3861 75.716 40.7704 75.5568C41.1547 75.3977 41.4832 75.1282 41.7143 74.7824C41.9455 74.4366 42.0689 74.0301 42.069 73.6141V53.8816L58.8966 62.2945V116.482L4.20693 89.1402V34.9525ZM63.1034 116.482V62.2945L117.793 34.9525V89.1402L63.1034 116.482Z" fill="white"/>
</svg>
