<svg width="28" height="28" viewBox="0 0 28 28" fill="none" xmlns="http://www.w3.org/2000/svg">
<circle cx="14" cy="14" r="13.75" fill="white" stroke="#353535" stroke-width="0.5"/>
<path d="M17.2024 16.783C16.8303 16.411 16.1815 16.4103 15.8094 16.783L14.6206 17.971C14.5145 18.077 14.3339 18.0963 14.2138 18.0136C12.5549 16.8657 11.1306 15.4423 9.98168 13.7837C9.89701 13.661 9.91501 13.4863 10.0243 13.377L11.2132 12.189C11.3993 12.003 11.5019 11.7557 11.5019 11.493C11.5019 11.2297 11.3993 10.9823 11.2132 10.797L9.37022 8.95501C8.99749 8.58435 8.34937 8.58366 7.97729 8.95501L7.05577 9.87635C6.8884 10.0437 6.73571 10.229 6.60369 10.4277C5.88289 11.5043 5.80088 12.9457 6.39365 14.0977C7.06112 15.395 8.05397 16.7783 9.18953 17.9917C10.1471 19.0143 11.2273 19.9197 12.3995 20.6817L12.5642 20.789C13.4337 21.357 14.4185 22.0003 15.5594 22.0003C15.5601 22.0003 15.5794 22.0003 15.5801 22.0003C16.5262 21.9937 17.4531 21.607 18.1225 20.9377L19.0447 20.017C19.4281 19.633 19.4281 19.0084 19.0447 18.6244L17.2024 16.783ZM18.5733 19.5457L17.6518 20.4663C17.1057 21.0123 16.3489 21.3283 15.5761 21.3337L15.5601 21.667V21.3337C14.6179 21.3337 13.7597 20.773 12.9296 20.231L12.7635 20.1224C11.636 19.3897 10.5971 18.5197 9.67693 17.5364C8.58207 16.367 7.6272 15.0377 6.98707 13.793C6.50298 12.8524 6.56965 11.677 7.15776 10.7977C7.26644 10.6357 7.39046 10.4843 7.52718 10.3477L8.4487 9.42704C8.50871 9.36704 8.58872 9.33369 8.67408 9.33369C8.75944 9.33369 8.83946 9.36704 8.89878 9.42704L10.7418 11.269C10.8018 11.329 10.8352 11.4084 10.8352 11.4937C10.8352 11.579 10.8018 11.6583 10.7418 11.7183L9.55291 12.9063C9.2135 13.2457 9.16349 13.7743 9.43289 14.1637C10.6278 15.8883 12.1081 17.3683 13.8337 18.5623C13.9964 18.675 14.1878 18.7343 14.3872 18.7343C14.6499 18.7343 14.9066 18.6277 15.092 18.4423L16.2809 17.2543C16.4015 17.1337 16.6103 17.1337 16.7309 17.2543L18.5733 19.0957C18.6973 19.2197 18.6973 19.4217 18.5733 19.5457Z" fill="#3975A6"/>
<path d="M15.3321 6C15.148 6 14.9987 6.14934 14.9987 6.33334C14.9987 6.51734 15.148 6.66669 15.3321 6.66669C18.6407 6.66669 21.3332 9.35868 21.3332 12.6667C21.3332 12.8507 21.4826 13 21.6666 13C21.8507 13 22 12.8507 22 12.6667C22 8.99065 19.0088 6 15.3321 6Z" fill="#3975A6"/>
<path d="M15.3321 8C15.148 8 14.9987 8.14934 14.9987 8.33334C14.9987 8.51734 15.148 8.66669 15.3321 8.66669C17.5385 8.66669 19.3328 10.4607 19.3328 12.6667C19.3328 12.8507 19.4822 13 19.6662 13C19.8503 13 19.9996 12.8507 19.9996 12.6667C19.9996 10.0933 17.9059 8 15.3321 8Z" fill="#3975A6"/>
<path d="M17.3324 12.6667C17.3324 12.8506 17.4818 13 17.6658 13C17.8499 13 17.9992 12.8506 17.9992 12.6667C17.9992 11.196 16.803 10 15.3321 10C15.148 10 14.9987 10.1493 14.9987 10.3333C14.9987 10.5173 15.148 10.6667 15.3321 10.6667C16.4349 10.6667 17.3324 11.564 17.3324 12.6667Z" fill="#3975A6"/>
</svg>
