<svg width="132" height="99" viewBox="0 0 132 99" fill="none" xmlns="http://www.w3.org/2000/svg">
<path d="M132 48.8936V78.8781C132 82.1688 129.34 84.8457 126.07 84.8457H123.341C122.325 92.8175 115.544 99 107.351 99C99.1578 99 92.3771 92.8177 91.3608 84.8457H49.1636C48.1473 92.8175 41.3665 99 33.1735 99C24.9805 99 18.1998 92.8177 17.1835 84.8457H7.21875C3.23838 84.8457 0 81.5866 0 77.581V7.26499C0 3.25913 3.23838 0 7.21875 0H79.6079C83.5882 0 86.8266 3.25913 86.8266 7.26499V16.6529H113.257C116.825 16.6529 119.858 18.588 121.172 21.7031L131.4 45.9386C131.809 46.9105 132 47.8493 132 48.8936ZM119.974 29.485H96.4412V44.1766H126.174L119.974 29.485ZM7.21875 80.6946H17.1837C18.2003 72.7228 24.9807 66.5405 33.1738 66.5405C41.3668 66.5405 48.1473 72.7228 49.1638 80.6946H82.7014V7.26499C82.7014 5.54812 81.3135 4.15142 79.6076 4.15142H7.21875C5.5128 4.15142 4.125 5.54812 4.125 7.26499V77.5812C4.125 79.2979 5.5128 80.6946 7.21875 80.6946ZM45.1752 82.7703C45.1752 76.1104 39.7913 70.692 33.1738 70.692C26.5562 70.692 21.1723 76.1104 21.1723 82.7703C21.1723 89.4304 26.5562 94.8488 33.1738 94.8488C39.7913 94.8488 45.1752 89.4304 45.1752 82.7703ZM119.352 82.7703C119.352 76.1104 113.968 70.692 107.351 70.692C100.733 70.692 95.3494 76.1104 95.3494 82.7703C95.3494 89.4304 100.733 94.8488 107.351 94.8488C113.968 94.8486 119.352 89.4304 119.352 82.7703ZM127.875 78.8783V65.9619H124.702C123.563 65.9619 122.639 65.0325 122.639 63.8862C122.639 62.7399 123.563 61.8105 124.702 61.8105H127.875V48.8939C127.875 48.6915 127.857 48.5081 127.828 48.3283H94.3787C93.2397 48.3283 92.3162 47.3989 92.3162 46.2525V27.4092C92.3162 26.2629 93.2397 25.3335 94.3787 25.3335H118.222L117.375 23.3261C116.719 21.7706 115.141 20.8043 113.257 20.8043H86.8264V80.6946H91.3608C92.3773 72.7228 99.1578 66.5405 107.351 66.5405C115.544 66.5405 122.324 72.7228 123.341 80.6946H126.07C127.065 80.6946 127.875 79.8796 127.875 78.8783ZM114.933 82.7703C114.933 86.9777 111.531 90.4006 107.351 90.4006C103.17 90.4006 99.7693 86.9777 99.7693 82.7703C99.7693 78.5631 103.17 75.1402 107.351 75.1402C111.531 75.14 114.933 78.5631 114.933 82.7703ZM110.808 82.7703C110.808 80.8521 109.257 79.2916 107.351 79.2916C105.445 79.2916 103.894 80.8523 103.894 82.7703C103.894 84.6887 105.445 86.2492 107.351 86.2492C109.257 86.2492 110.808 84.6885 110.808 82.7703ZM40.7555 82.7703C40.7555 86.9777 37.3545 90.4006 33.1738 90.4006C28.9933 90.4006 25.5923 86.9777 25.5923 82.7703C25.5923 78.5631 28.9933 75.1402 33.1738 75.1402C37.3542 75.14 40.7555 78.5631 40.7555 82.7703ZM36.6305 82.7703C36.6305 80.8521 35.0798 79.2916 33.1738 79.2916C31.2678 79.2916 29.7173 80.8523 29.7173 82.7703C29.7173 84.6887 31.268 86.2492 33.1738 86.2492C35.0798 86.2492 36.6305 84.6885 36.6305 82.7703Z" fill="white"/>
</svg>
