<svg width="28" height="28" viewBox="0 0 28 28" fill="none" xmlns="http://www.w3.org/2000/svg">
<circle cx="14" cy="14" r="13.75" fill="white" stroke="#353535" stroke-width="0.5"/>
<path d="M14 6C9.58888 6 6 9.58888 6 14C6 18.4111 9.58888 22 14 22C18.4111 22 22 18.4111 22 14C22 9.58888 18.4111 6 14 6ZM14 21.3043C9.97216 21.3043 6.69564 18.0278 6.69564 14C6.69564 9.97216 9.97216 6.69564 14 6.69564C18.0278 6.69564 21.3043 9.97216 21.3043 14C21.3043 18.0278 18.0278 21.3043 14 21.3043Z" fill="#3975A6"/>
<path d="M17.3767 16.8848L14.3478 13.8559V8.43475C14.3478 8.24275 14.192 8.08691 14 8.08691C13.808 8.08691 13.6522 8.24275 13.6522 8.43475V14C13.6522 14.0925 13.689 14.1809 13.7537 14.2462L16.8842 17.3767C16.9524 17.4441 17.0414 17.4782 17.1304 17.4782C17.2195 17.4782 17.3085 17.4442 17.3767 17.3767C17.5123 17.241 17.5123 17.0205 17.3767 16.8848Z" fill="#3975A6"/>
</svg>
