<svg width="36" height="36" viewBox="0 0 36 36" xmlns="http://www.w3.org/2000/svg">
<path d="M28.2128 32.9748H7.78717C7.65124 32.9748 7.52088 32.9206 7.42477 32.8243C7.32865 32.7279 7.27466 32.5973 7.27466 32.461V14.3009C7.27466 14.1646 7.32865 14.0339 7.42477 13.9376C7.52088 13.8412 7.65124 13.7871 7.78717 13.7871C7.9231 13.7871 8.05346 13.8412 8.14957 13.9376C8.24569 14.0339 8.29968 14.1646 8.29968 14.3009V31.9472H27.7003V14.3009C27.7003 14.1646 27.7543 14.0339 27.8504 13.9376C27.9466 13.8412 28.0769 13.7871 28.2128 13.7871C28.3488 13.7871 28.4791 13.8412 28.5752 13.9376C28.6714 14.0339 28.7254 14.1646 28.7254 14.3009V32.461C28.7254 32.5973 28.6714 32.7279 28.5752 32.8243C28.4791 32.9206 28.3488 32.9748 28.2128 32.9748Z"/>
<path d="M34.1785 14.8149H28.2129C28.0769 14.8149 27.9466 14.7608 27.8505 14.6644C27.7544 14.5681 27.7004 14.4374 27.7004 14.3011C27.7004 14.1648 27.7544 14.0342 27.8505 13.9378C27.9466 13.8415 28.0769 13.7873 28.2129 13.7873H33.748L34.8412 7.58342L23.5382 4.08971C21.7967 4.87502 19.9089 5.28108 17.9993 5.28108C16.0897 5.28108 14.2018 4.87502 12.4603 4.08971L1.15734 7.58342L2.25104 13.7873H7.78617C7.9221 13.7873 8.05246 13.8415 8.14857 13.9378C8.24469 14.0342 8.29868 14.1648 8.29868 14.3011C8.29868 14.4374 8.24469 14.5681 8.14857 14.6644C8.05246 14.7608 7.9221 14.8149 7.78617 14.8149H1.82155C1.70116 14.8148 1.58463 14.7722 1.49242 14.6946C1.40021 14.617 1.33819 14.5094 1.31724 14.3905L0.0702964 7.31368C0.0486123 7.19047 0.0725197 7.06357 0.137533 6.95677C0.202547 6.84997 0.304199 6.77063 0.423417 6.73362L12.3409 3.0493C12.4591 3.01251 12.5866 3.02018 12.6996 3.07088C14.3595 3.84598 16.1684 4.24762 17.9995 4.24762C19.8306 4.24762 21.6396 3.84598 23.2994 3.07088C23.4124 3.02018 23.5399 3.01251 23.6582 3.0493L35.5756 6.73517C35.6948 6.77217 35.7965 6.85152 35.8615 6.95831C35.9265 7.06511 35.9504 7.19201 35.9287 7.31522L34.6833 14.39C34.6625 14.509 34.6004 14.6169 34.5081 14.6946C34.4158 14.7723 34.2991 14.8149 34.1785 14.8149Z"/>
<path d="M18.0001 9.05616C16.4978 9.06077 15.0479 8.50296 13.9343 7.49198C12.8208 6.481 12.1239 5.08969 11.9801 3.59056C11.9665 3.45498 12.0072 3.31953 12.0932 3.21403C12.1793 3.10852 12.3036 3.04159 12.4388 3.02797C12.5741 3.01434 12.7092 3.05513 12.8144 3.14137C12.9197 3.2276 12.9864 3.35222 13 3.4878C13.1226 4.73206 13.7024 5.88615 14.6267 6.72567C15.551 7.5652 16.7536 8.03016 18.0008 8.03016C19.2481 8.03016 20.4507 7.5652 21.375 6.72567C22.2993 5.88615 22.8791 4.73206 23.0017 3.4878C23.0153 3.35222 23.082 3.2276 23.1873 3.14137C23.2925 3.05513 23.4276 3.01434 23.5629 3.02797C23.6981 3.04159 23.8224 3.10852 23.9085 3.21403C23.9945 3.31953 24.0352 3.45498 24.0216 3.59056C23.8777 5.08991 23.1805 6.48137 22.0667 7.49236C20.9529 8.50336 19.5026 9.06104 18.0001 9.05616Z"/>
</svg>