<svg width="24" height="24" viewBox="0 0 24 24" fill="none" xmlns="http://www.w3.org/2000/svg">
<path d="M22.6679 23.5H17.07V15.21H19.7C19.9513 15.21 20.1636 15.0234 20.1959 14.7742L20.6659 11.1442C20.6843 11.0016 20.6405 10.8579 20.5456 10.7499C20.4506 10.6419 20.3138 10.58 20.17 10.58H17.07V8.77C17.07 8.2661 17.1459 7.98053 17.2867 7.8127C17.4111 7.66455 17.6821 7.5 18.37 7.5H20.28C20.5561 7.5 20.78 7.27614 20.78 7V3.77C20.78 3.5226 20.5991 3.3124 20.3544 3.27557C19.3873 3.12999 18.4259 3.12999 17.5071 3.13H17.49C15.999 3.13 14.6944 3.58488 13.7611 4.50678C12.8263 5.43021 12.32 6.76688 12.32 8.42V10.59H9.7C9.42386 10.59 9.2 10.8139 9.2 11.09V14.72C9.2 14.9961 9.42386 15.22 9.7 15.22H12.32V23.5H1.33212C1.11209 23.4979 0.901619 23.4096 0.745993 23.254C0.59038 23.0984 0.502066 22.8879 0.5 22.6679V1.33207C0.502066 1.11206 0.59038 0.901607 0.745993 0.745993C0.901607 0.59038 1.11206 0.502066 1.33207 0.5H22.6679C22.8879 0.502066 23.0984 0.59038 23.254 0.745993C23.4096 0.901619 23.4979 1.11209 23.5 1.33212V22.6679C23.4979 22.8879 23.4096 23.0984 23.254 23.254C23.0984 23.4096 22.8879 23.4979 22.6679 23.5Z" stroke="white" stroke-linejoin="round"/>
</svg>
