<svg width="60" height="19" viewBox="0 0 60 19" fill="none" xmlns="http://www.w3.org/2000/svg">
<g clip-path="url(#clip0_577_338647)">
<path d="M29.9237 7.19138V9.79412H35.0754V12.38H29.9237V16.4379H26.6223V4.60385H35.7757V7.19138H29.9237Z" fill="#131112"/>
<path d="M40.5603 7.25898H36.9756V4.60385H47.4293V7.25898H43.8614V16.4379H40.5603V7.25898Z" fill="#131112"/>
<path d="M56.1986 16.4379L53.7811 12.7687L51.3969 16.4379H47.6288L51.8804 10.4533L47.8123 4.60385H51.5302L53.8646 8.01952L56.1653 4.60385H59.7333L55.665 10.318L60 16.4379H56.1986Z" fill="#131112"/>
<path d="M6.12758 19H11.1083V13.9517H6.12758V19Z" fill="#84D6D7"/>
<path d="M15.5273 6.97332H6.12758V12.0233H15.5273H17.2367V6.97502H15.5273V6.97332Z" fill="#33BBC7"/>
<path d="M6.12758 3.57628e-05V5.04834H21.5566V3.57628e-05H6.12758Z" fill="#11A9BC"/>
<path d="M0 12.0233H4.97908V6.97332H0V12.0233Z" fill="#33BBC7"/>
</g>
<defs>
<clipPath id="clip0_577_338647">
<rect width="60" height="19" fill="white"/>
</clipPath>
</defs>
</svg>
