<svg width="134" height="134" viewBox="0 0 134 134" fill="none" xmlns="http://www.w3.org/2000/svg">
<g clip-path="url(#clip0_545_330504)">
<path d="M58.6752 30.3794C59.3753 30.3794 60.0352 30.0489 60.4535 29.4875C60.8729 28.9262 61.0029 28.2012 60.8035 27.5294C59.2127 22.097 56.4635 17.0742 52.7433 12.8089C49.7458 9.61966 45.2844 8.25425 41.0159 9.21979C40.4263 9.44519 39.9615 9.91117 39.736 10.5007C39.6136 10.8323 39.5226 11.1747 39.4651 11.5237C39.3969 11.9376 39.36 12.3559 39.3535 12.7753V12.811C39.3806 16.3503 40.8067 19.7357 43.3219 22.227C47.5872 25.944 52.6067 28.6921 58.0359 30.2819C58.2439 30.3436 58.4585 30.3772 58.6752 30.3794ZM46.4688 19.0844C45.5878 18.2023 44.8965 17.1479 44.4359 15.9883V15.9667C44.3384 15.7207 44.2538 15.4736 44.1812 15.2363C44.1433 15.1073 44.1162 14.986 44.0837 14.8592C44.0501 14.7324 44.0209 14.637 43.9992 14.5265C43.9764 14.4149 43.9721 14.3704 43.9569 14.2913C43.8919 13.9597 43.8464 13.6249 43.8215 13.2879C46.0105 13.4537 48.0662 14.3986 49.618 15.9515C51.8243 18.4461 53.6026 21.2885 54.8802 24.3651C51.8005 23.0831 48.9537 21.2983 46.458 19.0844H46.4688Z" fill="white"/>
<path d="M126.786 31.9107H92.5286C94.0099 30.8985 95.4014 29.7596 96.6855 28.508C104.624 20.5452 104.884 8.47213 99.813 3.40059C94.7414 -1.67095 82.6727 -1.41521 74.7012 6.53237C71.4416 10.0803 68.7931 14.144 66.8642 18.5589C64.9353 14.1408 62.2846 10.0749 59.0217 6.52587C51.059 -1.41304 38.987 -1.67312 33.9144 3.39842C28.8406 8.46996 29.1029 20.543 37.0429 28.508C38.3281 29.7596 39.7195 30.8985 41.1998 31.9107H6.942C5.71637 31.9107 4.72266 32.9044 4.72266 34.13V56.3234C4.72266 57.549 5.71637 58.5428 6.942 58.5428H11.3807V122.904C11.3883 129.029 16.3525 133.993 22.4774 134H111.251C117.377 133.993 122.341 129.029 122.348 122.904V58.5428H126.786C128.012 58.5428 129.006 57.549 129.006 56.3234V34.13C129.006 32.9044 128.012 31.9107 126.786 31.9107ZM77.8417 9.66849C84.2201 3.30956 93.5234 3.38325 96.6768 6.53671C99.8303 9.69017 99.9062 18.9891 93.5472 25.3697C90.6354 28.0615 87.3107 30.2689 83.7 31.9107H70.4381C70.4381 31.8641 70.4381 31.8131 70.4381 31.7665C70.4381 31.2605 70.4002 30.7479 70.3514 30.2321C70.333 30.0619 70.3135 29.8929 70.294 29.7195C70.2431 29.2936 70.1802 28.8688 70.1043 28.4462C70.0805 28.2977 70.0556 28.1482 70.0296 28.0019C69.9234 27.4492 69.8074 26.9052 69.6741 26.3797C69.6568 26.3038 69.6362 26.2377 69.6189 26.1575C69.5007 25.698 69.3794 25.27 69.2548 24.8268C69.2374 24.7661 69.2212 24.7 69.2038 24.6393C71.0222 19.1083 73.9633 14.0107 77.8417 9.66849ZM75.7416 54.1041H57.9868V36.3493H75.7416V54.1041ZM40.1833 25.3718C33.8233 18.9912 33.8981 9.69233 37.0526 6.53671C40.2061 3.38108 49.505 3.30739 55.8813 9.66199C59.919 14.1852 62.9457 19.519 64.7586 25.3057C65.009 26.0849 65.2019 26.8326 65.3839 27.5587C65.4348 27.7667 65.4771 27.9683 65.5215 28.1731C65.6418 28.7149 65.7383 29.2319 65.8109 29.7271C65.8347 29.8951 65.8661 30.0684 65.8857 30.2321C65.9561 30.7858 65.994 31.3439 65.9994 31.902H50.0284C46.4198 30.2635 43.0962 28.0593 40.1833 25.3718ZM9.16134 36.3493H53.5482V54.1041H9.16134V36.3493ZM15.8194 122.904V58.5428H57.9868V129.562H22.4774C18.8005 129.562 15.8194 126.581 15.8194 122.904ZM62.4255 129.562V58.5428H71.3029V129.562H62.4255ZM117.909 122.904C117.909 126.581 114.929 129.562 111.251 129.562H75.7416V58.5428H117.909V122.904ZM124.567 54.1041H80.1802V36.3493H124.567V54.1041Z" fill="white"/>
<path d="M75.0476 30.3859C75.2611 30.3859 75.4735 30.3555 75.6783 30.2948C81.114 28.7062 86.1389 25.9526 90.4031 22.2248C93.5609 19.2046 94.922 14.7616 93.9987 10.4909C93.7755 9.90356 93.3106 9.43975 92.7232 9.21543C88.4525 8.29215 84.0095 9.65323 80.9893 12.811C77.2626 17.0752 74.509 22.1002 72.9193 27.5358C72.721 28.2077 72.8499 28.9338 73.2693 29.494C73.6887 30.0553 74.3476 30.3859 75.0476 30.3859ZM84.1276 15.9493C85.6816 14.3975 87.7395 13.4536 89.9285 13.2857C89.7627 15.4758 88.8177 17.5347 87.2659 19.0887C84.7691 21.3102 81.918 23.0982 78.8318 24.3802C80.1148 21.2939 81.905 18.445 84.1276 15.9493Z" fill="white"/>
</g>
<defs>
<clipPath id="clip0_545_330504">
<rect width="134" height="134" fill="white"/>
</clipPath>
</defs>
</svg>