<svg width="36" height="36" viewBox="0 0 36 36" xmlns="http://www.w3.org/2000/svg">
<path d="M23.59 9.76084C23.7406 7.69681 20.3876 7.36462 20.1465 9.46851C18.0503 9.75199 14.5079 10.6511 12.5881 13.4814C10.7889 16.139 10.3154 19.7134 10.2207 20.6037C8.06428 22.2071 6.16176 23.4118 5.3009 24.2578C5.01457 24.541 4.96737 24.995 5.18898 25.3341C5.30525 25.5188 5.48814 25.6482 5.69728 25.6939C5.90643 25.7396 6.12465 25.6978 6.30381 25.5777C6.40711 25.5069 7.3928 24.9133 9.94096 25.2854C14.5251 25.9542 13.5265 28.3859 18.4334 27.9429C22.6947 27.5443 25.2644 24.3995 25.9186 23.5137C26.7322 23.5536 27.5285 23.6067 28.3291 23.713C28.8728 23.8419 29.4432 23.773 29.9432 23.5181C30.3776 23.2272 30.6717 22.7604 30.7524 22.2336C30.9062 21.375 30.9711 20.502 30.9461 19.6292C30.9375 14.5799 28.1698 11.2668 23.59 9.76084ZM15.0201 20.5727C15.2783 18.327 16.5137 11.3332 21.765 10.2481C25.7594 12.5646 23.8181 20.4354 23.2586 22.4152C19.9959 21.928 16.7375 20.9049 15.0201 20.5727ZM22.7248 9.49952C22.1863 9.32523 21.6149 9.28724 21.059 9.38879C21.2958 8.71997 22.6043 8.82184 22.7248 9.51281V9.49952ZM13.3156 13.9908C14.637 12.0331 16.9097 11.0941 18.7778 10.6423C15.3343 13.1979 14.4003 18.4732 14.1678 20.4619C13.1698 20.3185 12.1598 20.2843 11.1548 20.3601C11.3011 19.1332 11.8306 16.1788 13.3156 13.9908ZM18.3559 27.0527C13.8106 27.4956 14.9125 25.1082 10.0615 24.3951C7.93515 24.0851 6.73854 24.3951 6.18759 24.6387C7.11732 23.837 8.92514 22.6766 10.8147 21.2725C14.8307 20.6524 19.4966 23.1416 24.8512 23.4871C23.2086 25.4863 20.8843 26.7622 18.3559 27.0527ZM29.9087 22.0432C29.7323 22.9025 29.2932 22.9689 28.441 22.8537C26.56 22.6013 25.5312 22.681 24.1366 22.526C25.1266 18.9826 25.8584 13.5744 23.6244 10.7087C26.7149 11.8027 29.0479 13.8092 29.8184 17.14C30.1502 18.7537 30.1809 20.4177 29.9087 22.0432Z"/>
</svg>
