<svg width="36" height="36" viewBox="0 0 36 36" xmlns="http://www.w3.org/2000/svg">
<path d="M28.4725 6.26044L26.7238 5.75419C26.5461 4.97437 26.0973 4.27632 25.4517 3.7755C24.806 3.27468 24.0021 3.00109 23.1731 3H13.8269C12.9979 3.00109 12.194 3.27468 11.5483 3.7755C10.9027 4.27632 10.4539 4.97437 10.2762 5.75419L8.52746 6.26044C7.51864 6.50497 6.62359 7.0671 5.98448 7.85753C5.34538 8.64795 4.99887 9.62136 5 10.6231V29.5C4.99995 29.7109 5.04618 29.9194 5.13566 30.1118C5.22514 30.3043 5.35586 30.4764 5.51923 30.6168V32.5C5.51923 32.6326 5.57394 32.7598 5.67131 32.8536C5.76869 32.9473 5.90076 33 6.03846 33H9.15385C9.29156 33 9.42362 32.9473 9.521 32.8536C9.61837 32.7598 9.67308 32.6326 9.67308 32.5V30.6168C9.83207 30.48 9.96014 30.3132 10.0493 30.1268C10.1385 29.9403 10.1869 29.7381 10.1915 29.5329C10.4996 29.75 10.855 29.8965 11.2308 29.9613V31.5C11.2308 31.6326 11.2855 31.7598 11.3828 31.8536C11.4802 31.9473 11.6123 32 11.75 32H25.25C25.3877 32 25.5198 31.9473 25.6171 31.8536C25.7145 31.7598 25.7692 31.6326 25.7692 31.5V29.9613C26.145 29.8965 26.5004 29.75 26.8085 29.5329C26.8131 29.7381 26.8615 29.9403 26.9507 30.1268C27.0399 30.3132 27.1679 30.48 27.3269 30.6168V32.5C27.3269 32.6326 27.3816 32.7598 27.479 32.8536C27.5764 32.9473 27.7084 33 27.8462 33H30.9615C31.0992 33 31.2313 32.9473 31.3287 32.8536C31.4261 32.7598 31.4808 32.6326 31.4808 32.5V30.6168C31.6441 30.4764 31.7749 30.3043 31.8643 30.1118C31.9538 29.9194 32.0001 29.7109 32 29.5V10.6231C32.0011 9.62136 31.6546 8.64795 31.0155 7.85753C30.3764 7.0671 29.4814 6.50497 28.4725 6.26044ZM23.4674 4.01594C24.0546 4.08132 24.6011 4.3373 25.017 4.74173C25.4329 5.14616 25.6933 5.67492 25.7555 6.24094L20.0148 9.92631L23.4674 4.01594ZM15.883 6H21.117L18.5 10.4801L15.883 6ZM21.7011 5H15.2989L14.7147 4H22.2853L21.7011 5ZM13.5326 4.01594L16.9855 9.92662L11.2445 6.24125C11.3066 5.67518 11.567 5.14634 11.9829 4.74185C12.3988 4.33736 12.9454 4.08133 13.5326 4.01594ZM8.63462 32H6.55769V31H8.63462V32ZM24.7308 31H12.2692V30H24.7308V31ZM25.3237 29H11.6763C11.2828 28.9996 10.9056 28.8489 10.6274 28.581C10.3492 28.3131 10.1928 27.9499 10.1923 27.571V14C10.1923 13.8674 10.1376 13.7402 10.0402 13.6464C9.94286 13.5527 9.81079 13.5 9.67308 13.5C9.53537 13.5 9.4033 13.5527 9.30593 13.6464C9.20855 13.7402 9.15385 13.8674 9.15385 14V29.5C9.15369 29.6326 9.09894 29.7597 9.0016 29.8534C8.90426 29.9471 8.77228 29.9999 8.63462 30H6.55769C6.42003 29.9999 6.28806 29.9471 6.19071 29.8534C6.09337 29.7597 6.03862 29.6326 6.03846 29.5V10.6231C6.03755 9.84235 6.30816 9.08376 6.80714 8.46834C7.30612 7.85293 8.00473 7.41613 8.79155 7.22762C8.79947 7.22569 8.80733 7.22363 8.81511 7.22137L10.292 6.79388C10.328 6.84176 10.3725 6.88311 10.4235 6.916L16.9423 11.1009V18C16.9423 18.1326 16.997 18.2598 17.0944 18.3536C17.1918 18.4473 17.3238 18.5 17.4615 18.5C17.5992 18.5 17.7313 18.4473 17.8287 18.3536C17.9261 18.2598 17.9808 18.1326 17.9808 18V11.7676L18.212 11.916C18.2973 11.9708 18.3975 12 18.5 12C18.6025 12 18.7027 11.9708 18.788 11.916L19.0192 11.7676V18C19.0192 18.1326 19.0739 18.2598 19.1713 18.3536C19.2687 18.4473 19.4008 18.5 19.5385 18.5C19.6762 18.5 19.8082 18.4473 19.9056 18.3536C20.003 18.2598 20.0577 18.1326 20.0577 18V11.1009L26.5765 6.916C26.6275 6.88311 26.672 6.84176 26.708 6.79388L28.1849 7.22137C28.1927 7.22363 28.2005 7.22569 28.2084 7.22762C28.9953 7.41613 29.6939 7.85293 30.1929 8.46834C30.6918 9.08376 30.9625 9.84235 30.9615 10.6231V29.5C30.9614 29.6326 30.9066 29.7597 30.8093 29.8534C30.7119 29.9471 30.58 29.9999 30.4423 30H28.3654C28.2277 29.9999 28.0957 29.9471 27.9984 29.8534C27.9011 29.7597 27.8463 29.6326 27.8462 29.5V14C27.8462 13.8674 27.7914 13.7402 27.6941 13.6464C27.5967 13.5527 27.4646 13.5 27.3269 13.5C27.1892 13.5 27.0571 13.5527 26.9598 13.6464C26.8624 13.7402 26.8077 13.8674 26.8077 14V27.571C26.8072 27.9499 26.6508 28.3131 26.3726 28.581C26.0944 28.8489 25.7172 28.9996 25.3237 29ZM30.4423 32H28.3654V31H30.4423V32Z" />
</svg>
