<svg width="124" height="124" viewBox="0 0 124 124" fill="none" xmlns="http://www.w3.org/2000/svg">
<path d="M122.9 37.5594L63.0874 0.434409C62.761 0.232 62.3845 0.124756 62.0004 0.124756C61.6164 0.124756 61.2399 0.232 60.9135 0.434409L1.10101 37.5594C0.719738 37.7957 0.425891 38.1498 0.264006 38.5682C0.102121 38.9865 0.0810237 39.4462 0.203913 39.8776C0.326802 40.309 0.586977 40.6885 0.945004 40.9588C1.30303 41.229 1.73939 41.3751 2.18795 41.375H6.31295V121.813C6.31295 122.36 6.53025 122.884 6.91704 123.271C7.30383 123.658 7.82844 123.875 8.37545 123.875H115.625C116.172 123.875 116.697 123.658 117.084 123.271C117.471 122.884 117.688 122.36 117.688 121.813V41.375H121.813C122.262 41.3751 122.698 41.229 123.056 40.9588C123.414 40.6885 123.674 40.309 123.797 39.8776C123.92 39.4462 123.899 38.9865 123.737 38.5682C123.575 38.1498 123.281 37.7957 122.9 37.5594ZM62.0004 4.6151L114.58 37.25H9.42114L62.0004 4.6151ZM105.313 119.75H101.188V97.0625C101.188 96.5155 100.971 95.9909 100.584 95.6041C100.197 95.2173 99.6725 95 99.1254 95H88.8129V72.3125C88.8129 71.7655 88.5957 71.2409 88.2089 70.8541C87.8221 70.4673 87.2975 70.25 86.7504 70.25H37.2504C36.7034 70.25 36.1788 70.4673 35.792 70.8541C35.4052 71.2409 35.1879 71.7655 35.1879 72.3125V95H24.8754C24.3284 95 23.8038 95.2173 23.417 95.6041C23.0302 95.9909 22.8129 96.5155 22.8129 97.0625V119.75H18.6879V59.9375H105.313V119.75ZM64.0629 95V74.375H84.6879V95H64.0629ZM39.3129 95V74.375H59.9379V95H39.3129ZM26.9379 99.125H47.5629V119.75H26.9379V99.125ZM51.6879 99.125H72.3129V119.75H51.6879V99.125ZM76.4379 119.75V99.125H97.0629V119.75H76.4379ZM113.563 119.75H109.438V57.875C109.438 57.328 109.221 56.8034 108.834 56.4166C108.447 56.0298 107.922 55.8125 107.375 55.8125H16.6254C16.0784 55.8125 15.5538 56.0298 15.167 56.4166C14.7802 56.8034 14.5629 57.328 14.5629 57.875V119.75H10.4379V41.375H113.563V119.75Z" fill="white"/>
<path d="M62 14.5625C60.3683 14.5625 58.7733 15.0464 57.4166 15.9529C56.0598 16.8594 55.0024 18.1479 54.378 19.6554C53.7536 21.1629 53.5902 22.8217 53.9085 24.422C54.2269 26.0223 55.0126 27.4923 56.1664 28.6461C57.3202 29.7999 58.7902 30.5856 60.3905 30.904C61.9909 31.2223 63.6497 31.0589 65.1571 30.4345C66.6646 29.8101 67.9531 28.7527 68.8596 27.396C69.7662 26.0392 70.25 24.4442 70.25 22.8125C70.25 20.6245 69.3808 18.526 67.8336 16.9789C66.2865 15.4317 64.188 14.5625 62 14.5625V14.5625ZM62 26.9375C61.1842 26.9375 60.3866 26.6956 59.7083 26.2423C59.0299 25.789 58.5012 25.1448 58.189 24.3911C57.8768 23.6373 57.7951 22.8079 57.9543 22.0078C58.1134 21.2076 58.5063 20.4726 59.0832 19.8957C59.6601 19.3188 60.3951 18.9259 61.1953 18.7668C61.9954 18.6076 62.8248 18.6893 63.5786 19.0015C64.3323 19.3137 64.9766 19.8424 65.4298 20.5208C65.8831 21.1991 66.125 21.9967 66.125 22.8125C66.125 23.9065 65.6904 24.9557 64.9168 25.7293C64.1432 26.5029 63.094 26.9375 62 26.9375Z" fill="white"/>
</svg>
