<svg width="24" height="24" viewBox="0 0 24 24" fill="none" xmlns="http://www.w3.org/2000/svg">
<path fill-rule="evenodd" clip-rule="evenodd" d="M18 0H6C2.68629 0 0 2.68629 0 6V18C0 21.3137 2.68629 24 6 24H18C21.3137 24 24 21.3137 24 18V6C24 2.68629 21.3137 0 18 0ZM12 15.75C14.0711 15.75 15.75 14.0711 15.75 12C15.75 9.92893 14.0711 8.25 12 8.25C9.92893 8.25 8.25 9.92893 8.25 12C8.25 14.0711 9.92893 15.75 12 15.75ZM19.125 6.375C19.125 5.54657 18.4534 4.875 17.625 4.875C16.7966 4.875 16.125 5.54657 16.125 6.375V6.376C16.125 7.20443 16.7966 7.876 17.625 7.876C18.4534 7.876 19.125 7.20443 19.125 6.376V6.375Z" fill="#3975A6"/>
</svg>
