<svg width="26" height="26" viewBox="0 0 26 26" fill="none" xmlns="http://www.w3.org/2000/svg">
<path d="M7 1.5H19V0.5H7V1.5ZM1.5 7C1.5 3.96243 3.96243 1.5 7 1.5V0.5C3.41015 0.5 0.5 3.41015 0.5 7H1.5ZM1.5 19V7H0.5V19H1.5ZM7 24.5C3.96243 24.5 1.5 22.0376 1.5 19H0.5C0.5 22.5899 3.41015 25.5 7 25.5V24.5ZM19 24.5H7V25.5H19V24.5ZM24.5 19C24.5 22.0376 22.0376 24.5 19 24.5V25.5C22.5899 25.5 25.5 22.5899 25.5 19H24.5ZM24.5 7V19H25.5V7H24.5ZM19 1.5C22.0376 1.5 24.5 3.96243 24.5 7H25.5C25.5 3.41015 22.5899 0.5 19 0.5V1.5ZM16.25 13C16.25 14.7949 14.7949 16.25 13 16.25V17.25C15.3472 17.25 17.25 15.3472 17.25 13H16.25ZM13 9.75C14.7949 9.75 16.25 11.2051 16.25 13H17.25C17.25 10.6528 15.3472 8.75 13 8.75V9.75ZM9.75 13C9.75 11.2051 11.2051 9.75 13 9.75V8.75C10.6528 8.75 8.75 10.6528 8.75 13H9.75ZM13 16.25C11.2051 16.25 9.75 14.7949 9.75 13H8.75C8.75 15.3472 10.6528 17.25 13 17.25V16.25ZM18.625 6.375C19.1773 6.375 19.625 6.82272 19.625 7.375H20.625C20.625 6.27043 19.7296 5.375 18.625 5.375V6.375ZM17.625 7.375C17.625 6.82272 18.0727 6.375 18.625 6.375V5.375C17.5204 5.375 16.625 6.27043 16.625 7.375H17.625ZM17.625 7.376V7.375H16.625V7.376H17.625ZM18.625 8.376C18.0727 8.376 17.625 7.92828 17.625 7.376H16.625C16.625 8.48057 17.5204 9.376 18.625 9.376V8.376ZM19.625 7.376C19.625 7.92828 19.1773 8.376 18.625 8.376V9.376C19.7296 9.376 20.625 8.48057 20.625 7.376H19.625ZM19.625 7.375V7.376H20.625V7.375H19.625Z" fill="white"/>
</svg>
