<svg width="28" height="28" viewBox="0 0 28 28" fill="none" xmlns="http://www.w3.org/2000/svg">
<circle cx="14" cy="14" r="13.75" fill="white" stroke="#353535" stroke-width="0.5"/>
<path d="M20.6667 8.04395H7.33334C6.59797 8.04395 6 8.63752 6 9.36749V18.6322C6 19.3621 6.59797 19.9557 7.33334 19.9557H20.6667C21.402 19.9557 22 19.3621 22 18.6322V9.36749C22 8.63752 21.402 8.04395 20.6667 8.04395ZM7.33334 8.7057H20.6667C20.7158 8.7057 20.7591 8.72347 20.8052 8.73352C19.6508 9.78223 15.8232 13.2581 14.4838 14.4561C14.3789 14.5498 14.21 14.6616 14 14.6616C13.7901 14.6616 13.6211 14.5498 13.516 14.4558C12.1766 13.258 8.34878 9.78192 7.19463 8.73359C7.24081 8.72354 7.28419 8.7057 7.33334 8.7057ZM6.66666 18.6322V9.36749C6.66666 9.30265 6.68634 9.24384 6.70397 9.18459C7.58747 9.98727 10.2582 12.4126 11.99 13.9758C10.2638 15.4476 7.59241 17.9617 6.70187 18.8046C6.68616 18.7484 6.66666 18.6933 6.66666 18.6322ZM20.6667 19.294H7.33334C7.28009 19.294 7.23275 19.2755 7.18303 19.2637C8.10325 18.3929 10.7917 15.8644 12.4875 14.4243C12.7085 14.6234 12.9105 14.8049 13.0697 14.9472C13.3444 15.1935 13.666 15.3234 14 15.3234C14.334 15.3234 14.6556 15.1935 14.93 14.9476C15.0893 14.8051 15.2913 14.6235 15.5125 14.4243C17.2084 15.8642 19.8965 18.3926 20.817 19.2637C20.7673 19.2755 20.72 19.294 20.6667 19.294ZM21.3333 18.6322C21.3333 18.6933 21.3138 18.7484 21.2982 18.8046C20.4073 17.9613 17.7362 15.4474 16.0101 13.9758C17.7419 12.4126 20.4122 9.98752 21.296 9.18453C21.3137 9.24378 21.3333 9.30262 21.3333 9.36745V18.6322Z" fill="#3975A6"/>
</svg>
