<svg width="36" height="36" viewBox="0 0 36 36" xmlns="http://www.w3.org/2000/svg">
<path d="M4.73198 30.8662C4.74686 30.9797 4.80274 31.0838 4.88909 31.1589C4.97543 31.234 5.08628 31.275 5.20073 31.274H8.51245V32.5326C8.51245 32.6569 8.56184 32.7761 8.64975 32.864C8.73765 32.9519 8.85688 33.0013 8.9812 33.0013H27.0281C27.1524 33.0013 27.2716 32.9519 27.3595 32.864C27.4474 32.7761 27.4968 32.6569 27.4968 32.5326V31.274H30.8132C30.9277 31.275 31.0385 31.234 31.1249 31.1589C31.2112 31.0838 31.2671 30.9797 31.282 30.8662L33 18.0646C33.0093 17.9987 33.0045 17.9316 32.9859 17.8677L30.4078 9.11149C29.7187 6.90133 28.9546 5.00524 26.5875 4.21539C25.1812 3.74664 23.8874 3.34352 22.7367 3.02008C22.6685 3.00056 22.5969 2.99675 22.527 3.00892C22.4572 3.0211 22.3911 3.04896 22.3335 3.09039C21.3281 3.80992 19.7109 4.24117 18 4.24117C16.289 4.24117 14.6718 3.80992 13.6734 3.09039C13.6159 3.04896 13.5497 3.0211 13.4799 3.00892C13.4101 2.99675 13.3384 3.00056 13.2703 3.02008C12.1195 3.34352 10.8234 3.7443 9.41948 4.21539C7.0523 5.00524 6.2812 6.90133 5.59683 9.11852L3.0187 17.8677C3.00009 17.9316 2.9953 17.9987 3.00464 18.0646L4.73198 30.8662ZM6.49448 9.39039C7.25151 6.96227 7.92183 5.70133 9.71714 5.11071C11.0226 4.66774 12.232 4.29039 13.3125 3.98102C14.4843 4.74508 16.1718 5.17867 18 5.17867C19.8281 5.17867 21.5156 4.74508 22.6875 3.98102C23.7679 4.29039 24.9773 4.66774 26.2828 5.11071C28.0734 5.70836 28.7484 6.9693 29.5031 9.39039L32.0625 18.0388L30.4031 30.3365H27.4968V9.66696C27.4968 9.54264 27.4474 9.42341 27.3595 9.3355C27.2716 9.24759 27.1524 9.19821 27.0281 9.19821C26.9038 9.19821 26.7845 9.24759 26.6966 9.3355C26.6087 9.42341 26.5593 9.54264 26.5593 9.66696V32.0638H9.44995V9.66696C9.44995 9.54264 9.40057 9.42341 9.31266 9.3355C9.22475 9.24759 9.10552 9.19821 8.9812 9.19821C8.85688 9.19821 8.73765 9.24759 8.64975 9.3355C8.56184 9.42341 8.51245 9.54264 8.51245 9.66696V30.3365H5.6062L3.93745 18.0388L6.49448 9.39039Z" />
</svg>
