<svg width="36" height="36" viewBox="0 0 36 36" xmlns="http://www.w3.org/2000/svg">
<path d="M30.8757 15.4175L29.653 8.05118C29.4551 6.85921 28.5695 5.91328 27.3968 5.64152L22.7169 4.55707L21.822 3.20918C21.7472 3.09662 21.6279 3.02191 21.4943 3.0041C21.4738 3.00135 21.4533 3.00047 21.4328 3.00053V3H13.4493V3.00035C13.4288 3.00035 13.4083 3.00129 13.3877 3.0041C13.2542 3.02191 13.1348 3.09668 13.0601 3.20918L12.1652 4.55713L7.48519 5.64164C6.3125 5.91339 5.42697 6.85921 5.22904 8.0513L4.00641 15.4175C3.97023 15.6353 4.08997 15.8489 4.29408 15.9309L8.98977 17.817V32.5303C8.98977 32.7897 9.19919 33 9.45757 33H25.4246C25.6829 33 25.8924 32.7898 25.8924 32.5303V17.817L30.5881 15.9309C30.7921 15.8489 30.9118 15.6352 30.8757 15.4175ZM21.874 4.98105L19.8364 8.25485C19.8343 8.25819 19.8289 8.26675 19.8152 8.26921C19.8014 8.27138 19.7935 8.26522 19.7905 8.26276L18.1698 6.96087L21.3395 4.17592L21.874 4.98105ZM20.1877 3.93943L17.441 6.35285L14.6943 3.93943H20.1877ZM17.9712 8.00442V12.4885C17.9712 12.5058 17.9573 12.5198 17.9401 12.5198H16.9421C16.9249 12.5198 16.911 12.5058 16.911 12.4885V8.00442L17.441 7.57851L17.9712 8.00442ZM13.5427 4.17586L16.7123 6.96081L15.0917 8.2627C15.0887 8.26511 15.0809 8.27126 15.067 8.26915C15.0533 8.26675 15.0479 8.25813 15.0458 8.25485L13.0082 4.98105L13.5427 4.17586ZM8.98977 16.8051L4.9912 15.199L5.14566 14.2687L8.98977 15.8128V16.8051ZM24.9568 32.0605H9.92531V30.9958H24.9567V32.0605H24.9568ZM25.4245 11.5178C25.1662 11.5178 24.9567 11.728 24.9567 11.9875V30.0564H9.92531V11.9874C9.92531 11.728 9.71589 11.5177 9.45751 11.5177C9.19913 11.5177 8.98971 11.7279 8.98971 11.9874V14.8009L5.30309 13.3201L6.15186 8.20569C6.28724 7.39013 6.89321 6.74296 7.69554 6.55693L12.2314 5.50582L14.2523 8.75284C14.3984 8.98751 14.638 9.1487 14.9098 9.19522C14.9637 9.20442 15.0178 9.20899 15.0719 9.20899C15.2899 9.20899 15.5036 9.13487 15.676 8.9963L15.9752 8.75606V12.4885C15.9752 13.0238 16.4089 13.4593 16.942 13.4593H17.9399C18.473 13.4593 18.9066 13.0238 18.9066 12.4885V8.75606L19.2058 8.99636C19.3784 9.13493 19.592 9.20905 19.81 9.20905C19.864 9.20905 19.9181 9.20454 19.9721 9.19528C20.2438 9.14882 20.4834 8.98763 20.6295 8.75284L22.6504 5.50587L27.1864 6.55693C27.9887 6.74296 28.5947 7.39007 28.73 8.20569L29.5789 13.3201L25.8921 14.8009V11.9874C25.8923 11.728 25.6829 11.5178 25.4245 11.5178ZM25.8923 16.8051V15.8128L29.7365 14.2688L29.8909 15.1991L25.8923 16.8051Z" />
</svg>
