<svg width="20" height="21" viewBox="0 0 20 21" fill="none" xmlns="http://www.w3.org/2000/svg">
<path d="M16.5528 16.1556L13.2208 12.7396C14.0775 11.7357 14.5469 10.4726 14.5469 9.15768C14.5469 6.08547 12.0112 3.58594 8.89444 3.58594C5.7777 3.58594 3.24194 6.08547 3.24194 9.15768C3.24194 12.2299 5.7777 14.7294 8.89444 14.7294C10.0645 14.7294 11.1795 14.3816 12.1328 13.7212L15.4902 17.1631C15.6305 17.3067 15.8192 17.3859 16.0215 17.3859C16.2129 17.3859 16.3946 17.314 16.5324 17.1832C16.8254 16.9053 16.8347 16.4446 16.5528 16.1556ZM8.89444 5.03944C11.1982 5.03944 13.0724 6.88683 13.0724 9.15768C13.0724 11.4285 11.1982 13.2759 8.89444 13.2759C6.59068 13.2759 4.71651 11.4285 4.71651 9.15768C4.71651 6.88683 6.59068 5.03944 8.89444 5.03944Z" fill="#353535"/>
</svg>