<svg width="36" height="36" viewBox="0 0 36 36" xmlns="http://www.w3.org/2000/svg">
<path d="M18 6C11.3726 6 6 11.3726 6 18C6 24.6274 11.3726 30 18 30C18.184 30 18.3664 29.9964 18.5484 29.988C18.8436 29.9722 19.1222 29.8466 19.3296 29.636L29.636 19.3296C29.8466 19.1221 29.9721 18.8436 29.988 18.5484C29.9964 18.3664 30 18.184 30 18C29.9925 11.3757 24.6243 6.00749 18 6ZM28.464 19.3704L19.3704 28.464C20.2076 23.8325 23.8325 20.2076 28.464 19.3704ZM27.1552 18.8504C23.1413 20.003 20.0038 23.1411 18.852 27.1552C18.572 27.182 18.2872 27.2 18 27.2C12.919 27.2 8.8 23.081 8.8 18C8.8 12.919 12.919 8.8 18 8.8C23.081 8.8 27.2 12.919 27.2 18C27.2 18.2872 27.182 18.5716 27.1552 18.852V18.8504ZM29.1896 18.4636C28.7825 18.5041 28.3778 18.5658 27.9772 18.6484C27.9916 18.4348 28 18.2176 28 18C28 12.4772 23.5228 8 18 8C12.4772 8 8 12.4772 8 18C8 23.5228 12.4772 28 18 28C18.2176 28 18.4348 27.9916 18.65 27.9772C18.5674 28.3778 18.5057 28.7825 18.4652 29.1896C18.3108 29.1964 18.1564 29.2 18 29.2C11.8144 29.2 6.8 24.1856 6.8 18C6.8 11.8144 11.8144 6.8 18 6.8C24.1856 6.8 29.2 11.8144 29.2 18C29.2 18.1564 29.1964 18.3108 29.1896 18.4652V18.4636Z" />
<path d="M20.6001 12.7998C19.5603 12.8252 18.5948 13.3442 18.0001 14.1974C17.4054 13.3442 16.4398 12.8252 15.4001 12.7998C13.6897 12.7998 12.4001 14.2838 12.4001 16.2522C12.4001 18.3662 13.9837 19.8122 16.3805 21.9998C16.7217 22.311 17.0801 22.6398 17.4537 22.9854C17.7623 23.2702 18.2379 23.2702 18.5465 22.9854C18.9201 22.6398 19.2801 22.311 19.6197 21.9998C22.0165 19.8114 23.6001 18.3662 23.6001 16.2522C23.6001 14.2838 22.3105 12.7998 20.6001 12.7998ZM19.0801 21.409C18.7377 21.7218 18.3777 22.049 17.9981 22.3994C17.6225 22.0502 17.2625 21.7218 16.9201 21.409C14.6001 19.2914 13.2001 18.013 13.2001 16.2522C13.2001 14.7402 14.1457 13.5998 15.4001 13.5998C16.272 13.635 17.0644 14.1167 17.4969 14.8746C17.6125 15.0378 17.8001 15.1347 18.0001 15.1347C18.2001 15.1347 18.3876 15.0378 18.5033 14.8746C18.9358 14.1167 19.7282 13.635 20.6001 13.5998C21.8545 13.5998 22.8001 14.7402 22.8001 16.2522C22.8001 18.013 21.4001 19.2914 19.0801 21.409Z" />
</svg>
