<svg width="36" height="36" viewBox="0 0 36 36" xmlns="http://www.w3.org/2000/svg">
<path d="M3.30375 15.4949L8.5139 16.8285V32.5316C8.5139 32.6559 8.56329 32.7752 8.6512 32.8631C8.7391 32.951 8.85833 33.0004 8.98265 33.0004H27.0295C27.1538 33.0004 27.2731 32.951 27.361 32.8631C27.4489 32.7752 27.4983 32.6559 27.4983 32.5316V16.8285L32.7084 15.4879C32.804 15.438 32.8819 15.36 32.9318 15.2644C32.9816 15.1689 33.001 15.0604 32.9873 14.9535L31.253 8.79645C31.253 8.79645 31.253 8.77301 31.2412 8.76129C30.8589 7.70046 30.2409 6.74015 29.4339 5.95259C28.6269 5.16503 27.6517 4.57074 26.5819 4.21442C25.1756 3.74567 23.8819 3.34254 22.7311 3.0191C22.663 2.99958 22.5913 2.99577 22.5215 3.00795C22.4516 3.02013 22.3855 3.04798 22.328 3.08942C21.3295 3.80895 19.7123 4.2402 18.0014 4.2402C16.2905 4.2402 14.6733 3.80895 13.6748 3.08942C13.6173 3.04798 13.5512 3.02013 13.4814 3.00795C13.4115 2.99577 13.3399 2.99958 13.2717 3.0191C12.1209 3.34254 10.8248 3.74332 9.42093 4.21442C8.35229 4.56953 7.37794 5.16203 6.57098 5.94748C5.76402 6.73292 5.14541 7.69091 4.76156 8.74957C4.76156 8.74957 4.76156 8.77301 4.76156 8.78473L3.02015 14.93C2.99846 15.0423 3.01451 15.1586 3.06581 15.2607C3.11711 15.3629 3.20077 15.4452 3.30375 15.4949ZM5.6475 9.0566C5.98559 8.13492 6.52722 7.30137 7.23209 6.61802C7.93695 5.93466 8.78688 5.41911 9.71859 5.10973C11.0241 4.66676 12.2334 4.28942 13.3139 3.98004C14.4858 4.7441 16.1733 5.1777 18.0014 5.1777C19.8295 5.1777 21.517 4.7441 22.6889 3.98004C23.7694 4.28942 24.9787 4.66676 26.2842 5.10973C27.2167 5.41984 28.067 5.93647 28.772 6.62109C29.4769 7.30571 30.0181 8.14065 30.3553 9.06363L31.9514 14.7191L27.4983 15.8629V9.66598C27.4983 9.54166 27.4489 9.42243 27.361 9.33452C27.2731 9.24661 27.1538 9.19723 27.0295 9.19723C26.9052 9.19723 26.786 9.24661 26.6981 9.33452C26.6102 9.42243 26.5608 9.54166 26.5608 9.66598V32.0629H9.4514V9.66598C9.4514 9.54166 9.40202 9.42243 9.31411 9.33452C9.2262 9.24661 9.10697 9.19723 8.98265 9.19723C8.85833 9.19723 8.7391 9.24661 8.6512 9.33452C8.56329 9.42243 8.5139 9.54166 8.5139 9.66598V15.8675L4.0514 14.7191L5.6475 9.0566Z"/>
</svg>
