<svg width="24" height="12" viewBox="0 0 24 12" fill="none" xmlns="http://www.w3.org/2000/svg">
<path d="M23.8414 5.61738L18.387 0.18973C18.191 -0.0379381 17.8467 -0.0644783 17.6179 0.130539C17.3891 0.32551 17.3624 0.668155 17.5584 0.895823C17.5767 0.917046 17.5966 0.936869 17.6179 0.955014L22.1396 5.45996H0.545428C0.244214 5.45996 0 5.70297 0 6.00275C0 6.30253 0.244214 6.5455 0.545428 6.5455H22.1396L17.6179 11.045C17.3891 11.24 17.3624 11.5826 17.5584 11.8103C17.7544 12.0379 18.0987 12.0645 18.3275 11.8695C18.3488 11.8513 18.3687 11.8315 18.387 11.8103L23.8414 6.38262C24.0529 6.171 24.0529 5.8291 23.8414 5.61738Z" fill="#3975A6"/>
</svg>