<svg  xmlns="http://www.w3.org/2000/svg" width="24" height="24" viewBox="0 0 24 24" fill="none">
  <path
     d="m 22.3268,1.67379 v -4e-5 C 21.5403,0.887034 20.6072,0.5 19.5009,0.5 H 4.50015 C 3.39389,0.5 2.46077,0.887003 1.67383,1.67377 l -6e-5,6e-5 m 20.65303,-4e-5 c 0.7867,0.78676 1.1738,1.71999 1.1738,2.82636 V 19.5007 c 0,1.1063 -0.387,2.0394 -1.1739,2.8263 l -10e-5,10e-5 C 21.5401,23.114 20.607,23.501 19.5007,23.501 H 4.50015 c -1.10627,0 -2.03938,-0.387 -2.82632,-1.1739 M 1.67377,1.67383 C 0.887001,2.46077 0.5,3.39383 0.5,4.50015 V 19.5007 c 0,1.1062 0.387027,2.0394 1.17383,2.8264 M 8.32253,8.57125 C 6.7516497,7.5456486 6.5680107,6.4458956 5.4623187,6.2354812 4.5435265,6.0606341 4.14108,7.57612 4.14108,8.2505 c 0,0.68498 0.14253,1.29865 0.42653,1.8328 -0.11519,-0.0156 -0.23397,0.0092 -0.33483,0.0732 -0.14461,0.0917 -0.23224,0.251 -0.23224,0.4223 V 10.61 c 0,0.9037 0.30514,1.7134 0.9013,2.4109 0.16668,0.195 0.34511,0.3698 0.53501,0.5241 -0.00736,0.0077 -0.0145,0.0156 -0.02141,0.0238 -0.11234,0.1332 -0.14725,0.3153 -0.09214,0.4806 0.2509,0.7525 0.69887,1.3768 1.33441,1.8637 0.28011,0.2149 0.57802,0.3844 0.89234,0.5082 -0.85262,0.4395 -1.77341,0.6577 -2.7682,0.6577 -0.25139,0 -0.4913,-0.0146 -0.71957,-0.043 -0.23214,-0.0288 -0.45325,0.1071 -0.53229,0.3273 -0.07904,0.2201 0.00513,0.4657 0.20261,0.591 1.62118,1.0292 3.39114,1.5467 5.29934,1.5467 1.22036,0 2.37246,-0.1938 3.45166,-0.5851 1.0698,-0.3872 1.9983,-0.9103 2.7785,-1.5731 l 2e-4,-10e-5 c 0.766,-0.6512 1.4256,-1.4014 1.9775,-2.2487 0.5518,-0.8464 0.9639,-1.7351 1.2335,-2.6654 0.2675,-0.923 0.4025,-1.8474 0.4025,-2.77182 0,-0.06379 -5e-4,-0.12435 -0.0018,-0.18126 C 19.482,9.00456 20.722892,7.9750631 20.925191,7.6663043 21.076034,7.4360795 20.025063,7.1764054 19.7303,7.10421 19.8536,6.88207 19.9567,6.64353 20.0393,6.3891 20.1034,6.19176 20.0389,5.97536 19.8773,5.84524 19.7157,5.71513 19.4905,5.69833 19.3114,5.80304 c -0.5493,0.32111 -1.1088,0.54774 -1.6789,0.68289 -0.6986,-0.6557 -1.5589,-0.9858 -2.5537,-0.9858 -1.0388,0 -1.9395,0.3731 -2.6738,1.10755 -0.7345,0.73451 -1.1075,1.63502 -1.1075,2.67404 0,0.06758 0.0012,0.13387 0.0037,0.19875 0,0 -1.227476,0.00781 -2.97867,-0.90922 z" stroke="#FFFFFF" />
</svg>
