<svg width="24" height="24" viewBox="0 0 24 24" fill="none" xmlns="http://www.w3.org/2000/svg">
<path d="M22.6804 1.32024C21.8005 0.440136 20.7404 0 19.5009 0H4.50015C3.26063 0 2.20052 0.440136 1.32025 1.32024C0.440137 2.20052 0 3.26058 0 4.50015V19.5007C0 20.7402 0.440137 21.8003 1.32025 22.6806C2.20052 23.5609 3.26063 24.001 4.50015 24.001H19.5007C20.7402 24.001 21.8003 23.5609 22.6802 22.6806C23.5605 21.8003 24.0006 20.7402 24.0006 19.5007V4.50015C24.0006 3.26058 23.5604 2.20035 22.6804 1.32024ZM18.3601 9.23482C18.3705 9.32857 18.3758 9.46895 18.3758 9.65678C18.3758 10.5319 18.2481 11.4095 17.993 12.2895C17.7379 13.1699 17.3472 14.0137 16.8209 14.821C16.2952 15.6282 15.6675 16.342 14.9384 16.9617C14.2092 17.5813 13.3342 18.0763 12.3132 18.4458C11.2926 18.8159 10.1986 19.001 9.03194 19.001C7.21951 19.001 5.54237 18.511 4.00058 17.5322C4.25059 17.5633 4.51115 17.579 4.78185 17.579C6.29239 17.579 7.65182 17.1103 8.86025 16.1725C8.15199 16.1623 7.51905 15.9437 6.96179 15.5162C6.40436 15.0891 6.01644 14.5475 5.79763 13.8912C6.06838 13.9328 6.27148 13.9534 6.40688 13.9534C6.63604 13.9534 6.90175 13.9119 7.20375 13.8287C6.44333 13.6826 5.80278 13.3054 5.28191 12.696C4.76094 12.0865 4.50054 11.3912 4.50054 10.61V10.5788C5.05249 10.839 5.57335 10.9744 6.06301 10.985C5.11504 10.3494 4.64108 9.43803 4.64108 8.2505C4.64108 7.66708 4.79203 7.11503 5.09413 6.59416C5.917 7.60469 6.91724 8.4119 8.0942 9.01606C9.27127 9.62017 10.5319 9.95889 11.8756 10.0317C11.8236 9.83383 11.7975 9.58372 11.7975 9.28172C11.7975 8.37529 12.1178 7.60196 12.7585 6.96124C13.399 6.32057 14.1726 6.00013 15.0788 6.00013C16.0373 6.00013 16.8344 6.34399 17.4698 7.03156C18.1886 6.89616 18.8868 6.63039 19.5637 6.2347C19.3034 7.0366 18.8187 7.64607 18.1107 8.06278C18.7876 7.96886 19.4176 7.79187 20.0009 7.53146C19.5634 8.19813 19.0163 8.76584 18.3601 9.23482Z" fill="#3975A6"/>
</svg>
