<svg width="166" height="13" viewBox="0 7 166 13" fill="none" xmlns="http://www.w3.org/2000/svg">
<path opacity="0.4" d="M0 7.71729C0.389238 6.83161 0.830275 5.96964 1.32078 5.13582C1.63782 4.7018 2.05152 4.34758 2.52911 4.10125C3.00671 3.85491 3.53508 3.72323 4.07236 3.7166C14.3816 2.66443 24.6053 0.719144 35.0491 1.01277C41.6773 1.19629 48.3301 1.01276 54.9705 0.80477C59.6177 0.694659 64.2648 0.364337 68.9119 0.205288C71.8225 0.0951771 74.7452 0.0951577 77.668 0.0706886C82.5597 0.0706886 87.4515 -0.0883607 92.3432 0.0706886C97.7485 0.193034 103.166 0.547845 108.571 0.768068C110.027 0.768068 111.494 0.633504 112.962 0.670207C118.269 0.817022 123.577 0.951605 128.86 1.20853C132.529 1.37981 136.197 1.89366 139.939 1.96707C145.271 2.07718 150.457 3.33733 155.74 3.7166C158.014 3.87565 159.861 5.27037 162.013 5.75975C162.943 7.31354 163.811 5.94329 164.777 5.69859L166 7.44813L164.704 9.12426C164.337 9.12426 163.982 9.34451 163.872 9.2344C163.334 8.74502 162.649 8.329 162.099 8.80615C160.093 10.6658 157.635 10.2743 155.312 10.2621C149.894 10.2621 144.476 10.0785 139.059 9.87055C136.955 9.79714 134.876 9.3567 132.773 9.25882C129.361 9.08753 125.925 9.06313 122.501 8.94078C121.18 8.94078 119.871 8.72057 118.55 8.72057C109.513 8.6594 100.463 8.31683 91.4504 8.72057C82.4374 9.12431 73.6569 9.08756 64.7539 9.66258C54.8116 10.311 44.8447 10.8861 34.8534 10.7026C30.3653 10.6414 25.8527 11.4978 21.4012 11.926C16.9498 12.3542 12.4738 13.4675 7.94902 12.7824C7.28864 12.6845 6.62826 12.6356 5.96789 12.5499C4.97436 12.446 4.01927 12.1095 3.18003 11.5674C2.34078 11.0254 1.64097 10.2932 1.13731 9.43012C0.856039 8.97744 0.53811 8.537 0.0611687 7.8274" fill="#8AACD1"/>
</svg>
