<svg width="210" height="17" viewBox="0 9 210 17" fill="none" xmlns="http://www.w3.org/2000/svg">
<path opacity="0.4" d="M0 9.70081C0.495064 8.73039 0.990125 7.52893 1.67084 6.45068C2.07684 5.90938 2.60126 5.46716 3.20436 5.15759C3.80745 4.84801 4.4734 4.67918 5.15176 4.66386C18.1936 3.35456 31.1271 0.889967 44.3392 1.27506C52.7243 1.50611 61.1404 1.19806 69.541 1.01322C75.4199 0.87459 81.2988 0.458661 87.1777 0.258415C90.8597 0.119783 94.5572 0.119806 98.2548 0.0889984C104.443 0.0889984 110.631 -0.111248 116.82 0.0889984C123.658 0.243034 130.511 0.689734 137.349 0.951594C139.206 1.02861 141.047 0.797548 142.903 0.843758C149.618 1.0286 156.332 1.19803 163.015 1.5061C167.657 1.73715 172.298 2.38411 177.032 2.47653C183.777 2.59976 190.337 4.20172 197.02 4.67923C199.898 4.87948 202.234 6.63551 204.957 7.25165C206.132 9.2079 207.231 7.4827 208.453 7.25165L210 9.45435L208.376 11.5493C207.896 11.6263 207.447 11.8265 207.308 11.7033C206.627 11.0871 205.761 10.5634 205.065 11.1642C202.528 13.5055 199.418 13.0126 196.479 12.9972C189.625 12.9972 182.771 12.7507 175.918 12.5043C173.257 12.4118 170.627 11.8573 167.966 11.7187C163.65 11.503 159.302 11.4722 154.971 11.3336C153.315 11.3336 151.644 11.0563 149.973 11.0563C138.541 10.9793 127.092 10.548 115.69 11.0563C104.288 11.5646 93.1803 11.5184 81.9176 12.2424C69.3554 13.0588 56.7313 13.7828 44.0916 13.5517C38.4139 13.4593 32.7052 14.5529 27.0738 15.0921C21.4425 15.6312 15.7802 17.0329 10.056 16.1703C9.22057 16.0471 8.38515 15.9855 7.5652 15.8777C6.29298 15.7581 5.06779 15.3379 3.99147 14.6521C2.91516 13.9662 2.0188 13.0345 1.3769 11.9343C1.02107 11.3644 0.634298 10.8253 0.0154682 9.91648" fill="#8AACD1"/>
</svg>
