<svg width="150" height="44" viewBox="0 0 150 44" fill="none" xmlns="http://www.w3.org/2000/svg">
<path opacity="0.4" d="M1.55302 15.5593C3.13302 13.5593 5.44303 13.4093 9.96303 12.8293C20.053 11.5193 12.293 12.4893 21.503 11.0993C27.343 10.2193 33.223 10.0993 39.103 9.73927C44.103 9.41927 49.043 9.07926 54.003 8.37926C61.903 7.26926 69.853 6.54927 77.783 5.63927C79.0565 5.48821 80.3145 5.22723 81.543 4.85927C78.7235 4.35305 75.8673 4.07879 73.003 4.03926C61.223 3.77926 49.443 3.87926 37.663 4.03926C32.993 4.10926 28.323 4.66926 23.663 5.03926C20.083 5.30926 16.493 5.54928 12.923 5.93928C10.333 6.20928 8.28303 5.23926 6.20303 3.53926C6.65303 3.14926 6.96303 2.67926 7.37303 2.53926C8.69111 2.08949 10.0514 1.77454 11.433 1.59926C16.203 1.20926 20.983 0.809264 25.763 0.669264C36.843 0.349264 47.933 0.0592606 59.013 0.00926058C67.503 -0.0407394 76.013 0.10927 84.473 0.51927C92.743 0.90927 100.993 1.74927 109.263 2.38927C110.553 2.48927 111.843 2.61926 113.143 2.66926C118.433 2.88926 123.723 3.07928 129.003 3.27928C129.503 3.27928 130.003 3.27926 130.503 3.34926C131.306 3.42756 132.066 3.75198 132.678 4.27818C133.29 4.80439 133.725 5.50672 133.923 6.28926C134.027 6.57081 134.078 6.86918 134.073 7.16926C133.813 9.89926 135.123 10.0793 137.073 9.97926C138.853 9.89926 140.633 9.78926 142.413 9.69926C142.803 9.69926 143.193 9.69926 143.573 9.69926H146.973C147.273 9.94926 147.763 10.2893 148.193 10.6993C148.669 11.1011 149.056 11.5982 149.329 12.1587C149.601 12.7191 149.753 13.3305 149.775 13.9532C149.796 14.576 149.687 15.1964 149.454 15.7745C149.222 16.3525 148.87 16.8753 148.423 17.3093C147.875 17.8168 147.443 18.4373 147.159 19.128C146.874 19.8186 146.742 20.5628 146.773 21.3093C146.725 22.6042 146.611 23.8958 146.433 25.1793C146.273 26.3393 145.973 27.4693 145.633 29.1193C145.22 27.8576 145.141 26.5106 145.403 25.2093C145.589 24.1278 145.706 23.0356 145.753 21.9393C145.753 20.8493 146.053 19.6293 145.083 18.2093C144.343 19.9393 144.633 21.3093 144.573 22.6293C144.553 24.1195 144.345 25.6013 143.953 27.0393C143.5 26.3193 143.339 25.4538 143.503 24.6193C143.503 23.9193 143.503 23.2193 143.503 22.5193C143.503 21.8193 143.503 20.9193 143.403 20.1293C143.303 19.3393 143.653 18.6993 142.693 18.1293C142.402 18.4297 142.177 18.7878 142.032 19.1804C141.887 19.5731 141.826 19.9917 141.853 20.4093C141.563 23.0793 141.363 25.7693 141.083 28.4093C140.63 32.8693 140.156 37.3293 139.663 41.7893C139.663 42.1193 139.383 42.4293 138.833 42.6693C138.793 41.9365 138.793 41.2021 138.833 40.4693C139.246 36.2026 139.683 31.9359 140.143 27.6693C140.363 25.6693 140.713 23.7193 140.923 21.7393C141.033 20.5491 141.053 19.3524 140.983 18.1593C140.983 17.8693 140.463 17.3393 140.253 17.3793C138.823 17.6193 137.553 16.9293 136.203 16.7793C135.513 16.6993 134.813 16.6693 134.043 16.6093L133.043 18.7393C132.803 17.9793 132.623 17.4093 132.453 16.8493C131.633 16.7393 131.663 17.3493 131.623 17.7793C131.323 20.8593 131.063 23.9393 130.793 27.0193C130.793 27.4993 130.793 28.0193 129.983 28.2693C129.983 26.2693 129.923 24.3393 129.983 22.3993C130.043 20.4593 130.253 18.6593 130.203 16.7493C128.853 18.2493 129.083 20.1993 128.693 21.9393C128.303 23.6793 128.323 25.6393 127.693 27.4493C127.238 24.8588 127.197 22.2124 127.573 19.6093C126.483 19.2193 125.573 19.4993 125.243 20.3793C125.016 20.9373 124.61 21.4041 124.088 21.7063C123.567 22.0086 122.96 22.1292 122.363 22.0493C120.763 22.0493 119.163 22.0493 117.573 21.9293C108.703 21.5093 99.823 21.1693 90.953 20.6093C82.473 20.0693 73.953 20.0293 65.503 20.1493C57.4329 20.2552 49.3841 21.0042 41.433 22.3893C36.603 23.2393 31.953 24.6793 27.193 25.7193C21.77 27.0469 16.455 28.7819 11.293 30.9093C10.083 31.3693 8.89303 31.9093 7.73303 32.4593C6.84303 32.8993 6.02302 33.4593 5.05302 34.0393C4.83302 37.0893 4.60303 40.1593 4.35303 43.5693C3.89303 43.1693 3.47303 42.9893 3.45303 42.7793C3.39299 41.8836 3.39299 40.9849 3.45303 40.0893C3.62292 38.173 3.48449 36.2418 3.04303 34.3693C2.27163 33.8373 1.66524 33.0992 1.29303 32.2393C0.293028 29.6793 2.46303 27.8993 1.67303 24.6893C1.22303 22.8693 0.423026 23.0193 0.103026 21.1993C-0.064866 20.2071 -0.0272428 19.191 0.213576 18.214C0.454394 17.2369 0.893272 16.3198 1.50302 15.5193L1.55302 15.5593ZM88.003 13.3593C77.813 12.8493 67.623 12.4593 57.473 13.4493C47.3901 14.3677 37.3998 16.1136 27.603 18.6693C28.493 18.7794 29.3931 18.7794 30.283 18.6693C35.223 17.9993 40.143 17.1293 45.093 16.6693C53.043 15.9093 61.003 15.3693 68.973 14.7993C73.243 14.4893 77.533 14.3693 81.823 14.0793C83.883 13.9493 85.943 13.6393 88.003 13.4093V13.3593ZM109.543 16.1693C109.715 16.4068 109.942 16.5986 110.206 16.7276C110.469 16.8566 110.76 16.919 111.053 16.9093C114.113 17.1893 117.173 17.4693 120.233 17.6993C121.122 17.7693 122.014 17.7693 122.903 17.6993C123.093 17.6993 123.373 17.2993 123.403 17.0593C123.379 16.7864 123.258 16.5311 123.063 16.3393C122.914 16.2147 122.727 16.1442 122.533 16.1393C118.202 15.926 113.862 15.9427 109.533 16.1893L109.543 16.1693ZM125.943 18.3993C126.603 18.3993 126.943 18.3993 127.193 18.3993C127.315 18.4012 127.436 18.3774 127.549 18.3294C127.661 18.2813 127.762 18.2102 127.845 18.1206C127.928 18.031 127.991 17.9249 128.03 17.8092C128.07 17.6936 128.084 17.5709 128.073 17.4493C128.044 17.2727 127.973 17.1056 127.867 16.9614C127.761 16.8172 127.623 16.7 127.463 16.6193C126.832 16.3471 126.15 16.2173 125.463 16.2393C125.103 16.2393 124.653 16.7593 124.463 17.1393C124.418 17.2538 124.4 17.377 124.409 17.4998C124.418 17.6225 124.455 17.7416 124.516 17.8482C124.578 17.9548 124.662 18.0462 124.764 18.1156C124.865 18.1851 124.981 18.2308 125.103 18.2493C125.358 18.3233 125.619 18.3768 125.883 18.4093L125.943 18.3993ZM4.88302 24.2093C7.14556 23.8818 9.32466 23.1249 11.303 21.9793C8.98442 22.0436 6.74226 22.8224 4.88302 24.2093ZM106.653 9.01927C107.023 8.87927 107.993 9.72927 108.903 9.01927C108.825 8.96725 108.736 8.9331 108.643 8.91926L106.643 9.01927" fill="#8AACD1"/>
</svg>