<svg width="36" height="36" viewBox="0 0 36 36" xmlns="http://www.w3.org/2000/svg">
<path d="M27.8596 4.66647C27.783 4.53856 27.6572 4.44557 27.51 4.40778L22.1484 3.04362C21.9191 2.98517 21.6765 3.0704 21.5388 3.25779L18 8.06763L14.4611 3.25768C14.3233 3.07046 14.0807 2.98522 13.8515 3.04351L8.48988 4.40778C8.34267 4.44546 8.21689 4.53856 8.14033 4.66647L2.07699 14.8304C1.9425 15.0561 1.98764 15.3422 2.18558 15.5184C2.32648 15.6443 5.67472 18.5983 8.04077 18.6177C8.24055 18.6177 8.42576 18.5164 8.52933 18.3504C8.52933 18.3504 9.00745 17.584 9.47731 16.8308C9.21454 23.0371 8.86627 29.6083 8.61465 30.4326C8.5372 30.6867 8.65539 30.9585 8.89674 31.0817C11.7352 32.3872 14.8469 33.0342 17.9866 32.9719C18.1368 32.9752 18.2852 32.9768 18.4328 32.9768C21.4319 32.9784 24.3937 32.3311 27.1033 31.0817C27.3447 30.9585 27.4628 30.6866 27.3854 30.4326C27.1338 29.6082 26.7855 23.037 26.5227 16.8308L27.4707 18.3503C27.5743 18.5163 27.7595 18.6177 27.9592 18.6177C30.3254 18.5983 33.6734 15.6441 33.8144 15.5184C34.0123 15.3422 34.0575 15.056 33.923 14.8303L27.8596 4.66647ZM28.265 17.4813L26.4287 14.5384C26.385 13.438 26.345 12.3739 26.3097 11.3863C26.3024 11.0831 26.0436 10.843 25.7315 10.8501C25.7272 10.8502 25.723 10.8503 25.7187 10.8506C25.4035 10.8609 25.1567 11.1176 25.1674 11.4238V11.4242C25.2279 13.1203 25.7405 27.18 26.1958 30.2717C23.6067 31.3623 20.8082 31.9043 17.9865 31.8615C15.1736 31.9036 12.3839 31.3616 9.80398 30.2717C10.2593 27.1799 10.7719 13.1202 10.8324 11.4242C10.8433 11.118 10.5967 10.8611 10.2815 10.8506C10.2813 10.8506 10.2812 10.8506 10.2812 10.8506C9.97039 10.8357 9.70611 11.0684 9.6907 11.3704C9.69042 11.3756 9.69026 11.381 9.69015 11.3863C9.65488 12.374 9.61481 13.4381 9.57117 14.5384C9.2291 15.0865 7.73481 17.4813 7.73481 17.4813C6.31155 17.2709 4.31123 15.8276 3.30097 14.993L9.00968 5.42395L13.7603 4.2148L17.5351 9.34585C17.6269 9.45408 17.7517 9.5308 17.8917 9.56491C18.1094 9.59755 18.3284 9.51388 18.4648 9.34585L22.2396 4.21486L26.9902 5.424L32.6989 14.9931C31.6885 15.8276 29.6882 17.2709 28.265 17.4813Z"/>
</svg>
